<mxfile host="Electron" modified="2024-01-26T09:17:23.867Z" agent="Mozilla/5.0 (Windows NT 10.0; Win64; x64) AppleWebKit/537.36 (KHTML, like Gecko) draw.io/21.2.8 Chrome/112.0.5615.165 Electron/24.2.0 Safari/537.36" etag="zbMJUhctilceqczMW_DZ" version="21.2.8" type="device">
  <diagram name="Page-1" id="2XWkQP5S-hDbL94sL5Vg">
    <mxGraphModel dx="1418" dy="820" grid="1" gridSize="10" guides="1" tooltips="1" connect="1" arrows="1" fold="1" page="1" pageScale="1" pageWidth="3300" pageHeight="4681" background="#999999" math="0" shadow="0">
      <root>
        <mxCell id="0" />
        <mxCell id="1" parent="0" />
        <mxCell id="OFI7zE9tUY9UPtECGpIP-1" value="Connections" style="rounded=0;whiteSpace=wrap;html=1;fillColor=#dae8fc;strokeColor=#6c8ebf;fontSize=30;" parent="1" vertex="1">
          <mxGeometry x="310" y="40" width="850" height="120" as="geometry" />
        </mxCell>
        <mxCell id="zPfGM0J0lKjtOfjBMjjo-1" value="" style="shape=image;verticalLabelPosition=bottom;labelBackgroundColor=default;verticalAlign=top;aspect=fixed;imageAspect=0;image=data:image/png,iVBORw0KGgoAAAANSUhEUgAAA/AAAAGhCAYAAADGEl91AAAAAXNSR0IArs4c6QAAAARnQU1BAACxjwv8YQUAAAAJcEhZcwAADsMAAA7DAcdvqGQAAIqzSURBVHhe7f1fjBTZneB9/3raVzz265EyIeumcdsXRUFXle22x3rUVdCFxLP+syNg2HoQz2g0eiTEAhLSaKX3qtUXdYG4eC5ePRctAUJYerwaDcuWS8B41r1r9qEaqtBuT3t6BdWQpDQtxPYFBZnusdRtz1z5PSfinKyIyIjIiBP5L7K+HwlRlZWZceL8i/jFOXHildlvf+cPAgAAAAAARtofmf8BAAAAAMAII4AHAAAAAKAECOABAAAAACgBAngAAAAAAEqAAB4AAAAAgBIggAcAAAAAoAQI4AEAAAAAKAECeAAAAAAASoAAHgAAAACAEiCABwAAAACgBAjgAQAAAAAoAQJ4AAAAAABKgAAeAAAAAIASIIAHAAAAAKAECOABAAAAACgBAngAAAAAAEqAAB4AAAAAgBIggAcAAAAAoAQI4AEAAAAAKAECeAAAAAAASoAAHgAAAACAEiCABwAAAACgBAjgAQAAAAAogVdmv/2dP5ifMWpqh+T0qXmpSFPuX3lPVjfN6+iZ2sFzcnKuKo2bS7L80Lw49iZk4ewZeatSl1vnr8mGebWMYstv5oS8c2TK/LJlXMt4+vg5OTxZlVZjRS5ff2BeLbFtVn5l0ct6Vu5+tyz9p2M6S9T+ylGPxud4OxrIT0BjBD7VrCy+uyTvdPt3fNa8v5M+wLzz7gmZNr/nUds3pYJ3rSlNgvc+mJC9U1X1v8rfF/4rvVKk3Ptvl1R1xWo15aX/QknFl1+tql+Lqkt9HIO/2iGZU0GVVqnskpr3U7ltq/JzNPD+paf1rH/9rqt8+VmW/tMtnWVqfzt3jlY9ijcux9v+Gc/2B/QXAXyamX0yaX5M03qZdPQwJyqOHY1/cFLoqPrEHgjq8rinF0iKlXvf1Xb5F4ZaL6Tc14Xiy2/zznty4fyS+XdJ7rfUi+PahjY35IneP3US26hvlLw8fduq/JwMoX/paT3rV7/rKmd+lqX/dExnedrfhF+PdAA/ygUxNsfbfhnT9gf0GQF8mofXAgeyJbm63vRe1tO1gq9fvvPce72TPVEp1tG0xuTEfOT07UDQm3LvFzuzo/G45NOtM5XfaJdFcc9l9aLuh96T5cR+qMzGvfxcDCNPeljPRu4EPF9+lqX/7E06R7j91aZlj7eDj0Z6GvXYHG/7ZjzbH9BvBPA55J6uZUbw3TqaravLTx6N44n5CNhV9Q4EyTMoHBUq9/4rx7TDDLKU34iXBbqg/DqVPU/61e+6ypmfZek/e5LOUa5ro1aPEozN8bZfxrT9Af3GInaZ6fvhj6mOJm3hDPWeswdksqI7mG66LcBhFuqQNbl68XbXK5O1mUOyf34qsO2mtBp1Wf/gtmz08tK5XVivsSIXYhcySl9gpEg6azMn5Kj6bMW7sKE1pbF+V+7deZCSPxMyfXzRu3/TfqzVWPO293JfrxbA6UG511Q63w6nU08xvb+2KqsPe3kBJ1o+arsHF2Ruzr+qrelFqm6oso3P0+T83NilFz+qRhZcNNtr2frSu+1lKT99b93JOcm1CKRbPXOTuz0kLDAlrWz9xCiVX/z2wvKW38D6QStvu3XqP4v3L6NUz7q12/63vyL5WbT/HMT+aeF0vvTKf17ts//Xlqqj6ysq/V02mLv/LHAcq9VmZe/bB2RPpM7cuB5f3/y0JdUju//qO9YvpcyS7CauPWpqP2d2qf9fyEZov8x5Yrt9D6e+dJSbytvFY4E6r8rkVkL50/6AcmAEPis77S9tupZ+T6ZOSel6v48/rSjT9HnVIZ08og/OwW2rg+DkvBw+dU4WZybMaz3Q9aq3nQ4Vs3/O6dQd/pL6bLDT1aoyOXdMTp49FL+okj5ZfveMt3Jy8GP+9k7Ifn3flTpAFF6cp2C56wPK6VOd6ZTKlLx15IycPtjD8guWj82fwMFPq0wek6Nx20zNT1V+e/UJfzN8P6KZ5ujVl55uL1v5ta/WZzoyO9YzVw7tIX6BKZW/WfqJLvk52PJLqC8RucpvkP2g4tRuXfrPoseVEatnye12QO2vUH4W6D8H2r+YdDaaUvW2qcvf/4tWUXVUl/1Clw3maX/uxzEVhB1XAeepY/JWTJ05+W58OpNHYnU++8F742aR4D3FzIIcPnJMDs9Ph8qsdlAFpur/rdHk4dSXYLnpYP4dlbeh9q+/r6NMaX892T9gQBiBz0odnPSIRParuaqz0FdiM49YROjO6dS8tLqODtsrkk11sFpW77Vpm1AH1AU5qjsr1ZFnvoLeRfpVb8Wku3OEyTWdJh/V37yrpI8eyKb9e21WFo6pg77qjDvTYz+nqDK4tbI10uRdgfW2p7iWT6Kc5W7qlRa+cqzy5eCCyms/yOlV+dny0QdAUQfRSuhKvD6R0idg6seO8nPMT9tuQttbVZ/V5d+H7YWY7+j47jh2e3nrmasetVuTv93TtZWf7RHwLPlZmvIbbD/o2m7d+0/L5ElqvgUNr57lK3f7uUG1PytnfhbuPwe0f7Yeeb/4ZX9Plb23SW80VqVF/zG1bZk0Z2l/ju1hq37qnyPp1PlpR1c7ysd+zo7EGu39jtZ3V3HbCaQ5lC7zenDW5FDqSyAda1UvYPXK5AP7HWq7MxI/c8Bpe0WY7Y5b+wMGgBH4jOyIRKuZ8YCgrzLq/10Xf9m8LZfP5+hMVEemD3xb1EHw4TX1HZfkVq9OWpXkq95GtxGmnOmcPq47XdVJq78t6ylOwb9vPpDVlTXRi+RWquErrv7nFN2RqwODPYnUvO3drHuf6/niPLnKXR1UzEmPPnDoZytvfUbly51rZuHEquzZlzR6kY9dAMa7Ar5+SeWNPfhpz2XjAz8/o7Lkpyey37bdhLdny7/Y9rqWnymL5NHOLa71rLCC7dbP35T2aNj81Cdyl68nl190hLWf5efpUfm1DaQfdG+3hftP1+PKgOtZ3nY7tPaXMz+L9Z+D2z+bTi/A1AsPqrJvb1Jtb9lsT9IeCZi5/bm3h9rBxa1AOJpOnZ/qs5evrHgXgoJZFruAXSB41xcKigfvCbxtq0Cw4QeRO83L7dlKgT50OPXFjFLLlBw9oi8WXvLLJLjdSN7Q/vq0f0AfEcBnYh5zoTqAzNOtzYlY/xd/eS5Nr+eZl6PHZ6XWcTRWnVqWnjETs7CeOhlMevzPtDctVr2l40KHSzpnZco7G9TT/WKev6//tUcZAtSBfM6LVtRJQegqbJi3K3mCgyxylLudbqdndSRdqNl85J/wVnbq++2K8wMIc6KVMpMklC8Z81OL7vfW9tJnrrhsr2v52WCo60U3x3pWSC/arX38TpfHcQXyU4+MpYnmVT/LT0ttJ5nLTxtcP+jebov0n0bu48pw6lm+djuM9mfkzE+n/nMI+2cvFN2PBr7W5ovYQCckY/tzbw+zsn9Op1MFVhdTRl9VgNVRR23aTD7r2R1+HmaYTVLQ9NtqO6ot1CP3qnivq+0HFx0eSn2xQbEKcls3s1zIoP31bf+APiKAzyRw343/Qlf+iVj3EYte2Lh+SW41mt69Pye9DuqcLB5UJ2vm7z1jr3onXi0NPJc1Zr9zp9OsTpqXvUqbdr9m7hkVGeUpd3uSNbinDNjySb4Q1c67QL5kz8/ofge3F7+PxbaXXn5+WWS46OZYz4oq3m5tv5Q+ejG65ZfeTjKXnzGoftC53RbsPzWX48ro1bNwfRlW+9Py5adb/zn4/QvUo7QC6yJr+3NvDybQdHgMXLAeebelmBkAqvKlX2QqzA8GdR0PnwuaILFxN3DxYEj1xV7cSLmgEkL7A0qJAD6LnNN8enUAze65Okl7Ty5cUSdq6/pKt1mUwztR6+GUoMhV7072RC/pIJovnfYgra+2Bp+7H/cveDW2+wmFw4yKTPKUe8b3ds3zPLpfiLJ5FzygZs/P6L70e3tp5WfyN8NFN9d6VlzBdmtOTLqNXoxu+UW3F5S9/LYMoh8s0G4L9595+pegUatn4XY7vPaXNz/d2sPg98+ks9uCu/r/bheTura/fraHZDafK/NL3poS+tagW3qafmVe9s/47+kNM4PF8Gcb1GVdldNmU98WYMS2keHUFxsUJ7fDMNrf1r/e7h/QXwTwWeQ+0GQ4gPbDpjpR0/eM6c7oyoo0WvpEbbHrSrNZ2Y4wdHUzoGavdHa70JEznb2/L6n7gcBNr8t9Qhbm/ZGFpDzPJetJW+YDqpWQn13rQ4+3F2Lfk/WiWz/qWUaO7dZvj+GTFSftkeFyl19bn/vB7uLbbfH+0+SJa/8y7HrWpdwH3/5y5mfB/nNg+2fSmXa+4k/3VrueeFGmQPvr0OPjWHtKtDovU2n0Fha+/kDV7bvSUK9OzvdrNXFzASpUX6pSrZn9a63JveAF5aHUF9c+mfYHlE0JA/hZ71EQ+r6V3j5eK1neK5rtjqbvVF7o+xrNbyF6oZo1vVCUOsD05vbp2KubVnAaW+eJg1s67RXuylT4US1BtZmJhL8l7bdeqVQvaKL05OQkIFe52yv7UzKVMGIQXOAndGLgyE4v637SFneCnT8/21e+B7S9EBMMZbnoVqyeuehNu223x0yVOGEhRG8FXnP/X0nLb7D9oHu7de8/jdzHleHUs7zlPvj2Z+TMT9f+c9D7Z9OZRN8v7q3UnTaDKXP7K3Ace9EU7774uQWZ9l/ppPqnjnxpl5u+3z04avpA7vVlFN6YWVD7obb5QaT8d3UuXqcNp76k9cnxaH992j+gz0oXwHsnAabVpzXI3nG/oimTB2RBdQxWTZ8sHz+UfLDKyZvOpe9rPHvOe5ZvKC/UthbNVe/eqspbbwcOqno7+tma+tFIDb+jjF5ld07nw0feFXV9QNbP6JwOfNDPS33Se6bjYP3ypZ+OySMnwp+ZOaTSah4zomQLDhxkLPeNx/oEWqfTz5c2u2/eAj8pCxHllBZAeOxJW+RExDU/B729OLqPaH9HTQURwXy2HOuZq960W9svTclc4EJmbWY2lH7N1rPKnH4Ws/672qbZr9P62cumP42eGJWl/AbdDxZrt/n7zw4Z+5dB1zPnch9w++uQMT9d28Og989P51Z739qcvoiit+WXe+Pmta4jn1nan3N72NyQJyb4P3xW15ngZ/206ueXdzzT286IXF/uWKxus4+j8FN6ICfm9paqer1iptUHDaW+2KA47eJoFO2vv/sH9EnJngNvnm9pTji9R9V0WeU4v8g2kuiVdhNXTk3/Dn0vTubHw3Xhjdx4B8gEKo/0isCZO/M0gWe9hukr4e/J4306LRK7CqxzOhO36Qs/c9ZSJ6feMz9jqAPwrXpVDieks5j85T59fKl9YtvJz9fepNGmTe1/8Lm5AbaMOtPpkp+D3l5UwncktVuneuauF+026Tvy1DPvmfAv1Ql0ycuvF/mZh1O7LdB/+vL3L4OtZwXKfcDtz5cnP4u0B2Vg+2fSqQLKhgqM7WBHWJZnpOdrf87HsVrwefWddP9043p4e6n5rNi/e1Pre3BPc3DfQtsMlqkqv/C56JDqi/lc7n2n/fVh/4D+erU2MbFkfi6BL+Tpv0zIvqmq7NAnBO//V3nxpflTz3xLvv+jvYkHlLbPPpL3P0lq7iqdH9Xl1YnX5bXKDvOa6iRUmm//tTqQfWpe6IEvn34o9578Rl792k7ZobZlt9ZqNeWzX/1Mbtz5x951Si825PMJPV3MbkWdCKy/Lzd+9rfyiSqHb/7gJ+pvz+TjX25I9CKpczrVNvXnaq/vlMqOQF6qA/vtlZ/KLz/clM4qsCmPzLba+a+209Db+bv/Jr/75g/kzd3N2HQWk7/cX3yyKo3PJ+QbO1WdbmeKSuvHW/naG6Zeq7SsffRpTJ7Z8mvKk3sfytPQG1zyc9Dbi9Lf8RVVb3areuO/osvhf6x9KJ+8+MJ/IcipnrnrRbv98ukz1R5f72iP9/57Z1r9evYV+eof6ff+Tj777B9kfeU/qf16Ift+fEBe2xFtt+Uqv4H2g4pTuy3Qf/ry9y+DrWcFyn3A7c+XJz+LtAdlYPvnp1M+XpZ//x8/8sqt2i73ptreP6jtXVP7FtMHhuRrf87HsS8/lV/frUfSqaht3f/Vsvz8zoOOfEnNZ+XLp/8stQN75bXdX5XP76b1MdnsemNBbU//VJf15cD31aZlv7coowo21/6DPAptaDj1pabS+ubuHfLZx7+IpKcL2l8f9g/or5KNwAMAeseMtKXOKAIAAMCoYBV6ANimvPuk1f8d9w0CAABgJBHAA8C40veYes/7jqzmHFpgqnMBJgAAAIwmptADwLjqskiUvi82edE0AAAAjBoCeAAYa/qRTIsyN+k/fsmjF5iq35V7d1h5FwAAoEwI4AEAAAAAKAHugQcAAAAAoARKEcDv3v26+QkAAAAAgO2JEXgAAAAAAEqAAB4AAAAAgBIggAcAAAAAoAQI4AEAAAAAKAECeAAAAAAASoAAHgAAAACAEnhl9tvf+YP5eWTpx8g9e/bU/IZOE7Jw9oy8VanLrfPXZMO8Oq6mj5+Tw5NVaTVW5PL1B+bVEps5Ie8cmTK/bGncXJLlh+aXMTLo8hu7+gIAAIBtixH4EVU7eE7eefeETJvf0+2SakX912rKS/+F8VU7JHMqGNMqlV1S834qt1rV35+wutTHMHgfePmVpL7ka+8AAADYrgjgR9KE7J1SQUfWgLy2S3T8Lq0Xsum9MMY2N+RJS//QlEZ9Yyz2d/POe3Lh/JL5d0nu6/0b14sxgy6/UtSXnO0dAAAA2xYB/EiyI+rZAvLavikvgG883g7Tg5/L6kUd6L4ny3eem9fGSb6yL59Bl18Z6su4lzkAAAB6hQB+FM3sk0n1X9aAfOdOPUW4Kc0X/u8osZxljzFAmQMAACAjFrEbCbOyePaATFb8e3XTRReqiy5gNyHTBxdkbs4fldf04l03rj9IHN2rzZyQo/Pq/fYDerrx+l25dyf5M65qM4dkv9rW1r42Vfrqsv7BbdmI21jCAm/SWpOrF29nSJ/Kj+OL3n3QW/mx5m9vl/7uqty/8p6str/I5GdrRS54C57lzc+82wvT90KfnJPU9/RETaXz7XA6pVWX+2ursvoweaS6I301VXePBequ+o5bK6oe2rQPuvyctzfIci/S3re4tNvc7Q8AAAAjhRH4UaDvYc90Mq903CcbWMCudkhOv3tGDgeCDq0yeUyOHpwwvwXpQGJJTqqAZysI0KoyOXdMTp491NtFv1TAcfLIfCRwUQHP5LwcPnVOFmc60xi/wJva3Sz3M9v8CAapir+9E7K4Vwd6TWkGv6g2LXvUm1svX2x9Pmt+pm5P7V/c9iLasyn6GEzpwO/0qc50SmVK3jpyRk7H1hVfMH3ewmunjoXLU39hIO2DLj/n7Q2y3Au1d82x3Tq0PwAAAIwWRuBHjjo5f1cFRVlHKHXwcGreO9EXdWJeCY2A6lFBHVioHxt2ZNEy21GBhTdq9+iBbLYDjFlZOHZM3lLBQe8eZWZnCqjt3VxW32lHeSdUQLkgR3UwotLSdeTZjLB2T5fdP5U1diTUfK83cultT4nms/n+Vig/V9VndXqz5KeivvPWSsbthZjv6PjuHjL7p4VHlFU5HFyQkypo1cFmfDmYMhS1D2tVL4D0vuMDW3dU/syIbKSM4Pe9/KKybs+8b/Dlbj7fbT/a7PbyttsetT8AAAAMFSPwoybnivJ2ATtvRG/9kly4GJi+LM9l44M18Rbhjpg+roMAFaSoE/ZlPeU2uLHNB7K64n+uUu3xqJwKjO6FArznsvnwmlw+f8lLS7fgwR9hbXa939/fP7U5FXBdvh6eHuxt72bd+zk6MmtHcMP5adPbLT8VHeCpQCxpe6nlasreGwXuCxX8qUBN0wGefib6VlpUOdy5JlfXVQArVdmzL67czWwPmVIBX1V9xyX/O9pfovInLXhX+l1+UVm3N7Ryz9neC7fbgu0PAAAAw0UAP2p2+dNw8y1gZwKylFW2w0HhrEx5UceUHD61JO+8G/Pv1LwfWPTMc2l6kcW8HD0+K7WOOb4qSOoaPNjHbdXlcdp7a/rZ3+r/1po3wpym1Qzn2VZ+quA0a34Gtne1y/ZSy9WUfTRNvVI7eMAPilWAmjQavfmo7geAO3f5LwTZYFMFua2bKoDsEqx36n/5hWXcnjK0cs/V3ou02160PwAAAAwbAfyImbb3y3YZMfRNmBHRutQTAjI7Qh8KdMyq14O2cf2S3Go0vXuJT3oByDlZPKiCCfP37rI9bqu9zymjs/Ejs8H8jA/i4vLTfXthftknl2VR9v71J4/Sgt4U9gJDygWAdP0uv6isj2cbXrnnau8F223x9gcAAIBhI4AfKTaQUCf06RGHEVjAzn+hQ3vRsUCAYKcL61H7C+fT/6WNRub3XAUR78mFKyqQWNcjvWbRLS+QyDBVP+PjtroHqmZktiOf3fLTfXtBpuxTtl1Mxrplg/SYafw22HS+AND38ovI/Hi2YZV7vvZevN0WbH8AAAAYOgL4kWICicaj2MdGdeh6/2x6gNDz+9uz2lSBxB19360KNq6sSKOlA4lFWegyFJht1DUDs+J4R8BmRzgd8zNZ9wBx6z3dRov7aUIW5v175Dunprvu+5a+l19E5u0NrdxztnejcLt1bH8AAAAYPgL4UWID8ozsFN7kEcb4AGKzqRcqU4HA1HTi9NnazEQPp9bOyqK+79b8FrL5QJbX9EJfVanG3HYd1B4FzRREJSzE5q3Ube4TjgRs7RHOnPnpS0q/XsHcLHSWFpybILJ/C9iZe6BlSqZmvBc61A4ueiuY63u673VMke8WjHbX7/KLyrq9oZV7zvbu3m570/4AAAAwfATwo2jygCwEnslc00HL8UMybX634qb1htigMHqP7sNH0tD/V+a9Z0ZPB87s/W2dk5NHzsj+hEAvL2/xNH3f7Vn/WdOhQEJtb9GM+qazo6BTMheY7lubmQ2lX9t47K/8XZnTzzTXf1fbNPt1+pT/mC0tGrC55ufLl35gNXnkRDgvZw7J4lnz+DElS3Cug7P2d6h0T/fw2dw2XyaP+OXQZst8zt//+ysxjzPLuVp6p/6XX1j27Q293DO2d9d225v2BwAAgFHAc+BHin1Ws/k1IvxsZ/veutw6fy12Cm7toB+UhT9nmOdeJwk/I7w4m5ZEant6Je+07SV9R9z+TR9fagdQQd4zxV9OyeE5iTzzukh+qiDIPgs8qqW+r16N2V5UwnfoFc4zPR88m6R88aU8B9w+J309fZX2NP0tv07ZtjfMcs/T3g3HdpuUF20Z2h8AAACG79XaxMSS+Xlkff3rfyy//e0/md/G2Rfy9KO6vDrxurxW2WFeUyflKhi4/dcqCPjUvOD5lnz/R3ulov629tGn8qV5NeibP/iJ7Kk05cm9D+Vp9A0vNuTek99I7fWdUtkR2JYKkG6v/FR++eFm7He6+vLph972Xv3aTtmh9s1usdVqyme/+pncuPOPXYOHL58+k89V3uxp501TGuvvy73/3pnWF5+sSuPzr8hX/0i/93fy2Wf/IOsr/0nt1wvZ9+MD8tqOZ/LxLzdka2y0SH5uyiOzb+1yU/vV0Pv1d/9NfvfNH8ibu5uR7UXp7/iKKo/dqjz8V3S5/4+1D+WTF1/4L/SAny8T8o2dVWkXu07rx+/LjZ/9rXySUOi1NxbUPuyQzz7+hTzqPpEgVn/Lr1O27Q2z3PO0d8Ox3fai/QEAAGD4GIHHNmNGTXs8so1BofwAAACwfXEPPLYV735g9X/as7sxuig/AAAAbGcE8BgvtUNy2nuudWTV7dBCbXVZ7+nz7dEzlB8AAACQiCn0GC86ADxlHjMWK2WhNgwf5QcAAAAkIoDHGNLP4F6UucnqViCoFxer35V7d1hpe/RRfgAAAEAcAngAAAAAAEqAe+ABAAAAACgBAngAAAAAAEqAAB4AAAAAgBIggAcAAAAAoAQI4AEAAAAAKAECeAAAAAAASoAAHgAAAACAEiCABwAAAACgBAjgAQAAAAAoAQJ4AAAAAABKgAAeAAAAAIASIIAHAAAAAKAECOABAAAAACgBAngAAAAAAEqAAB4AAAAAgBIggAcAAAAAoAQI4AEAAAAAKAECeAAAAAAASoAAHgAAAACAEiCABwAAAACgBAjgAQAAAAAoAQJ4AAAAAABKgAAeAAAAAIASIIAHAAAAAKAECOABAAAAACgBAngAAAAAAEqAAB4AAAAAgBIggAcAAAAAoAQI4AEAAAAAKAECeAAAAAAASoAAHgAAAACAEiCABwAAAACgBAjgAQAAAAAoAQJ4AAAAAABKgAAeAAAAAIASIIAHAAAAAKAECOABAAAAACgBAngAAAAAAEqAAB4AAAAAgBJ4Zfbb3/mD+Xlk7d79ujx79tT8Ns4mZOHsGXmrUpdb56/JhnkVAPqiNisLbx+QPZNVqZiXWo01uXH9tmya34Eipo+fk8OqfrUaK3L5+gPzKrLr5XmB/a6mNG4uy/LD5+Z1jKtC7c/h+EB7tzifR3+9WpuYWDI/j6yvf/2P5be//Sfz22irHTwnf/UXP5H9Bxay/XvjK9L46FP50vv0t+T7P9orlVZd1tqvjTZ/f78ln9/dkBfmNZAvZbctyq92SE6f+qHsqeyQHeYlbUdlt7z5xoR8/lGZ931Cpg/+qfzZjxflhz/y+9p9E1+Rf2l+Ki/K0LGOGOf2oOrYn/2rKa9+7ZBW4FiH7Hp4XjDzp/Ln362qH3ZI5Y+eyb1PRusyHcfNHivS/lyOD2Pe3vPVz/Kdz6NcmEI/bK0XW1cya7v8q5zB10bahOydUicDraa8NK9AI1/KbTuU34QsHJv3+hs9UnL1/JJcMP+u3qxLo75a2hGD2swJOf3uGTk8NyUVO2ykVCbn5fCpEzJtfkdWBdrD5oY8aekfmqpObTCrw0UvzwteNFVYpTXl/gejNjrKcbPnnNuf4/FhrNt7zvpZuvN5lA1T6AdAX7U7OVeVxs0lWX5oXoyR9X2jY1YW3z0mk6qDv8DUyADypdy2Qfl5oyvqBG3M9tH2oZo+8byhgpRN7+xJj8gvqqBe/Y12mRP92TCV77zAFfVsZIzp8aGYfPVz+7RbDAsj8AOwc6c+oWxKs8ucm6zvGxkz+2RS/dd4TAcfQr6U2zYov9q+KW90YKz2UZ10HvWCd31/75J3/6UfvGvPZePOe3L15ppc5YQ0H/qzoSrdeYEr6tnIGMvjQ1E56+e2abcYGkbg+85ctZNuC1lEF7zQI0YLMqengZp3eCNK+qTU/B6lp44enQ9OG1Unsut35d6d5M/ko/bl7AGZrOiOqZuk/VX7dXxR5iKLoqx/cFs2dp2Qd45U5f6V92Q1kmD/aqZs/a2m0nIskJaW2t6K2l7HjrptT8uen73Il7xMfWn5V4NrM4dk//y8SoP/15bKj/XY/PA552dN5efb4fzU772/tiqrsQsiFUun5lKv8+2fa/lF22yCfoxm5C6HrPvYq/ppube/fGxZqBMslxGPgvXa289M/bXr57a49vM11Qb2ZlqQqkB/ptL2zpEp80tAa02uXsywMOLAysHn90dTgX1tqverPknXz66JdeC6f6aPeZmj/5w+viSHdcQRo7V+SS7fidvelpGuZwXlL/dwPRvUcUzLnp+Kc/tzPD4Ube+K0/F9IO22SP0Mt9vRPJ9H2bGIXb/VZmT/93bLjsZd+XnqgjGBBS/+57fkL/7dMfnu7mpk8ZC98o1X6/Lrp1+YVyzd0ZyV/+276v3BD6hPV3bvlTdDC+UVoPdFdSihTSTR+xHdpg5k9H7FLIqy53vTUvuj3aqzeiYf/7JzgZBv/uAnssf87RUVnP3V0e9JJbizO5ryJPq51O1NqO3pzjFueznzs2i+uKj9r/LD+d3y+1ZLvvbGT+SIPjAEs2NH1cvTV598KE9jNuaSn/qA8hd//qOO/BS1rdemvi/74upmoXS61+tc++dcfl/I7782LW/u3iGthHz2DuR/eUz27FAH8ov/taNeu3Arh6z7qPKlVwtIFWjvudnFudSJ442/y9e+CtXr+gfy69//r/5+ZumvXT/ncW0P6uTx+P8p/8e/+p68FlMWbx6ItL8C/VntjQWvPUS1Pv5P8kHH/oQNtBw0tb2/OvJmuF9Qn2zXz8+fyaMX6WnOw2n/7HmBCk5aB/5SjnxXtZnAh5P7zwnZd+D78lpoQ1s++/gXat/MLx1Gv54V4lLuQzmO5cxPxbn9OR4firR353wZVLstVD9LcD6P0mMEvt9UZ6OvUHa94m1G6fQCGVKpeg1/a4RQd+Rn/KvpHaN4qrF7I/zm6tyjB1vTRmuzsnDsmPuoVCqz3cxXWm06FfWZWytbV0r1ic1RlUfehcbY7zNXM0X9ba0qJ3V+6quXwftbZ0Q2QiMYW9trj/hl2l7R/MybL45MvfKptN5clntq/73tqXQuqnR6owMd9UVzyM/A9sJXjiekdnBBTqoTGp2OjtFU53QWKQeX+mLlLD+zf4ntu9vf83Ith5BB1FFbforaTr72np8dbczdz7nmpy3XUH+9qvZRl3FKf+36Oef2YEeC9M+R9qe3Z0eFEsuhYF0x+9u1XAZdDu188fNk63FqanszC6Z+dmtHObjun5294/2Sp/+M57eTtP0qaT3LzLHcA+WXrxyGlZ9G1vYXUqAsMm+vaL7kLL/CcuZJ6c7nUUbcA99ntao//abVtB1NPHvPUUU1dlEn+xcu2sauPZeND9bM6rFh08d1Y1edg+qwlvXUmmDPsvlAVlf8z1WqE/5rvZJzhU0/nYrusFQHuLVvKpkPr8nlm3X/l9jv2yVVb2NTqoPWi4KoYEifAAXzp92R++z29MnS5evJ22tFVkotnJ8DWnnU1isvADqv0to+uCsqncsmnVLZJTXvxaC8+akOKubkRR84vPd6v2lqu3euydV1daCSquzZF84X13QWK4f89aUtb/k9fCQN9V9l5y7/9xCTb2rfb/QieC9QDiEDqKPF2nteszLlbawu9VwnNcXrdbi/tmWc3F+7fs61PdQOLvpBQFz709tT+3j5yop3gSW2HArWFX9/u90HOvhyaFMn1jow2qK2p+vn+UteXvcmCCiwf+a8wK2fj5ow/aIqj4T9Kms9yy1nuQ/6OFY4P41s7S+iQFlk3V6x47sykHYbkDNPSnc+j1IigO+zfAvYmQN8ysl+62Xwi+yJ65QcPrUk77wb86999b7HdlW97820oEftkMx50bQ6GKmTlzSx32c7T9UZtm76B7NUge3pkY404QsrPcjPPPlSgK1X95MO4JsvYg8Qnpz5WTt4QB1UVF6pA1HSVd/NR3X/wBIJZN3SWbAc8taXoNzl90Ka3o53nkDbfGuspZ9kZVWkHELMPob7kh4q2t5dtfI9fqp4vVbp1xeHMvfXrp9zbQ+zst9b1E+dEKaNGqkTw+AFlpBC/Zl97FJdHqc0gGGUgz6J9tvtvBw9Piu1juhXnWT3otEqg+8/k5gLm4ntpKz1LA+3ch/scawH+enJ1v46OB8fsm6vyPF9cO02JGf93OqXSnI+j1IigO8r2yCTr3j77JXx5BEke0UvFHCaVTGHYXqvHlHIdmW3nfaU54KmXrm1B5SUE6Ag5+31ID/z5Iu77iMpqXLmpz15efIo+UAUzzGdRcsh5/4F5S8/e0IxJXuDJxMqiPVWRG+s5E5DEvdyCLP7WPR7khRu73nZCzY5Fa/Xur+O/2xsf+36Odf2YPOl8ch58a9i/ZkNGNNHrQZfDr6N65fkVqMplcljctI7YT4niwdVUGD+3isD7z+TmPqQ2C5LW8/yyV/uAz6O9SA/fdnaX5T78SHj9goe3wfVboPy1c9gv+S90KGn/Ty2LQL4fsrcEXe7Mr51EhDsQPyTYPX1N5fkwvn0f2lXAfPLd0DrfgJjrtwmfF/eA4rr9ornZ49PuBKZ+pJWr2zdizmY5svPjPsUe9XeLZ1Fy8H9BMSt/DYe6+ngVam2B88mZOGYvlJel1tdRqCzK1IOQf2vo0Xb+2D0oF7n7K9dP+fcHrrWhW4K1hVzQpo+ajWMcrCeq2DgPblwRQUE63oEvCqTcyoo8AKCXk1R7cH+OfbzUWkXM7TS1rPc8pb7gI9jhfPTyNT+ogqURcbtFT/PGkS7DcqbJwPu57FtEcD3U9aOuOtBOL0DGfz9MBkOaLmkdXh9OLjXpmVP4vaK5Gev8yWBOVCm1avpt/2pVp0H036cLKmAdV4HzTpLAweWQul0LYci++dYfi+a3vTJdnpnFrz7F1vrq/2tBx0SyiGk+8lF//U4DXb6aqUqO70XeiW9Xufur10/Z5Stn/dPSNW+FIxDel4OUZsqIND3FOuT4ysr0mjpgGBRFvo5pBeSsH/mvMC1/4xKv5ixpfznExllLfehHMeKc2t/7n1z3u0VzpeBtduc9bN05/Moq20UwM/K4ln/PpLTfblK18leUUs+mfbZK+PJB+H4TnWzqRe+UQ1+ajpx+lBtZqL3U4tsB5VLcIQySK/IqRfuUGI7PNcDSsJCXt5Knv7BNrq9wvnplC/5da1XMyf8FU5jp3DlzU8zRVymZGrGe6FDcMGde4HtuaazWDm4n4A4l9/mhjxReeSn15yM6/UXenqV3L0cQrqeXPSKa3t38UDqeiVBlTdziX17tL4Ur9d5+2vXzzm3B3thaW5Bpv1XOqn+MOk7i/Zn7YAxtZAHXw7euYC+f9b8FrL5QJbXojNqiiiwf+a8IIl+mkNyPx/V/WJGWetZdm7lPvDjWNH8NLK1v4gCx4es23M/vg+y3QbkrJ+lO59HaW2bAN47aTStMK2B9FLWK95d32evAEfvXTMrYOsFPU6ePSTTgZ2q6UD1+Dk5eeSM7E84cShs8oAsqA7F8rep0mF+t16+9DumySMnwmmcOSSLZ83jNJTYK9wOBxR/SrM+AJ6R0wdn1TZVp2fy4/Qp/zEcWkcH26v8zJgvrvz6ovNTX4wKHtB0cHSu/bibxs1rnVeMC+Tn5JFzshjYL+9iiM4Tb8GdzgV+nNNZpBwKnIC05S4/c5JeqcpeczLeq4XrglzLIaj7yUVxhdq7I7uqr9fmIyd5OtA5/e4Zry4FXy9Wr/P31wPv582FJR08Hj6ryyK4j6YNqv7waLcL2k79mQ0YwxdVajO6Pza/GIMuB29ROX3/7Fl/e6HkqG0umtHwXinaf9rj2FY6/bLTj8fUYvv5qC6zzjylrGfZuZb7wI9jPcnP7O0vyP34kGN7jvky6HbbIWP9HHg/j21rmzwHfiLwTE2l49mL/aA6FO95jnW5dT7tAGvTlvy+2kHVcNVBXt8b07Egljo5tQeQOOFnzvZKJD8jOtNp8yJGS+13vSqH5yT+2Z1m//SCZHnu+7HPhY7yngn/Uh0Yu2wvSXp+5s0XF2Yb6gCh7/2qJGwrMb96nJ8+dfLZkZe9SWeSxHJw3D+fe/nZNurpY/+SvxzCuj8HuhcKtPcCQmXQIX6fnet17v7a9XOGa3swzyNOqNJef3jjetIFH/f2oCWVR9znBlcOvvS6oqj81E9QiM+X/Nz7z7o6qZ9qDz6ERZ+FnSJrv1jCepZH/nK35TDg41ih/PTlaX9WkeNDru055sug260vT/0s1i851xdsS6/WJiaWzM8j6+tf/2P57W//yfzm4gt5+i8Tsm+qKjv0CeT7/1VefGn+1C+1Gdn/vd2yo3FXfv5JWnP7lnz/R3ulotK19tGnEpesb/7gJ7Kn0pQn9z6Up9E3vNiQe09+I7XXd0plxw7zot/B3175qfzyw83Y7yxG5edHdXl14nV5rRLYptqH23+tOv5PzQttm/JIpfHVr+3cen9LnXz86mdy4+/+m/zumz+QN3c35eNfbkj0omXtjQX1tx3y2ce/kEdJVzRjvPhkVRqff0W++kd6e7+Tzz77B1lf+U8qP17Ivh8fkNd2PIvdXrH8zJsvLkx9+ex9+b//nw/kc7WtqtqW3Vo7nRtfmFfCiuXnhHxjp2pD7Y2pMvz4fbnxs7+VTzoypVg6XcvBdf987uX35e//P7JPt3d9we6i6l/M672WvxyCVB944PvJdb9n3Nt7EV8+/TCmzqgT78b78jcX4/PGuV7n7q+H1M9/+an8+m69o/3pCyn3f7UsP7/zoG/92ZdPn3nb3dP+rMrX9ffl3n/vTOvgysFn64quozsC+dJS2/xM19M7/9jTk2TX/ZOPl+Xf/8ePIuWn6/Q/qHK/psogof+MyNwvlrCe5ZG/3IdzHCuWn7487c9X7PiQa3uO+TLoduvLUz+H1M9jW9omI/CAZUYHW2tyNe0Zq6PKXJkXpxHmASpLOntlu+0vgJKwo4JuI6vbGv06gBHFKvTYVrz7qNT/HfcflYS9R63bwojDVpZ09oS+/05Pd2z1euE6ACioff97XR4TvOeyrY5jAEqFAB7jRV8x954HGl7IKrxgUF3WSxpodV0gZUSUJZ1OAosK6YXZ9MKIk2pf0xaPA4D+mlDHuM6FI+291GW9aD1MY30cA1BqTKHHeDFT3vQJS7wyTyPsvkDKaChLOl3YfTO/Gr1caAkAcktbAKust4wN1TgfxwCUHSPwGC+bt+Xy+Utyq6FXjQ3QCwatr8jV82W+B7DAM84HqizpLE4vZHPrCsE7gCF7eE2u3lyTRvDAZ497BO8Ots9xDED5MAIPAAAAAEAJMAIPAAAAAEAJEMADAAAAAFACBPAAAAAAAJQAATwAAAAAACVAAA8AAAAAQAkQwAMAAAAAUAIE8AAAAAAAlAABPAAAAAAAJfDK7Le/8wfz88javft1efbsqfkNnSZk4ewZeatSl1vnr8mGedWN/a6mNG4uy/LD5+Z1dNfLchhf08fPyeHJqrQaK3L5+gPzaoyZE/LOkSnzy5bGzSVVL80vcVw/54xyH7TawXNycq6aWqaZ69nY2171c+zKfeD9GVxl6Zdc0Z+NgdqsLLx9QPaocqyYl1qNNblx/bZsmt+HjXpWHozAj4VdUtW9QaspL/0X3M0sqBM9/UNVJvfu8l4aJfoA+c67J2Ta/N5v+bbXw3LIadD54qx2SObUwUGrVHZJzfspXq3qvy+sLvUuJ0aun3M3vHLfniZk75Qu46Y0X/ivdMhRz8qoLP3SwI1huQ++P3OkLzS8uyTvnD2UkO/6QpL6exmOU04y9Euuxrw/2xZUGZ4+dUzeUuXonWIblcl5OXl2RNoE9axUCODHQW2X3yG0XhS/iveiKS3vh6bc/2DUrr6ZA+TATkRzbq+X5ZDLoPOlgM0NeeJVsKY06hup+bR55z25cH7J/Lsk9/XnMuyj6+ecDa3ctysbkNblcVKG56hn5VOWfmkIxrDcB96fOWpfaKhMyd7YM3/TbhuPxnQWSIZ+ydVY92fbwYQsHJv3+mE9sn213Z6X5OrNuirT1dFoE9SzUiGAHwO1fVNex9B43IOAe/O2XPY6lvdkdeRarz1ADupENN/2eloOuQw6X4p4LqsX/fq1fCfP7Rmu+9j/vBleuW9TmQJS13pWBmXpl4ZhnMtdG92+fudO/6JSS6qyZ9+EeTXAtNvWy14PT4+Ivl4oG/d6PeZq07LH64T9aenB+rH58NoIlSn1rEwI4MeAd+CUPkzbGjUz+2RS/TewE9Gc2xtaOQw6X4bBdR8HkDfbpv2Nil3+FMSxDQS6KUu/hN4b2b5+VqZ0wlp1bwSvsrPz9jt7IanVHNPAYLv3S0jERX70A4vYjZrahEy/vejdh6IbvEcdFO+vrcpq7IJy4QWKXs4ckv3z8zJpPtxSn11fuSYbMZeEp48vyWF90I3RWr8kl7tcgavNnJCj86pjaie0KY31u3LvTvgKY1StNit7My3kMSuLZw+ofdEnoN30YoGmItuLLhSlyvHggszN+R23pqdO3Yhcfd2i3n88XO46T9Y/uC0bu/QiRlW5f8XOihhkviQtgKXSO6NP0l7IRqheqrS9e0wm1b5e0AugJCzAJK01uXox+8It/uJAEsiDbFw/l517+7Nc25GLmpe+qUDdaap6ptKo61mXjeVLp8mXlqkHur70qD283BezUJRzPetfOjvbrath9ksjXj8L9y95y2+49aX//Zkj7/7eeRF13nBDFlUamx3HHf98o5mQ9jz5EiiDD8RbFEzfV+ydJ6m+dlW1l47XYvLKrV4npzO2X3I1tP7MVbF67SL7eWSA6/l17vzM2mdH+mvTjirqO/3tRUX787DB9Z/D7QfhYwR+hOgDyulTZ7wVINudi1aZkreOnJHTB2OmpdkpdY2mVM8uyckjW8GDVlGfPXzqnCx03JM24X8uQfpVct056W0FD35aVSbnjsnJlEVs9AqXJ5MW8ng3kk49JS3TSavSi3sCC23PTm1Ur+tO+F1VjoHOTKtMHpOjcWVo3x+TJ7rsFvfqDrYpTduZDTpf4swsyOEjx+Tw/HSorGsH1UFL/W+vNMcvwKSSlfP+qvYoYs4O3fVz2bm2P821HTlS/YufvmCZqDpn69lMXP+iOaTTTBn0RqN62h5OyH5voajwIl7O9ayP6exot66G1S+VoH4W6l9cyq9v9SWmn4/R//7MkR19VucNm82m+mlKpma8vxj2fCMm7bnzxdRp2SeL5lzCo/raPW/rc6jwa2+9Pev/3OZYr7vUl7h+ydVQ+jNXPajX+eQ8jzSczq9d8zNPnx3UdRZHoD/3X9gyyP6zDMfNbYAR+FGhGp+9Eha+cjWhgqIFOakah67UHVeldGPQV+y8X5qiH/1276E6iHp/UweqY8f8gCLxil5Y+lVyTX2nHmHV29JXqx+pdNr36UdkqO3pVew7r0LbK4f650g6dYdsr94lXvkz2808slJUzu2ZctAdq6gOtNKqy632yKs+4OgOS/3YUQ42PxW1rVsrW1dKvRECfZKhfxlavsRd8Q2UZWi75nVJSYup5/lGKcw+ZqzDW1w/l4Nz+7PlnrcdubJl5qdx6/GQqn+ZWTD1LK7dO6bTlHMr1B5WVd3W2+1nezCy1rMepLM9cuCSztzMdrN+b+F+adTrZ0TWcnctvx7UF/d6bb6j47uHLzwzIC6dSWl3yJdgn6u+76r6vk1TLp7oa3HpyF2vHdLZS2Zf+tefuRp0vgTOPXQZZj2PtHVByXV+3ZP8NHmUIQ/8dpQyi8PW/Y7tDbj/dM6Xrfoy2OPmeGIEfiSoSq0qrqYbTniRC9U53bkmV9dVQ5HOxWHsvTVehdcLT7Q7M2XzgSyvrPmrymd6JETKVXJj+rhufKqxqo5gWU81C75PbW/VbK9SjaTz4KLf6calU+3jhtrHy1dWvANA7Kb1FU39/6AW78m5PVsO3lXX9Uty4aI9SdbU/n1gyiHCz09Fd3Sqw9r6jL+4yeWbdf+XpHQMOl807+qrOlA0/M57p3m5fVU25eqtf8VX1a+kC8xxzD4mX5VO4Pq5HFzbn2s7KkwdaPUJzxaVXl3Pzl/y0hI9uDu3d3NlP9we7HaLtQfvc13qe9Z6VjSd+mTw8vXkdptpJDiPgfZLo18/o7KWu2v59bNee9LKdQD9mavwzIAHUm+o/yb3bT0aKyHtTvliRim9PteeK9mn5wRfM4LbdK3XWdLpb78/x+F+92euelKvc3A7jyxwft2L/MzRZ3ddr6TbCP2A+s+i/eDAj5tjigB+BNhpx/q+86SrXpuP/ANEdHEY2+DvJwW+my9ydNgp03M8ZqEa0dOC9fNcY/61RyODZmX/nE6nOnCqTj6xYaoDaLBBh5iOa2CLgOTcnl8O5gCRsnZAqOOt6Wduqv/NSUeaxHQMOl+U6bdVGasDRT1SSbzXVV188ihp/+3jr3I+ZscetPIufuT6uRzc2p9rOyriuTS9DmRejh6flVrH1Tx10O3YAfd0brWH9LU0XNqDV6ZJJzCe7PWsaDr1SE6ante9QfRLpamfURnLvUD59bNea6nlOoD+zI1dwG7rvGHjsT4RD0yjj0u7Y77Y4KGxFuhzbbsIvGbft7VNx3rds37JVZ/7M1e9qteZuZ1HFj+/Lpiftu53zXMzgJZSztPe9HL1lo4+YID9p1K64+aYIoAfAX5jSAt8knQfMc/FXiVPuvplVsDNzV6BLPD8V7/j6n5lsFfybc+WQ/L9b3YkLNgxtV8rMGI96HyxJ0E6zeH43ZwcNe6mXOW1F4jyXY339zH/vYWun8vOsf25tqOCNq5fkluNpndv2knvBPacLB5UB3vz9w7O6Qy2h/g+rVh7CH+uU9Z61u909r5dDqJfKk397JCt3N3Lb7j1pf/9maO4EcaHj8QbhN/r338eV29d88WeLwVfi/t+/32B/HKs19nTGS733ulvf+aqV/U6M8fzyOLn18Xy09bNrts3MxiTy9mmJz4/B9V/DrsfxBYC+KELNMq0VhN7Fc80uLQOLcf0nW6dkT1I6dGcC96z4pP/ha7KZb4CmSRjHvVM3u3Zji9p5kL8SUf3A4u5IpqYjkHki7mya/hXs+uyrsrXX6zIMCdHqVfas7yng9nHlLyN5/q5PNzan3M7Kuy5Osi/JxeuqAP9uh5xMIs2eQf6zqnQ7unsd3voEsRkrmfDareuBtMvlaV+dshY7u7lN8z6Moj+zFHs8T1mGn1k/9zyxY6iB1+LaxedswJc63X2dHbpl1z1uT9z1Zt6nYPTeWTGPjPt/LpQfubos7vun01P0gj5YPpP13wZeH3ZBgjgS2FCFub1VTzdZgKV3wQHaR2aP605S6PM3rn3/L7HrkyHUWAEP5+c2+t6kSTvibfVraMcdL6YDja0vapUa6Z+ttbkXsoJjH8C1b1+hdk86H4BKsz1czkUbH+Db0fGpjrQ63sF9cnqlRVptPSBfjFhpXyHdJoTgcG3B1/metavdLZHUtLTmV/O9l6wXypL/bTc+pcYSeU31Ho9gP7Mkc336Im5P43ePz503784Mfli63SoDcS0i5S63/t6naX83A29P3PW33zpnYTz657kZ/Y88Ms5koaAWtf0GP3uP0t33BxfBPBDZ0c4o49d2RJcuCMYINkR8yR6VUdvJchMV4a7Nzo74lqZCj86LKg2M9H5N7PATGVuIXA1PqKWMtXHHowHJef2bDkkXyRJ68TVCU74titDr+RpFohJ6igHnS8zC94qp/c/iOznru6L12ntC0R5OnVzsMh31V1x/VwOru3PuR05m5VFfV+c+S1k84Esr5kT7Ug9dE2nPREZeHswstazoumMLnjk8VayNvfRdjvRymtA/VJZ6mdUvv4lf/kNtV4792cqb8/693fHP4a2uMR89477Op+nvXyJPz7kzJe4Ucq4vIl5X7F6XbxfcjWY/szVAPPF6TyywPl1L/Iz5UJSVLucY5q4tzq9WYivsw8YbP9ZuuPmGCOAHwH+lWqRySPnws9q1JVaP+/SW7ijc6Esv8HpDk0/wzLYgHXnudXgGzevdR+xyXL1y9zXphfK0M9KnQ70GDWb1iNnZH+0o9zckCemEz189oT6XHAf/bS+cyrDs0knD8hCIH/8bap0mN97LuP20jpejz3BiJzAvHzpn1BMHtF54v3oqc0cUidd5jEcSteTtgHly5S+lytm+lZVvV4x0+qT2QtEUzIXKOfazGxo35Pok672+3SdCbaTFK6fy8K5/bm2I0febQ/6vrizfv8Sym61vUUz+tDBMZ3DbQ/Z65lrOm1/bctd92c2P7xnUHvbTzvBKajP/VJp6mdI9nJ3Lb+h9/NK3v7MC6LM/qQFru5MvsedN5jjfmXKv5AUHVl0yRcbPAS/K+trrvW6l+WXX//7M1cDzxfH88hi59fF8rP7RdSoqrz1duBcQvd/Z5f8R8vpp/4o0XY06P6ztMfNMcRz4EeE//x180sH1bl0PALCPPdRBU4N1ejsQTos+kzIFPa5juvpq0oGn6cZJ/yMzYBa8HnZnfQzIW9cT1pZ1D7j0vwaoe9pS31mZW55tmffWw88Jz3Mu3qqO+COdKrO1T5DNUoFyrfqVTncfraueT1kMPkSrJuh7wzWBf0YmS4ri9p8iEpPZ0Ie6ZVv01aidf5cVgXbn2s7cpSU921qe3ol4Y7t5U7nMNuDL1s9K5LO5P7ae7btS3WCmSGd+eVp78X2rzT1MyBbufvyl9+w67VLfxapLyoPe/Ps7wB7XE/47q0yiTuHyZ8vfrmFv8t/LVguKWXlVK970y+5ylavC7Z3J0PIF8fzyKT27ks5vy6Yn3H1NVFi3fQ//3if3l58fibVkbae9Z/F8iV/v4s0jMCPiI3rS3JVP0vUu8JotFQAsK4a3vm4Cu1PU2nVV2X5or/65NZH1c+qQXjPOs0SvCuxV6zjPLxm7qvxrwZa/vaWIs/YDNi87T+LMpRORXX09/WjKBKDd+25rKp9vG+uQFotfZBQ2+zNwSgoz/a6T6NKvmL5QJZVXoa2o8tc5cfVi9fM96nPJWbMoPMl+VaMLFdNN+8se+W/xa/faffN+3m0puqb+VXR+3d/rdsoguvnsirY/lzbkaPNO3pxG7+uBdtfy9a3pO3lTucw24MvWz0rkk7bX6v6pfNTp9HLD92PbUi1bwvxDKpfUspSPwPy9C/5y2/Y9dqlP1P1Zc1/PJYXUEVvfeqFLgtv2cdzxe9f3nyxo4Qxr4XKJaWsnOp1b/olV4Poz9wMIV8czyNdz6+L5WdcfU2h6mZcOdv0tbcX812D6z+L5ctwjpvjixF4KPaqWsYrhQCAGGZUqmczPTBYlB8ADBb9rgtG4CFb978nPZ4CANCN/5hF3ZX2aqYHBonyA4DBot91QwC/rUzIwvHOBUfsPUU0HgBIoe/B9J6rG1n1N7QgUrcFHTE0lB8ADBb9bl8whX47SVvAhakrAJCuyyJK+h4+bkMaYZQfAAwW/W5fEMBvM3rEff/8/Naq2XohifpduXent4sSAcB40o8sWpS5SX8BLw/9aIlQfgAwWPS7vUYADwAAAABACXAPPAAAAAAAJUAAPwL0DAMAAAAAANIQwAMAAAAAUAIE8AAAAAAAlAABPAAAAAAAJUAADwAAAABACRDAAwAAAABQAgTwAAAAAACUwCuz3/7OH8zPI0s/Zu3Zs6fmt/Ez7vvXa9PHz8nhyaq0Gity+foD82pGtVlZePuA7FGfr5iXWo01uXH9tmya3zE6agfPycm5qjRuLsnyQ/MiAAAAsE0xAo9yqR2SORV8a5XKLql5P2WkPnv61DF5KxC8a5XJeTl59oRMm98xOnbu1GXdlOYL/3cAAABgOyOAR7lsbsiTlv6hKY36Ro5R8wlZODbvBe565P7q+SW5YP5dvVlX37UqG/4bMTImpOpdaVEBPNMjAAAAAAJ4lM1zWb2oA+/3ZPnOc/NaBrVp2aODQTPtPhgPbj68lu+7MBjtMnvExRUAAABAIYDHtlDbN+WNvjce57xnHsOzy7/VofWS+fMAAACAxiJ2I8Bt/yZk4ewZeatSl1vnrwVGKCdkemaX+v+FbDwMjirPyuK7x2SysSIXQgu/qfcfX/TuK/dmKyt6Ubf1D27Lxq4T8s6Rqty/8p6sekPWSduM8O41n5dKx7YczOg0TJlfAlprcvVi2sJzan/PHpDJin+/fLIu+5JJD/Klpsrh7XA5SKsu99dWZTVUjkbXPM6Yptzy1JcttZlDsn9+KlAeTfW5uv+5hEJMX8DO7p/a/voluVxoBoX5rpbKyw/EW+RQr5Pg5f/KNVlVdanjtZg011RdPar2sdIuwKY01u/KvTvhGR8AAACAK0bgx83Mghw+ckwOz0+HFnirHVTBrPo/NAKtg8B3z3grurdjDkUv6nb41DlZ3KsD5+D9x8/lcb2p/q9KNXH1OBUMefeaq8CxaPCu1KrxAXir2/3vtV0qkOoWvPdKsXzRgd/pU53lIJUpeevIGTl9cMK8ENB1dHqXf/94qykv/ReKy11fDLV/J4/MRy6mqO+wn5uJ2T8leQE7fXHGD94bN4sG75rJK9kni2aRQ4/K/z1v67IJv/bW27P+z206PUtqH4PBu1aVybljcvLsoXyLLQIAAAAJXq1NTCyZn0fW17/+x/Lb3/6T+W38uO3fV+X1P/m+vLajKU/ubogf46gg8d/8SL2mfvz9M/n4o0/lS/P6n/z4gLz2+zW58Xf2NRV0/Lsfymv6x9aa3Prrn8rPf7kq9+6uSuPzCfnG1G55zQsA67LW/h6RL7/2Ldmv/rbjn+vy66dfmFcDZv5U/vy7VWmtL8sv4/6e05dPP/TS1P6n0rZ/qiqfffwLeZQ2s/rLT+XX7c/9RmoH9kpFj9r//34q7we/r513xTjniwpu/0oFfrrI9OJ6f3PxP5j01aXx6lflzd1V2bH7dXn1yYfy1BaCUntjQf1tR3I+1GZk//dUej77SN7/pBfjv271ZatONlWw/TO5vPwLk+9q/z7/qv+5qc7905/bd0DXb1WPfxkoI30RQafDfN9y3OyEvGxeVarejIarugxMPdOv7Yi8Jq3Hcq+dpypf9MwWnZ719+XGf1bvM/ly78lv5NXX96p82S1f/Xw1vb4CAAAAGTACP068Rb9UINFoiqjAY6d52S4GFhy1nj6ugg79g56CfTE8jVkv6nb5Zt3/pfUiPNL98JE01H+VnXqafpQKZvR0dxXg3ejTonD+iHzOx4rp0Xj9f3RfeskpX8zrip4mHl5c77ls3rkmV9f9kf09+8Kj1F0fr9bj+8ed64ulAvt7oWBb7Z/+3PlLcitmyn3sAnb2tgG133qafk+Cd83klXdbhi2DF03xHnYQfM0I5qmfL3VvH5b1VPngGzcfyOrKmvc9lWr8LAMAAAAgDwL4MTL9tgpuVKBUj8yZ9l5XQc+TRybgUYHQnI7GTHCSpnPRtxfS9CKSzmewt6fpr6Xdm17EhOz1RkDr8jjPBgayGFr+fLGv63u4O+/x9m0+qvsBYOjCgHm8Wko+THvT2dVbmj0IcgvVl+cmX+bl6PFZqXXMJX8efw98pMz0bQbvBIL3uHvQXdnbNELlY7YffM2+bytPZ2VK54tMyeFTS/LOuzH/vDQDAAAAvUEAPzb8YEKPsofjdxNkNO62gx67InvafeTJI902IJuSvcFgTAV5R+fUZxoricFocfa+7nwj6X4wG7iA0Rf588WOoudOlx2dTsyHwPPTe3DNolh9Edm4fkluNZpSmTwmJ71A95wsHlTBvPl7nGCw7C1mZ2Yq5L54k0HcbAZbZ4Kv+e+rS92W48w+f1YCAAAAMCAE8KVlAkbDH82ty/qd57LZ1NOuDRNkBEdGuweOZqRbBzAxwdLGYz1duirV9qBwbxeuSxSzL90FgtkeB35R+fIlY7riZg90nVFgL3T0JtgtWl+8Ufbr78mFKyqQX9czCszibl4gn76AXWV+yVuJXq8PcEvfTlCZl/0z/nt6w46iB9MeVzbmfYFFAdsj9zeX5ML59H/FF9oDAAAACODHhAmggvcL60CypgLI+SkVdKzJvVyj4l1WMDf3B7fv651ZMI/zWu3h48o6pY3yJuvDauxJep4vpvyU4FT44Oh0nJodGe7nPf8hGfN4UwXyd/R97yqovbIijZYO5BdloWMo3gbVVW9Vd+8xcdcfqM/e9dYZmJzv4arudn2EUNsx+xO6/z55HQXubwcAAMCgEMCPAy9QbMr9DyKjvLs6F6/bEhwpDtLP+TYLliUFgJsb8kRFqpUp/ai6rYsE/Vq4zmpPdc4TlQ5iATsrV77YGRRTMpUwolw7uOhdAIhegGnnQ8yFjOB0897e8+9SX2ZlUd/3bn4L2Xwgy2vRGQuGLTO1j/evBEevH8i9Xo/Cx81mMBdAus16sDNd/PKOV5uZ6N3FBgAAAGx7BPBjYErfrxszXbqqXtfTt/W0+qCXL/3AY/LICZkORBe1mUPe87UPe9FYJIAJsfd7V2WvCTL7t3CdZac1T8lcYNp1bWY2tA9R9v7tfNPuXeXLF3/KvS6HyLPQa7OycFwF4vreeR3ErsR9R9V7Hnl719VnvGeRq894TyFQerKAneJaX7zbOvR972f9/QsVk06vmV3QwQbL68sdi9Vt9ngUPm42Q9bX7JMH9AUF/az3UN7YMjxypsdT/gEAALCd8Rz4EeC6f7veWJA9+tnVOlD81U/l7238VJv2nkleqexQf7grP488B/zLp//sPxddBYF7vrcg+w/4/97Un/l9XW59LLJn9+/kf/zn/zfybO4tr+yaljd375bXduttrMjlO/0N30W+kN9/TW9zh+zY/f1AmvfKK58lP2P7mz/4icqjpjy5F33OeH/kypcXG/L5hC7DHVKZ2tqn/d/Tzw7XT4aPX3H9xR+Z55FX9sqbgc9Uduj3/1/y6//lByoNv+vZPrvWF/0M/8arKj/2qDqq9q+d1nZ61ZtUHt1QeRRMZvoz7jel5X3nlHzj1YRn7ucQVz/81+qyvmyfPz8hf/LjA/LajuBr2qY8ss+G37E7nDemDPW9+/8lsn8AAACAK0bgx0JgZeyI+JHnB7J8ZUXum5FaT6spjZuX5OrFa+Y+5vSp6vbxZnrbfV24LmDzzrK3mvkWleb1lZT7+we3gJ2VN182ri/J1ZvqM/6HfLos1H5dPZ/wuLSH12Lzwb7f6VaDVO71ZfOOXrzO/2xoF+3nVR5FP5Z2i4BmR+Ercwsy7b/kKK5+mNdC9/On3OOvysK/nz9YHuqtjTW5paf/x+wfAAAA4OqV2W9/5w/m55G1e/fr8uzZU/Pb+Cnl/tUOyelT8yJ6gTFW2N5CvgAAAADoE0bgkZ++f1kFqZUBLFxXKuQLAAAAgD4igEd3teCicXqEWa86nrS42jZCvgAAAAAYIKbQj4DR3r8JWTh7xn+cWUDj5pIs53q2/LghXwAAAAAMFiPwyKXVqnuLcxGkhpEvAAAAAPqNEfgRMO77BwAAAAAojhF4AAAAAABKgAAeAAAAAIASIIAfAUyfBwAAAAB0QwAPAAAAAEAJEMADAAAAAFACBPAAAAAAAJQAATwAAAAAACVAAA8AAAAAQAkQwAMAAAAAUAIE8AAAAAAAlAABPAAAAAAAJUAADwAAAABACRDAAwAAAABQAgTwAAAAAACUAAE8AAAAAAAlQAAPAAAAAEAJEMADAAAAAFACBPAAAAAAAJQAATwAAAAAACVAAA8AAAAAQAkQwAMAAAAAUAIE8AAAAAAAlAABPAAAAAAAJUAADwAAAABACRDAAwAAAABQAgTwAAAAAACUAAE8AAAAAAAlQAAPAAAAAEAJEMADAAAAAFACBPAAAAAAAJQAATwAAAAAACVAAA8AAAAAQAkQwAMAAAAAUAIE8AAAAAAAlAABPAAAAAAAJUAADwAAAABACRDAAwAAAABQAgTwAAAAAACUAAE8AAAAAAAl8Mrst7/zB/PzyNq9+3V59uyp+W2cTcjC2TPyVqUut85fkw3z6ugpSzq7qx08JyfnqtK4uSTLD82LMyfknSNT5pctofeMkenj5+TwZFVajRW5fP2BeRWlUpuVhbcPyB5VjhXzUquxJjeu35ZN8/t2Q70eP7H9NXqrLMe/HqUzTz8x3vVvfM7rshi748M2O2+FyKu1iYkl8/PI+vrX/1h++9t/Mr+NNt3B/9Vf/ET2H1jI9u+Nr0jjo0/lS+/T35Lv/2ivVFp1WWu/NorKks5uJuRPfnxAXtvRlCf3PpSnZkdqbyzIm7t3+L+01WV9eUNemN/GRu2Q/Nm/mhK9tzukFaiL21PX9htqr2G1mUPy43/zEzn6I/P5N6al9i/P5NGLL8w7+kSV4elTP5Q9lR1eOVo7KrvlzTcm5POPyltv/fL4lnx+N+c+UK/HUHx/je7ytKOyHP96ks6c/cQ3f/AT1c+Wp/7l6z/H5bwugzE8Pmyr81Z4mEI/bK0XWyNktV3+6FnwtVFUlnR2tUuqekfUAetxYEc277wnF84vmX+X5H5Lvdhqykv/z+Nlc0Oe6P2TpjTqG9t2tNbaubNqfkqQUOf1idLJI/MyWQl8Xv08eeSMvHP2kNTMS703IQvH5r32qEcSrrbr7ZJcvVlXZbpa4pGUCdk7pfLTpe1Rr8dQfH+NbvK1o7Ic/3qSzlz9xIRf/9R7m6Wofzn7z7E5r8tgDI8P2+q8FR6m0A+Ad3KfYdpV1vcNW1nS2ZU3cqmCHxX4XEicQjUri+8ek8nU92DsmelprfVLcvnOc/OiYeuRPhm4uazahPm7ntZ+7Ji8pc+K+lV/MtXhsqLtIWCs63o/FWlHZWmDA0hn6epfvjwZm/M6KBw7twNG4AfAH9VrSrPLPJas7xu2sqSzq13+/cKtlyk7MrNPJtV/jcd0gttZrarrvL6gHQneldq+Kb8erQeCd23zgaxeXJJb62ty64P+1B+77bGsn7Q9BGXpr9GpSDsqSxscRDrLVv9y5snYnNeBY+c2wQh835krYdJtYZDoAiITMn1wQebm/BN0TU+RvXH9QeJ0n9rMCTk6r95vP6BHBNfvyr07yZ/Jr2g61fuPL8pcZLGt9Q9uy8YuPcpZlftX3pPV9ofN9lr2SmLvtvdyX/crzv5VaYmkKZ1LOXRsp6bqzbEDW1OyWyq/V1R+Z0xDooSFTqS1Jlcvdl/wTN/nvV/t29ZU8abKz7pffkXTFitvfemP6eNLcngyvg0PduRC1YuzgXqRKJLWrqNHSQsYFW1/atOqLu/NtMBe1n3TIuksWK+lpvbr7XA9023u/tqqrAYvyrQVz5d8+tcPdrajwLY+EG9xxLfU57z8UH3QqiqnjtdiNup2PEpOZ5b+2kW+dCa1E8PWw8R6l6ccwgbSjiKyHf+65InVxxHsbOlUCvQT6f28zQP1VXGztJT+n58VKfdoGebvzwZz/unLfR5SoNx9edttoA/te3/dKXN7cNKD9p73eOt8/jLeGIHvN3tfUeNRl0pl7+9ryktdWd89I4cDjV2rTB6TowcnzG9BuuNekpOqg9rqPLWqTM4dk5M9vQe3QDrt+4ONVqlMzsvhU+dkca/uYCP3l9WmZY96s3fVu6fbOyH79f1h6kBWTzkZbF+VztQJupdDcDu6833n1LHwgVh/Xw86YjuSHNXKch+YOgh23Oet9q1dfjNxdbMAl/rSF7MypS9nJ9xPttlsev9PzvfzXndD9yeZTtAiuo4eBdq1/4KvSPvzTkLUiYSqyzrYi5bhyXfPyUIww/LsWySdReq1PvE8faqznkllSt46ckZOx/YtRfLFQd/6wbh2ZOqC7JNFU3YelR973tZ5FX7trbdn/Z/bHPvB1HRm66/zcUnnc1ldq6v/p2Qumtc6/TpI0Bdb44KC3OVgDa4dRWU7/j2Xx3XdB1almtgBqhNsb60OlTexJ+DFZD1OF+knkkeodT3yg/fGzbjgfUDnZ4XKvSznn4rDeUih854u/dJgz1uznffkO2/Nq1h7dzreup6/jDlG4PvNXPlLuirbphvtqXmvAurFr/RKoFsjrvoAriu8+rHjCpTqPL0RfnO189ED2bSNNnAPbs9GLQqnU2mtqc9sXSn1rtzqzl//Er0iavMvtL1V9Vmdl33YXoj5jsSrfkFFysFcPRSVlrWqdyD0rs5+YL9D7eeMyEbsSGBBJn+71w97hVPtX/A+b/V6bWbB5Gezh1d8e1F+PWLqfPerv+rHtKvIPWfyKEMepI8eKUn76Nz+Anmi24SqM/dUnvhpVJ+zoxGJac++b7Gy1mvzPi08IqLqtUrjSZVGnf6Oeu2cL46ct+fQjmxd0D+r77uq8ySQTx2vhbbp2g8Our27plOzdVuVQXu0x35f8LUg1/0bZjsyn81Sh01dSDzP6fb3QnKkM8qkK/vxL1K+7bYSPS5attxd6lkROcu98HndoPbPlkM0v3Oeh2Qud7t/KmvsCLj53tR2a+v7yJ+3OrL7l7e9m9e1PMdb5/OXMccIfJ+l3TsbZO9l9a6gqkp/4aLtPLXnsvHBmniLZkZMH9eNXXUOqsIv66lKwRat78Fd8T9XqcZdOc2vWDoV3cBUx7P1GZXMh9fk8k09qqFEVkC1+Rfens3LYtvzPpe24qqZPZF81W9LsXKwI15TqoPWnZTq9HTH1v4OtZ99Cgj9/I0bVUigDkT6BHKLOpnU+Xn+krfvvZqu5Vpf+qLr1d/nsnpR7X9DH6z9q8jvnD0h0z0ddohh6meWPEgePTIS9tG1/dUOLvpBhz7ROK/aRDvo0NTn7qgyvLLinaDEpj3HvsXJVq/ViY45mdAnBl6b837TVHpVGq+uqzKVquzZF263rvniqp/9oCeYz6YueGVn8+RF0/SXgdeMYJ1x7Qd70l/nUKy/jo7C66BCf58+8VTl4r0nzLU/G2o7ynH8k4ePpKH+q+zc5f8eYtqZ2ocbPQ/elTzpjMh8/DMjqqGZlIHgXQccncF70XpWQM5yL8v5Z1vB85Cs5W7brQ42L19PbrfRkfyB9tdRBdpDZk7t3f1463r+Mu4I4Pusa8Uz/PeZip1ykAtXUDO1V51IHD61JO+8G/PPjqT0iFM61YFuzusF/ZO/NNFFN7a2l37l3mV7XRu87RS6XHwpXA72YKs6+9bN+BOB/rCPmcnyWKbn0vSOxPNy9Pis1DqCU3VQ6vodGRWoL/0w7U1Z61YP1P5ff08uqJPphpdPui7o6Xz+X/si80HLPP4opZyT9tGp/an2sH9Of06d2KmTkMRqoU7wEuuM2Te38s1Wr2sHD/gnZ+oEK2kUZvORHzhGT1Tc8sVdP/tBLZjP9uSzsRYoO1segdfs+7bqjGM/2Kv+OrMeHDcfrnqPaarMLcjCcX9EMHHUz7k/G3I7ynz8016Y48OujunStp2F6lMv5UpnUI7jn92GqX96NNSvI2mjvYM/P2vLWe5O53VD2b9enIdkLPdAu9UjxWl6ctzs1XmPc3vII397dz/eup+/jDsC+L6yHZwK4FM7Fft80eT7+9orXQcrqFlpcnDc0tl+LeV+o/grosHtxTfMYtuL5GeE3ylkuOeyaDnYDjelY+sPe99Qtqv0G9f9UWZ979ZJ74CtAtSD6iBq/t4r7vWlH7rX+RB1Mr180X8Ge0vfA3gkcn9qD/n1sylPHiXXYY8dPUosZ7uPvWl/7QtSXdf9SGb3za18s9Vr/yQrQ/51cMwXZ/3uB8P5bPMl+FpcefjvC7QLx34wezp7lJ89OW5ujcK/pb6scTN51M+1HIbdjjIf/zw2sJqSvcH+TgUlR/VFiMZK345t+dIZlP34F6x/3nReM5KoCjU5CBz4+dmWfOXe/RgX258Naf+Kn4dkK3fndjvg/jrKvT3kkb+9Ox9vnc9fxh8BfD9lPgDbDiV5AYa4kyp7UNFXTS+cT/+XdhUwO7d0dm+45oqo/lyohfZ7e2mdnOkUUrZtFS0He7DNH0gUZA7A2Udn7CizOoCumwBVL1LjHUB7N0XOvb70Q/c6GEdPd7uRMB2sNwIHrW55EBk96mT3MXoy6tb+um+vmxz7FidTvc64jdh9ccwXZ/3uB4N5EHfROS6vzPsCaXLtB7Onszcnpb05bk7IwrwJ4rpwKwdlqO3IfDZHv7fxWF/QqEq1PXim8qiPC9f58qezLcfxz5ZhZX7JuxdXT6m+pfv3yrzsT5hlNfjzMytvubv1L8Pbv4LnIRnL3bndDrS/jirQHnLK194z1sm4Ps/5/GX8EcD3U9YDsA30s1xhinlDz+8vSlIwnckSOjx7hXdQ2wux70m/ShvkVg6u+1CcfwBW2+1SPTtsqgOovvdSH5y9KeP6ALrYt5HmTlnKr0e61sFkdnX6+PvEisqeB/ZEK2n0spa0j31rf92YfXMceXSu1x22grTYkadB5csg+8HYi84x5ZFyLOj98ag/7b1IOvUiVN60+Zuq/1O/F3sCRX/2r1g7smlKqnMxzDoJ7XydWfDu32+trzq142wc0mlk7yfsRS11PuftzyXv/t2NO3czlf3Azs/acpZ7Wc4/oxzPQ3p2fGiPDEfa7SD76w7u7SG3nrf3+OOt8/nLNkAA39Ws94gMfT9P7OMNUnSreJadOpN8RTC+4bYDhKnpxANIbWaiZ1OcXdPpC16pC9IrcpqFOyIN0ObfoLYXYjqFLKMfxcohS6fcH+2rwF17PdUG9P1m5rcQPWXcm0qalN+uCpZfZvr7TiQc9LcOKJ11UP1N9wspj8hpt3/nEbQUXU+6tsRd7beC00Gj6XRuf/bAPrcg0/4rnWopUx7tvjnKVq/NFECZkqmkEbTAAmL3AiO/xfql/AbaD8ZddI7rC2PeV6wfHFR7L37cnD6+5K0g7U2bf/hA7nUZifU57N8w21GO41/b5oY8UQn289X0nfr+4Z6Ovka4pNPIfPxr56O+3z04mpxe9oM+P2vLWe5lOf/s1XlI9vMeLWEGnbfCvrm/P9Juy3LeWliu9u5+vHU9f9kOCOC78BqN10rTO6o4aRUvqOv7bKOM3htjVoLUBxD9rM3gqtc13cHoZ8ceOdPlxCI713S+fOl39JNHwitz12YOec9P9R6noUQb4KC3F0eXefs7aqoTVQekDkXKIUcg1lv2KnD4eca1mdlQ+jVv8RF9v9lZvShb5ICs9m/RBLm90svy66o2LXOTU/LWqXOyECxbXW7e42rUz5EDim9rMZ2T3orzwXqhD7aqzL0FqNKmxLnrftIVVfWe193OTl1u+tm9Ko0NvXq+Er3Q6NwvmQO7t7hRNG90G1J5886pDM9InzwQKhO/Lan2ZX6Pl71e+1MAdT3z63WbbbOm/O5HVvh2zhdHg+wH2xeduoyAxL3m2g8OtL1rBfprfcKo0xNcr2Szy0is8/4NtR35Mh3/2myfWJW95mS8bwvXReRLp5a9n2hfrFpf7ljnILXsB3x+1iFjuTv3ZwPev96ch+Q/PlTm9LPJ9d/VNs1+nVbtzjs3UKLH4NKctxaWr727Hm99+c9ftgOeA59Kj7KZk3hNP9oh871cqoJ5z3OsJzwX1rLbSH6fd5VJV9SbMc9ADDxXMU74WYtFFEmnzYsYLfV99aocnpPIaq6D3l5UwneoYC72+Zuu5ZD0vMwBsPkXFVfPkt7bpvZPr5xavJ5pvSi/7PSKwu1FiTok1z9Nn0QfnkzKF/2sWv1UAfNrD/mjgGkrIAck1k3/84/36bLtZftTaoFnicfQz9S9cT3pYB/pdyNitxeQp17b0dR4cflbMF9yG2w/GFev/NeC209Jk1M/ONj27nFIZ7ufUH+LngfYMojvxwvs39DaUc7jnxFqezH51Htu6dSy9hPd2nNq2Tu1h6LylHvB/mzA+5dUZm1qe93OQ7KWu5Z0fPCeCf9yKqbdDra/7uTeHlyE8jJDe89/vFUS61ja+cv2wAh8Kn+lWe8iuG5AH+Q4GNmR1a73IXWfbpl6Re/hNXP/j38VytIdzC093atnnWeRdD6QZZXG++ZKmUd9j37ExtWL18z3qc+FEjro7UXp71jzHwlmtFQduL+WMKrmWA6xI1kDsnln2X92eZvKo/WVmNFm/V7/EWk6TwNZovLE5GsPD9K9Kb/s9IJzftmZFzxqP/XJQMJB2NKL6Vy9qetJOB/9cu9P8K5PEvxRhIx5oPYvrpz1c6X1Aa/djkLfVbBf2rztP5M3Ul90P3pfP1onMejQ/Ofqh8pf0e1Pt6VueZqnXm9cN08MCFXqcP6EFcyX3AbZD8bVK/NaaPspaXLqBwfb3j0509kO3vWJsPpblB2JjZ/uXmD/htaOch7/DPsYKO/CZ0w+9Z5bOrWs/US39pxa9o7nBcXkKfeC/dmA968X5yH5jw+qfunt6W14+6Xb3YZUe7iAna8X/aB7e3CRt73nP94qTucv2wMj8AAAACjGzBiQIcwoAwbHjHT3aWS7NGjvQ8UIPAAAANzp+1L1dH8V1PR14TpgyLz78dX/vVrnpJRo70NHAA8AAIDsasFFwPRInL73tinxi1ABJaJHlr3nykdWvQ8tuFaX9e0UuNLeRw5T6AEAAJBR/EJpSQu9AaXSZfFIfc/19lo0jfY+ihiBBwAAgJNsC+MBJZG4eGSXBde2Cdr7aGAEHgAAAACAEmAEHgAAAACAEiCABwAAAACgBAjgAQAAAAAoAQJ4AAAAAABKgAAeAAAAAIASIIAHAAAAAKAECOABAAAAACgBAngAAAAAAErgldlvf+cP5ueRtXv36/Ls2VPzGzCqJmTh7Bl5q1KXW+evyYZ5tYxqB8/JybmqNG4uyfJD8+LMCXnnyJT5ZUvoPQAAAAD6hhF4FKIDvXfePSHT5vd+G/T28tkl1Yr6r9WUl/4LJTUhe6eq6v+mNF/4r2i1qn4tqi71EQ3eazOHZPGsri9L/j/18+LMhPkrAAAAUD4E8CjABHoDC1gHvb2cartEx+/SeiGb3gtlZS9E1OVxYEc277wnF84vmX+X5H5LvTiiZeHNIDgyL5OVwEUH9fPkkTMqkD8kNfMSAAAAUCYE8CjABnqDClgHvb18avumvAC+8fiB/0JZZboQMcJlUTskR+f8GQSNm5e2LjpcWfEvOlTm5eTxWe+tAAAAQJkQwMPdzD6ZVP8NLGAd9PZy2rnTDxqD085LaVfVC+BbL1N2ZITLwl5Iaa0vy/LD5/6L2uYDWb24JLfW1+TWByW/yGLVDslp7xaBc7LAtAIAAICxxyJ2Q5e08NmETM/sUv+/kI1gECKzsvjuMZlsrMiF68EgRL3/+KLMTfrBl9ZqrMn6B7dlY5defKwq96+8J6vt4VKz3Zb9HvX5gwsyN+cHP1pLbeOG+tvWCKva9tkD4WnJiXqxkFsPtldT+/V2OF/01PD7a6uyGsrXoqLlmCU/gwZRfkHJ23u5L2YBuwh/kTuJpCldbeaEHJ1X6WsXRFMa63fl3p2kNLqJXYAvB9d0Dmr/tpi+wPzWWr8kl+/0sk4DAABg1DACP6pmFuTwkWNyeH46dL9u7aAKaNX/oZFPbxTujBwOBqlKZXJeDp86J4t79crhTWkGo4jatOxRb/ZGWe3nA8GfVpk8JkcPBhb90lOrMwXTSi/ujS64PR1QnT7VmS9SmZK3jpyR08F9KyywgF3W/LQGVX5W6vZOyH5vAbv0xenasw0yRab6QsySnDwSDG61qkzOHZOTPb4nfbPZ9P6fnM/7va7pHOz+tdlbHQAAALBtMAI/dHEj8PY19WNrTa5evG1G8MzrEnwtMAqn3ntr5bZsmKDKGxHUQYX+JfQ9ivqbfiRYSwWcenGvSkttf2VVfVaP4OnRWR3gqR87Rvots93o9/ZNzu2Z/dPCI9ETUju4ICdVsKsD0DwjyKl0UHxqXm0smJ+qPL3vTsvPQZef4/ZCzHck1o0guz0zGv1IlYP90tqsLBw75tXz3j6KLth+ss62cE3nMPZvy/Txc96FmPTZFgAAABgXjMCPIm90VQUEDT8422lebo+61jfaJ+rTx00wpoMpFXDZYEzbfHhNLt+s+79EFhuzjwTzRrjXL6nP6mDTBjnPZeODNdHrfSUa9IrrubangioTvOvA6XIosHkum3euydV1PUpblT37ejMKb++7Duen/7e0/Bx0+WXZnve5tHw2ZZF6j7zhb68ut668J8t6KnnwS/U96St+OivVXs6GeC6rFy/JLa/9+LMt3jl7QqZThsFd0zmc/duycd1/MkC4jgMAAGBcEcCPoOm3570R1XpkTrj3ujTlySMTqNUOyZyOxvRoaZeR0OhiY/4UaB3gpt83mxikmYXOBraIWY7t2dsM9D3BSaOem4/8QLWyU68zUNxWfqpgKmt+Drr8Mm6va3BuF7lrJm/XNytT3tWCKTl8yjyLPfrvlK7T/fDcD26vrEjDK2idBv0ceP+vYa7pHOb+AQAAYDsigB85flCgR9nD8bsJFhp321O+26ttB0bko/yR2ujK6BP+/drefc7xQVj7uxOCtGl7X3ZKnNdLebZn789uX+jou2B+ei90iMvPQZdf9u0ll7vml0X6PfIes1L9UG0+kOWLS3LVm1mgnwMfs1q7azpHYf8AAACwrRDAD91zaeoRQsMfPa7L+p3n7cW4PDGP7eoeqE7IXm9BsuhiY4EF1/wXOtjvjg+YbQAZ/d5+ybO9jO/N8qi0zNzyc9Dll317acG5yd+UbVv2YoCeldB+FnvCv36vnq5vD7iRcNuEazpHaf8AAACwPRDAjxQTQDUeBR6HVpVqbUIW5qdU0LQm93IthJUQ6NmRw8T7nLsFweZ7Q+nsp15vz+Sn0n0aeAZd7893veDRr/JL0v3CwNZ7Uu6Rj+jX/d952QtiSbdNuKZzVPYPAAAA448AfpTMLMhblabc/yByf/KuzsXrtqgAPzYe0SuRmwXLIsFWe+Qw8X7yLoHcoB9flWt7dkbDlEzF3u+svu7golmhPO8FkXh2arpbfg66/PJvL8RcPMgyc6EdME+FH4UYVJuZ6NEj1vTK80vyTsoj22y+RdPums7B7l/UrPfoOn2ffW8fhwgAAIBRRgA/Qqb0vcWtujyORE9V9XrFTKsPevnSDyAmj4RX2K7NHFIn9+YxYko0YEmfHq/YIC3lXmnP5AFZUAGKVdOPzTp+SKbN7z2XcXsbj/2V2/X9zouB93uP9Tp+Tk7O+ft/f6U3j79zzc9Bl5/r9uLooLX9HTUV/Afz2Xr4SBr6/8q89yz00DZtWRw5I/sTLrTkYy7ceNvS+xdMj744sVXuHbcQuKZzoPsX5l1sMVe10i4gAAAAYLzwHPgRMH18qR086ftp2yunB55l3vk8b80+gzqGfi54vSqH5yTyrHP7jGz19/Zz58NqB/1gJ5SWkMBztmMkf85V/u0F87RTD5//Xig/B11+LtuLSvgOvbJ93HPjg3U4Rq+fX26fix6vqfLkvfi66ZrOAe+fL9IeYvsGAAAAjCNG4EdK8uJh8dOlH8jylRW5r593bbV0kHJJBVPXzPTp6H3Q3e9z7jrCa56zHdqu0tJB4JVeB+9a/u1tXDcrjwcWCPTyZn1Frp7vVfCuFcnPQZefy/ai9Hes+Y9mM3Q53F9LmK3x8Jp5lFuk7BprXtn1+vnl+tFxV2/q9AW31zTbSwjeNdd0Dnj/fKo9rNnn9as2EL3lBgAAAGOLEXgAAAAAAEqAEXgAAAAAAEqAAB4AAAAAgBIggAcAAAAAoAQI4AEAAAAAKAECeAAAAAAASoAAHgAAAACAEiCAHwH6MXkAAAAAAKQhgAcAAAAAoAQI4AEAAAAAKAECeAAAAAAASoAAHgAAAACAEiCABwAAAACgBAjgAQADV5s5JKfPnpBp8zsAAAC6e2X229/5g/l5ZOnHrD179tT8Nn7Gff9S1WZl4e0DsmeyKhXzUquxJjeu35ZN8/t2M338nBxW+dFqrMjl6w/Mq+i7mRPyzpEp88uWxs0lWX5ofslgEOVXO3hOTs5Vc6etX/Kmx75fWmtya+W2bHQ09gmVj4sy93JZLt95bl5zMSEL6nveUuWxpS63zl+TDfObNn18SZWZ+UVpqXStX1TpMr8DAACMCkbgMTy1Q3L61DHv5NoG71plcl5OlnxkTgco77zrsA8qT+ZMsFGp7JKa9xPcqUDw4Ak5fXZJlYf/7/TxQzIdk7G1ajDIs+pSzxMgD6j8du7U22hK84X/+3BNyN6p7OnRwbIO3vUFjqs6SI69UqeDdtUvzJ2RxRn/lfxU8H72TCR4V1pNeWl+9E1INdgBKZXKvBw+Pmt+AwAAGB2v1iYmlszPI+vrX/9j+e1v/8n8Nn7Gff/iqZPrvzwme3boEfcV+ZuL/0Hev7sq99S/xucT8tXfrcrq0y/Me8tmQv7kxwfktd/XZe2jT+VL82omX/5OvvbG9+W1HU1pfLwqf1/aPBi+2swJ+Yt/+yP57u6q7FD1zNpR2S17vjchn9/dkGC8+eXTD7365/+ry6u6HPKW4UDKb0L2HdDbeCYf/zK8D8PxLfn+j/ZKpfUP8l9W0/PKjnS31i/J5b/7x9T3vvjEL4PvfLezrDKZ+VP58++q4L1Vl1t//Z78/JembDvK8wt5+pEtd/XvyVdk3/d2y47WY7n3yXadBwQAAEYVI/AYjtq07NGjXmaacfA0efPhNVkuNG122Hb5I3qtFw63ATyX1YtLcuH8eyXPg+HypmgfmfJmdngjvVd0nup/l+TWelO9OtVlhNW1DAdQfu2282g0pnjXdvkzaLrklS6TdvCeKW9UXq7V1f9TMndwwn8pB39GRVPur1xLGOVPsLkhT1oqnS9HYnoDAABACAE8hqK2zw+uGo/H8B7vmX2ib6cdy30rg9ohOarvr1bBm74n27tA1A7gnsvGnffk6s01uZp2f/ool+Eu/5aTkQkws6THlklrTW7kubDxcFXuq2C6MjWd83YEM62/VZfHea+ieRdImvLkERfQAADA6GERuxGwPRaxm5XFswdksqIDqzSRBaa8++TnpdJYkQuxAZe5z7USXZjKvN6yn9P3Qi/I3Jx/4UDTI7M3IqP/QbXarOzNtMBe1n3TIulMWDhNBzr6/uCusUdN7dfbi9591zaNOmi5v7Yqqw/jApDi+eJkYOm09UEF3wUWePMXWRO5f+U9WU3LiKLlp2SvZz4/bUkLxm3tf9JIt7614Oi8ysd2QTSlsX5X7t1JK3OV/3pRuUga1z+4LS/3dV/Azp863+yenzEyl0VItP7koMt0vpm5/AAAAAaJEXgMhp5mmynAjeg6umenOkcWpjLTjL3P6YsA756Rw4HgT6tMHpOjsVNzdbCigoakBfbePScLweHAPPsWSWf8wmnqbfWNrsGDDsROn1L7FUmjVKbkrSNn5HTcvhXKFzcDTefMghe86gD6nmPwrrUXietSCEXKL3c9M5IXsNMXkuzFi7jgXf99yb+1ILgxqcrk3DE5efZQ/Ci3zf+YNB4+dUL2ewvYpSz2pz4/501nuJs7eNc2m/qWh6pUd/m/Z+P3C6mzAhJM753KWH4AAACDxwj8CNh+j5FTgcS7x2Qywyhl+mijooOLuBF6MzLaUgGzqOC6oheyWlmVjU0d1OjASQck6seOkf2tEUx/CvayCgSfmzQGRoET055932KZdHcdPTbv08Ij0RMqzxZUnum/xYx4OueLowGn0y6SVmT0vV2GLnmQtfzUPrjVM/u5yEwO2w7Mdy13zGow+6T/rkfbH6lysF+qH+V47JgJ/KPptp9TVFqCj3zzRvLVvnq7kFLf3UbQA8y+SeZ755XM5RDl768Uqj8AAAD9wwg8Bi/jolda18dlJYzQ25FRb2RcnfhfuKgXsrIn/89l44M1aZnfgmoHF/2gSgckeiGydlCl6funr8nlKyteIBOb9hz7FscuvJW4vx4VZJigWAco4UUAVXpVGq96C7VVZc++8Ai1a764GXQ6Z2XKizRzPvotypShy+httvJT73OtZ3EL2AWCdx0kdwbv+sKGDsJV0K//rqfKB79084Gsrvj5WamGy8H/nKIvZqgAPbgYnF5s8vLNul8OifW9wL3oTiakNqPyw6t3DvXAlP3k/InYRw0CAAAMGwE8Bi/zIlzm+cwpJ/96uqvWaoaDFj/w14Fj+qhdOA2zst9b/EwFOmmj5yrgSVzV2uyb2+Jn2YKd2sEDXlCl73FOGiXcfOQHVpWd4XnHbvniZmjpjN5OkZetn5E61V3WYLVAPYu0HT0K/k4geI8f4bYXNqbk8Kmt5+GH/nnfEWGnvuuLDCkzEYLp6VTkiQw56IsY3r6ckZNH7EyEwAyFrDZvyw19UaKylVext3gAAAAMCQE8Bs4PujOs8mxHG1NG97zgoGPE076uR+Dit2FXwQ8FaXb0vMDjuey+dRuBjZct2LGzEvKvku2YL44Gnk5bfgX5Zegyip8xWC1Qz+zMBL3f3tR0M8Mh9aKBWVE/r3Yep9wPHkxPrAKzGXIxFzasVuNu4kWjdLOyXy/wZ37TetEWAAAAeoUAHgMWCLpToxyl60i9DZiiwYt9PXkk1gaXoUC76/a6ybFvcTI9uizjNmL3xTFfnJQlnVEm3S6j+FkfPVegntn9rswveWtD6HUFvOfaV+Zl/4z/nigbZOvbGPxn4Sf/C8526H4Bxsw4yHCxo1AQbPMr7TseXvP34colud9Q2TF5TBYT8iONd8uA2lhrfUWuXvHzhHvhAQDAKCGAx4B1D86sbqN7NTuyGB3xTHq9rWCgncjsm+MIftb7p7ubkIX5mFsLhpYvSXqczs0X/v3Ylars9F5wYetnl1H0GL0rvyR2KrwKaFUavcfEXX8gG3fuiopZZXI+YRV5I3p/e3EZ2rIJvovINSNi87mseusjuJSDn7/+4/ci6wQAAACMCAJ4DJadPpwhQEobZQ1OH46OZLZHHBNHQhMCjxdN/37suQWZ9l/pVJtNDpIKTuFu729qxjyXphelTslU0ohrYIG04KPUnPPFyTDS+UDqOpJV25xLvG95IjXItRcPioyOd7344VrP2vVL3+8eHC1/IPdSRuH9x7CpP09NJ+57bSYpX5Ie36afBGBXp09py3ZfnS8emIsWuetkhnKIstP9i8wWAAAA6DMCeAyUva+26zTjtqq89XYgmFGBjfcsa/1ouYYfmERPuNMCf48N0qL39m5uyBMTdB4+q1ehDgQd6mf9zO53TmV4RvrkAVlQAZFV04/pOn4oOVjz2FHlcPBZm5ntWA1743Hd+3/yyDlZDGzHexyYfq64t0CaCvIiK5g754ujYaTTrk5fmTsjp4+Hg2DvefR6kbOk550H6GC3ne+67IPpj5W9/JzrmZ1Kvr7csVjdZtoo/MNH3t90gK/3PZgev27qi2FnOoL/ly/99jV5JLwiu17lXT9v3nuMn+JysSMzU9aNtZTF/iK8PsblIpSXvyn1DgAAYATwHPgRsJ2eA+8/pzttxewA8yznTv7nH+/TQWD0+dIJz8kO8J9LnfBs+fYjueK1Gmty43pSMBF8tnenbs+ktumKivucfd55vLj8LZgvjoaRzqR89HWre4HnngfpldjTVoxX8pSfSz3Lut/+FPDIKHJiW/KFn9FvJeSF1lLlU6/K4a7PdzflKd3zr5PZfoa83+Jvb089/ekFcfz8aybWOwAAgFHACDwGKOc91g+vyS0zyu5rSkMvLnXeDxjipyx3nwaeOsK7eVsun7/kbdcbJLVUwHJfP9IsMXjXnsvqRb2IVjDN6qM62LnSPSjevLMcu7/B6eXWxvUluaofdxVMpNrnYP6EFcwXR8NI5+ad9+TClRVpqO/YospTBanx2wx6IMtX1tRnza+KLr/7a91nJeQpP5d61n2//VH42Kn5epG3jjxRm2useXUz/Ix+S+fFSrg+67JT6bt68Zopn2j7izK3UlSmZG/H1IB09jGEeUbf/frj8uQDk78p9Q4AAGAUMAI/ArbTCDyAbcbONmisyIWU58mH2BkDeT6jeZ8Th1F0M9qfd3sAAAADxgg8AKB/Nm/LuneD/gFZyDAKr9cq8IJ3PXU+ZzDtL4A4JVPd1qkI0usAnPVvFejr/fwAAAA9wAj8CGAEHsBYa9/zn7y2gdZeRyDXfe8Bsff6d24zfm2G9LQBAACMAkbgAQD9pe/599ZCaKoo3bwWohef858u4a1V4BK8aw9XI+sQZOOvBUDwDgAARh8j8COAEXgA213t4AnZ31yV5Yc8hx0AACAJI/AAgKHbvHON4B0AAKALAngAAAAAAEqAAB4AAAAAgBIggAcAAAAAoAQI4AEAAAAAKAECeAAAAAAASoAAHgAAAACAEiCABwAAAACgBAjgAWCM1GYOyemzJ2Ta/A4AAIDx8crst7/zB/PzyNq9+3V59uyp+W38jPv+oZsJWTh7Rt6q1OXW+WuyYV7tauaEvHNkyvyypXFzSZYfml9GQY/SOX38nByerEqrsSKXrz8wr/ZW7eA5OTlXHZk8zJse+35prcmtlduysWn+0Dah8nFR5l4uy+U7z81rLlSdVd/zliqPLZ31d/r4kioz84vSUulav6jSZX4HAABAPozAY2zpYOadd5ci/87J6eOHZLpm3jQSdkm1ov5rNeWl/0ImtWoweLLqUh9I4KkCwYMn5PTZrbxNyteepLN2SOZMsFip7JJ+Fd/OnXobTWm+8H8frgnZO5U9PTpY1sG7vsBxVQfJHcG7poP2qlTmzsjijP9KfuaCUyh4Vzrq74RfrwMqlXk5fHzW/AYAAIC8Xq1NTCyZn0fW17/+x/Lb3/6T+W38jPv+Dcs3f/AT2RMJIER2yI7KbtnzvQXZ92pdfv30C/P6ENVmZP/3dsuOzz6S9z+Jjbpiffn0Q7l3d9X8q8urb3xfXvt9XdY++lS+NO/ph9rMCfmLf/sj+e7uquzYYV5U/HydkM/vbkgw3uxJOr/8nXxNf25HUxofr8rf96XcJmTfAb2NZ/LxL8P7MBzfku//aK9UWv8g/2U1Pa/sSHdr/ZJc/rt/TH3vi0/8MvjOdzvLKpOZP5U//64K3lt1ufXX78nPf2nKtqM8v5CnH9lyV/+efEX26Xreeiz3ctRzAAAAbGEEHmPKjv415f6VJblw3vy7ckluNZreO/Qo5OmDE97Pw1TbNyU6qY3HRaaF21H8F9LP0Mibon3ET6830tvOW5Wv6zpfp7qMsLqm87msXtTbeU+WC039TlGb9i/4NB6NxhTv2i4vn7vllS6TdvCeKW9UXq7V1f9TMudQ//0ZFapdrVxLGOVPsLkhT1oqnS9HYnoDAABAKRHAY0zZQLEuj4NBxuZz2bj+nlz1gk0dxC8MfbGvnkzbntkn+lbjYhcBuqgdkqP6/mqVVn1Ptr4PfbOdtypf76h8vbkmV9PuTx9EOl3tqvoXJkYlwMySHlsmrTW5kefCxsNVua+C6crUdM7bEcy0/mi7ysK7QNKUJ4/6dAEGAABgG2AK/QjYVlPoaxMy/a//T/mzP/uJ/PDAguzX/96YkFf/pSlPX8RNi9b32/5/5c+/9Rsz7Vbfe/2n8md/sdj+/L6J38hn6m+h6btdpqV/+fSZP5V7h4pFnnwoT6NzjvOmUwVSp//dX8oPVVripweb/fhRdNpyeNr2KzOH5Mf/5i/l6I/Mvqlt/sv/VO9PmxOt1N5YkDd3/06e3IvZlwTeVPh/o/LRbGv/ARXMvfrP0noayUuPSv9fHpM9Kr8aN/+vxAXVvnyRPtU7czr1wnf/dtGkK/Dvja9II+PU+1ptVv7kX//v8sNAGe6b+IqqK/Gf99O2Qz77+BfyqCNmtuWXfOtFvvy09KJy4Xqm0/gvzU/llW+kpcc3/a//Ur6rguL7f31NPsmSKW1fyO+/Ni1v7qnKP8fV/0Rfldf/RNXXVr7bPTzf+oH8cOezrrcDAAAAIBkj8BgYHeCcPnXGW0ncmxpsVabkrSMJ09nNtGZvFFIHye+qz8/5U7ityuQxORr9bNfRy+fSbOn/q1Ld5b3Q5pTOrttLWqjOvN5oSvXskpw8Mi+TgY1W1DYPnzonC12GSduj+JliqllZ9Lal8jG0g1WZnDsmJ88e6hyVnVmQt7z0r8m9AovkZU1n/MJ3avP1jQxT73VQfE5OnjrmLbQW3MXK5LycfDc+P5NnQuj80k8J0Bcv4qapO+SnZutzTBoPnzoh+70F7FIW+1Ofn/OmM9yV1ZyxtLbZ1LNQOut/Or++usxSmN47lbH8AAAAkIQR+BGwLUbgVVD8VyrA0Wue6Xun/+bif5D3zaJmjVe/Km/qBdF2vy6vRkcD9aidCmR+/7+8Lt+fVwGSt3DWsvz8l7/wPvv5xPe9AH/HPz8LjXxPLyx6r6eNXr6ya9ob4Ww9Wd16j2M600dvlaQZAfb1ym5/gbabP5Mby7/wt/nkN1J7fa9UduyQ176WNLKvzcqBP1PvU4Hcz7uOiqpg891jMqm3tf6+3PjPav/sImRqe6+q7b2m0vLVzwN5otj8bPzqp/L3+WM3I3s6wwvfqX+fT3gBbVp5+vwV0g/pqRXeVP9Afur6osqwunu37Hk9OpKfsICdN7Pih+2yWX4YE7w75Kf3Of29+kf9yLe//ml7MbiG2tdvTE15s0P0VPWkxf5qP/iJzO3+ndxf+dscI+gBr6h99haVy7GY48xBOZqpHKL8sv997s8BAAAgiBF4DIAKVlRQrLXvnfZ+057L5p1r5p70quzZFx7dtiOxlYr6f/2SXLioF86yQdRz2fhgTbyB9BC7gF36o8r8Edcg93R2vY89YYTeLmCng7ireoE2FSC2t7n5QJZXzP6lPTrNLHaWZVR0+rgKNvXzuq/oxeCC97AranurZnuVanD/ZmVKj/QWfURdjnRG2YXTuq0TUDu42J4p0JGf3n361+TylRXvGenBXY9dwE4H76fmVZr1Qoj+d0W55af9nNJYUXU6/Mi3zYcqjTfrfrknLmBX4F50JxNSm1H54bUPh3pgyn5y/sSIPcIRAACgXAjg0Xe1gwe8YEWvkp107/TmIz9gqewMz+e1QXb81OUt4aAwabp6nK2g0D2d5oJBSjClpw9rrWZ4H2zgfz8aUFqbL/xALo29OBD57k42ENfT8oPPxg/88wLWBDmfU98hczqjsgars7LfW2RPBdQqKE58qwqsO1ZPj1xg0bdR+HnhB+/xU9Qd89NOfdcXGVIW/Aump5Ot4/196oA/zV/vyxnv9g6dH42b1/Kv0r95W27oixLeLSF+3ozCEyAAAADKhgAefWeD1PyrTwdH0uM/a0ewQ0Fhpsdv2eBr635s53Ta0duU0VJ/P6IjyIHXC0Rh/sWBDKOiZgX43Gx+FpQ5nR0yBqs2nQ6PgbMzPXQ9so/K819IuWjgmJ/tOptyP3gwPbEKzGbIxVzYsFqNu4kXt9LNyn59C4z5Tct/IQcAAAAE8OizjEFq7BTz7iPpsVPXY78rwgZf7WCvQDq7bs/uRzQYNK+nBZxdL0aYdGcYHbdBob49oP1c/IR/2Z4nnkf2dHbI+ui5LOWewNajyvySnJyreusfeM+1r8zL/hn/PVGu+dn9QpGZcZDhYkehINjmV9p3PLzm78OVS3K/obJj8pgsJuRHGu+WAbWx1vqKXL3i54nbhQAAAIDtjQAeI2BCFuZjppjbIDvLyHbgDf5Ib1qAFLjXPdfzyOPT2W20tJa0HxlGUaff9qdgJ6cz/1Tq6P3YXdlp/JWq7PRecJE/nZafv5GLND1lZ2OogFalUd9Codc/2LhzV1TMKpPzCavIG7nzs6vuF65s8F1ErhkRm89l1VtvwqUc/Pz18jW6TgAAAAByIYBHn9nHtU3JVNJIZmDhseAjytojnF2D12Cg020kXa9SvrWA2NYooHs6Y2cBGMHp2NFAvb2AXQJ9H/ZhL6EpQZa5OJBl1Nl/bJgKOKemEwPS2sxEzN8eSF1Hsipv5hLvW477XECOdEa187db4Pei6a9PMLcg0/4rnWqznels3yKg73cPjpY/kHspo/Du+aklPb5NPwLP1M+0ix12X50vHpiLFrlnRGQohyh7oarIbAEAAAB4CODRdxuP697/k0fOyaIKaNpUMLWgn9ftLTzWuZBbWmDssUFh6F7ihNHLmgqMDp7wnrvdXqU8soCYazp9VXnr7UBwqD7jPRtcfabR8AO9aADj758OOPWz5YOBpXmOeXtF/O6Lhukgsr26t97XYPqth4+8EWUdkOpnkwdXA6/ZfTxyJjZYtav9e2k9Hg6Cvefm60XOkp53HpApnSH2gkz44kFtZrZzNfPNDXliLsIcPqtXOw+WoZ+n75w6JkejFyHsVPL15Y7F6jbTRuEd8/PlS78+TB4Jr8iuV3nXz5v3L9qo9Dhc7MjMtJ3GWspifxHeBSeXWyC8/E1pxwAAAMjsldlvf+cP5ueRtXv36/Ls2VPz2/gZ9/3Tpo8vtQOTTnErffvP836rUpdb5+MDWG90WwfINwP307Yf/ZWs1ViTG9fjA5f86VT0iuV20bMQ//2P9+l0SuSzZv+kroLAKe/+4E56xe9ltW9pI5ez/nPIzW9t+gJF3ErsiWn16Xu/b4Qen7fF5ne8hLxpy5nOgKTthsrd6lL+cWUfW48C7N/9KeCRsnDKz4S80FqqvtercrijvkTZ+tM9/zqZ7WfI+y3+9vbU058GEcfPv2ZiOwYAAEB2r9YmJpbMzyPr61//Y/ntb//J/DZ+xn3/tBefrErj8wn5xs6q7NhhXmypAPXj9+XGz/5WPvnSvNb2Lfn+j/ZKRQU0ax99Kh1/Vr75g5/InkpTntz7UJ7aN3zrB/JDbwGwCLWt1mf/ILdXfiq//DD++7T86VRebMjnE3olevsB9f71rff76XwmH/9yQ7YGIf39k4+X5d//x4/U51+Xqvq8/w0qrQ2d1muy+ukX3ivJNuXRk69I7fXdYjffUnn2P9Y+lE9exHxWpfXek9+o9+9U77fpVZ9Rga2fN5uJefPl0w9jPqvT+r78zcWEvGnLmc6AL58+8/Inmr/3/ntMWr/8VH59tx7JT0Vt6/6vluXndx50fCa2HgV8+fSfpXZgr7y2+6vy+d1gGSpO+anz4jfy6td2ymvtzFD79KufyY2/+2/yu2/+QN7c3YzUl6gv5KvfWpA9r+2Qf34Sn+4ktYP/u/xvu3eo7f1U/j7zqLiurzvlf/7n/zfXtjQvfyW5HQMAACA7RuBHwHYYgQfQY3a2QWNFLqQ8Tz7EzhjI8xnN+5w4jKKb0f682wMAAEAs7oEHgDLavC3r3g36B2Sh4wb9TnqtAi94j1n/oRt/QckpmUpcxDCGXgfALBjZ1/v5AQAAthFG4EcAI/AAnLTv+U9eK0JrryOQ6773gNh7/Tu3Gb+GRHraAAAAkB0j8ABQVpu35fLNurRaTRWlm9dC9OJz/tMQ9IJ6TsG79nBVbpmnKeSh1wK4dYXgHQAAoFcYgR8BjMAD6JfawROyv7na5WkGAAAAKANG4AFgjG3euUbwDgAAMCYI4AEAAAAAKAECeAAAAAAASqAU98ADAAAAALDdMQIPAAAAAEAJEMADAAAAAFACBPAAAAAAAJQAATwAAAAAACVAAA8AAAAAQAkQwAMAAAAAUAIE8AAAAAAAlAABPAAAAAAAJUAADwAAAABACRDAAwAAAABQAgTwAAAAAACUAAE8AAAAAAAlQAAPAAAAAEAJEMADAAAAAFACBPAAAAAAAJQAATwAAAAAACVAAA8AAAAAQAkQwAMAAAAAUAIE8AAAAAAAlAABPAAAAAAAJUAADwAAAABACRDAAwAAAABQAgTwAAAAAACUAAE8AAAAAAAlQAAPAAAAAEAJEMADAAAAAFACBPAAAAAAAJQAATwAAAAAACVAAA8AAAAAQAkQwAMAAAAAUAIE8AAAAAAAlAABPAAAAAAAJUAADwAAAABACRDAAwAAAABQAgTwAAAAAACUAAE8AAAAAAAlQAAPAAAAAEAJEMADAAAAAFACBPAAAAAAAJQAATwAAAAAACVAAA8AAAAAQAkQwAMAAAAAUAIE8AAAAAAAlAABPAAAAAAAJUAADwAAAABACRDAAwAAAABQAgTwAAAAAACUAAE8AAAAAAAlQAAPAAAAAEAJEMADAAAAAFACBPAAAAAAAJQAATwAAAAAACVAAA8AAAAAQAkQwAMAAAAAUAIE8AAAAAAAlAABPAAAAAAAJUAADwAAAADAyBP5/wN1xyt0O3ElgwAAAABJRU5ErkJggg==;" vertex="1" parent="1">
          <mxGeometry x="231" y="260" width="1008" height="417" as="geometry" />
        </mxCell>
        <mxCell id="zPfGM0J0lKjtOfjBMjjo-2" value="" style="shape=image;verticalLabelPosition=bottom;labelBackgroundColor=default;verticalAlign=top;aspect=fixed;imageAspect=0;image=data:image/png,iVBORw0KGgoAAAANSUhEUgAAA2YAAAKsCAYAAACH0a6YAAAAAXNSR0IArs4c6QAAAARnQU1BAACxjwv8YQUAAAAJcEhZcwAADsMAAA7DAcdvqGQAAK0sSURBVHhe7P0LcFRlvu//f4G4ucQRQsJIwiUNYhDmL5dkQNwpYo1HxkJUUttfqDC7/vPDOcMuTW3Fgs2vwBoLqZkjVLmh1DMVrM2cLf99zgwpOJ4KKloO7vEnbEYEE7zMqCBCAElQEwKOENjD5f88az2rs1b3Wt2dTid94f2qatO9ulevSzdmffI8z/cZMG36jGsCAAAAAEibgeYnAAAAACBNCGYAAAAAkGYEMwAAAABIM4IZAAAAAKQZwQwAAAAA0oxgBgAAAABpRjADAAAAgDQjmAEAAABAmhHMAAAAACDNCGYAAAAAkGYEMwAAAABIM4IZAAAAAKQZwQwAAAAA0oxgBgAAAABpRjADAAAAgDQjmAEAAABAmhHMAAAAACDNCGYAAAAAkGYEMwAAAABIM4IZAAAAAKQZwQwAAAAA0oxgBgAAAABpRjADAAAAgDQjmAEAAABAmg2YNn3GNXMfSNz3B8r0nw6UoeZh2Jmr8tG/XpUL5mFmKpKqmllSXT5BSorNIjkm9UvekN3mEQAAANCfsjKYFVXnyaRJ5kGErjPXpGvfVfnyk2sZFA4GyLifDZIxkg2hJUFZHMyqltVJ3UzzIIxgBgAAgPTJuWAWllEBIQeDWZQBUvZPg2RkxgezIlm8bpEsLBZp2rxNnt3bbpYDAAAA6ZPVY8zOvH5Z9v2z+3ZFPnr9qnTpJ0cOlFvnDrBeB0Rpa5bthDIAAABkiBwr/nFNLnxyVT583W4EHFpo/cgIQ0eaOwAAAAAQIau7MuoWs8OfmIVuzvinoG513x8g4/52oIycNCA8RkqPTTv12hVp/9os8DVAhk0dKLfO0UHLaY27Jl1HrsrnjRFj2qYOkulz1PsnEsiOXJF9av0oAft5Zt9VOflJ5Osju0sOUOdpoIxxr2vtZ3A3w2Fqn2+Ns89d712RD/f4fWWS6MqY9OfQO9YYs9HNsmr1PmkxywAAAIB0ysly+cMmmwt9dZEfGRCGzR0kc36qAowrDGg6aE36aZ5MD+r+qEJEmQo+0+7TwcX9GvV4klquQsm475tFRvKtZCqwVAfv55j7BknZVLMgknp+mNnXSZHrThoo0342UIaZx25Fanv2sZkFfSzpzyFVigtkvLkLAAAApFuOtZgNkKK5A2XMHfbFftTzU1UYUOFDt3Kdee+qfLmnO7hZrUU6mKjnTv3bFTnpabExrUH6rm7R8bRYdW+zK6gFz1k/0dYks59269FVaf/au61Jalv6GI788xXpHiVlWszCwUqt+3r3furj08FLi3VevOsMVOdEV16M3JafHhxj0p9DathVGanCCAAAgMyR1S1mI+/Lkzn/5L4NskKLDmVdR65EhbZxc5xgop5zhQHtwidXzNi0ATJysv06xzAVhuxQpkOHCgueboTXpH2PWleFCP9QlgS1Lx/922X5UG2rO5Rp9raOHLEfDY1ooQtTgU4HKfd+6uMLr1cYcXxmLJ4+L951nPF66pwEtdD1WPKfQ+8VSahmvlTrUvltnXLCXggAAACkXc51ZexS4emICkkfRo7Z+r660NfpSj3/ZVCAUkHkjPox9NYBru5+A6RQPbZak16L0RLkCVC9d8FpKVL7XTR1oJRVD5LpPxtkBVB7qgAVQIusV0TQ++nfunWhI/l9jAxzSUv6c+iF0jmycUudNGxZJOsXTJCStmOy40XGlwEAACBz5Ey5/I/es0PH0DPXIlqZjCK7JU2X0Z/maWVz30x3xQjOuKuuPixIEUl3Iyz7mdqnnw6SSfeZAhmesW2pc6HD/jnyvkFS5G6F02PVTPfHrl6EOo9efA6p0qpup+y7AAAAQEbImRazC3vsVhaZNDCqCEfWscaDqTBmtSzpcVhXrFbAj9RNh1CnS2LKhLs52oU3wgFJhUIrIB25Ety6lQ2O75PlS+qldsk2qd/ZKSXFE6TukTkSMk8DAAAA6Tbo5tGjnzb3s8aw2+zQ0vX5Ven4xixUugYNkJvHDpCbxqk8c/Ca/NUstwwYIIXTB8gNujT9v16VL/8Y4+ZZV633t7oAhnr/I9fk2/P20p4x76He5C9/jK4U6TVAyv5vu+CGLsTxye/VMZ5QwVNt969m2/7HP0CGzxwoN+ltfOi/nzeUDrTOz+VT1+SriAFWw27TXQwHWJNz32AvUuziHJ//Pt4+a+YYu9R7R557t6Q/h1S4IMc/+ZN8XTpLZt16UQ43HpHj5hkAAAAgnXJqjJluNTulm81GDpSxkcUqvlYhQz/X4xY1tZ5pTRpzv3+pecv3ExsPFViwI9KZa9LhKTLiMF0BU2mqLq0vckoXHDFdQ+1bdHGOuHS5fnPXV9KfAwAAAJC7cqz4xzU5uc8OMyPnRIYo5zkVsH46SMrm6vm+7GdsuhT9IJn+T4MksqZG+x+vWi1J1rionw2ScVPdY73U+6hgM12957TqoDFg3nAXOY6ryPN+htrWrXofzcPwdnRJfKv4R+rYVRlV4OtlFcQuqy+pOkb3fuvj85zn5D8HAAAAIFfl2DxmWvd8Xl3vXZEP93gPT09sPM2aByyANXeYz/xZ3x+owpfdpdFfnHm3Yq7vnScs5j7qUvifizUtgPf4neMO3g/nfaPOS9xj06FLhUvP/G3RAvdbd1uMqJKZ9OfQa0WyeN0iWSjNsmo1lRkBAACQGXKuXH53i4zI0DsGRrW6XNijQoIKLqeOXLNbwRw6eKjAYs1T5hcGvr4qH6rwdOQ9tZ7VMuRQj1Xw+EjPGxYrROj11XbPqO24WZNIv37VU95e7+NHr0dsx3qdHpelApypopgyX6v3VucjFl0Rcsx9g6Qsxnxm1n7r82MeW/R+Hzb3XZL+HAAAAIAclJUtZkgl09ImevLsoHnaBkhRtT0Oza8VMrvQYgYAAIDMk4MtZugRM+Fz1+exinyo51I1j1mmKC6XmkpGsQEAACAz0GJ2vQuPL7smZ16/Kl9+4g1ow1Rw02Xwx0zS48G8Y+GyVahmsaxfUGAeOY5J/ZI3ZLd5BAAAAPQnghnCxVRi0mPF+qQYR3qEaubL4+UTpKTYLCCYAQAAII0IZrAMmzpQxs4ZYBX5cFdndKox6jnVejSfGQAAAICEEcwAAAAAIM0o/gEAAAAAaZZ1wWz8+JC5BwAAAAC5gRYzAAAAAEgzghkAAAAApBnBDAAAAADSjGAGAAAAAGlGMAMAAACANCOYAQAAAECaEcyywmh5ovwp+bDyKdkx/nazrKec96iTJ/LNImSlopoN8o9bfif3VZoFAAAAyHoEs2yQP1V+NNS+Gxo3RR6w76Kf2YFohUw2j2ObK/ep8KQDVMzbsrnm9YkKya3lxepnm3R+aS8BAABA9iOYZYPzn8jbXfbdlpOfyqv2XfQrE4jaTkmHWRJT5WyZaO7G0tl60txL1DgpsHLZAfn8uL0EAAAA2Y9glhVOy3PNv5Tpe38pC098bJahf5lAdPqUtNsLYtu7QX695CfhW8PONmvx0c3dy/Ttt9tbrOUJKx0jBfpnovsBAACArEAwg1fpHFm5rk4attTJxpoisxBOC9jR9/fYj3uosCRF3Q/H2sGs5y1tAAAAyGQDpk2fcc3czwrjx4fkxIketjJkFV2kY6k8bMaURWo5uVkWnjhtHvkZLVNGVcn6cZMlZN6jpWOv/ObkH0TGPSW/KuyQlz6ol+fO289FqlpWJ3UzzQPplB1rtsrWPuoyp8ds1S4QaVqzQt7V2yidK/c9Ui0Ti3WIUdqaZNeLG+SQz/aLKlfIvfdX2K1YljY5urNR9m/fE7MlqUht49ZqtY2ZxXbLk9J58BV58/mGiPXUvqxz7UtMaj+XqP00j6Lp8WaPqmAX73WOkExe9pj8MGIf329skI7Z+pwVWy1vr+81TwIAACDr0WKWU+xQ11DWHcq0UGGl/GpGnfx8mFmQIexWpFY5o4KXVVhjrQov7iCk70aFMh2Yfie1S92hTCuWiQseldp1teLfzqfDjgo1ahsVrsCjFcx8UGq3bJA7S80CTXcZTCiUKfHGnTndDw/ujx/KSmvl77c8I/N89nHe2hUy2yr80SRfEMoAAAByCi1mWWLK+DppGFcYs8Xsgdt0i5i+1yHvHP4/8vg39uum5N8uj06ulrussBa7xczqyvhIuVSo6//Wndtk+fa+GskUkjvXPSMV8oo0vDbGClqdBzfJm417pN0KYypIVYoc2uv+rJ2WJ9M6tt95rVI6V+58RIUutd/RrUlmW1bOUutu/u+yX72vfWRqOzUPyQ8XqKDXpvZldWTLmWa2G/h8HJUr5B/18e18Ms6YMuf4FLWtXS82hFsLrRZCHUb1g2T3AwAAABmLFrNckX+3/NyEMh28nFCmfXr+Y3m8ebO8ZCo7xnR8nzy7ul5ql9T3YSjTTDENmaUCR4kKSyq0PO8KWtISEcpEJi8z3QHXrJDXdZdFd2va8T3y7ouvSKe6W1ASspcZRTWP2aFMB5olat1wKNPUdrZvkN+u2WQFId8j7mXBjaKSEutnZ2vsPyjYx6eogPprFbzcXTjb96p93NxkHR+FPwAAAHIPwSxXDCsSK4507AluDcskTtgpLpbOzXZYim2u3GKNfauQeWt95gPTt7UPerr/2ebK7AU6lalAF6uVSQU7v7FsFlNwI7nCH868Y3G6H5bWyg/18enwqAJqEL0fFP4AAADIPQSzHDFlqD2yquXCN9bPjOdUF9z5ZGJFLBKcFyxKT8Z3BZj8wwr132QrKjrzjsUeh1Y0e5Z9Ppr3BYbHRFveAAAAkH0IZkgLJ+wc3Z9YyHBCSeQ8YH43zziuXpeXD8nI0fqnXaSkxxLsBumU0w8+Hwm2vAEAACArEcxyTGjYKHMvkyUfdiLHj/U90+KVbItbyuYdS6zlDQAAANmJYJYjPu34TKy2lsIp8oC1JEL+KJkYMDeaR79MMN3zkNHe2mr9LCifE1AOX6SoMhT93Jen7IIgCx6SyfaSaKVzA98z3OKVpJ61DBZLwVhz10OX+jeFQSj8AQAAkJMIZrni/CfytlV1cbL8qnyRPJBvLbVMGbVIdsyolrvM41iqqu1S+VrJgnmy2D23V6okU+Vw7345qn8WP2jNVTbZtV960ug79RxlS5+R2ZVmoeP4Pjnapu9UyLx1K9R6rhY3dV/PbabnT7u3Jk5L3MxquVMFP4e9TbUf5rG/xFsGO1qtnZSJS/U+WnctRZW1ct86Pa+Z/ZjCHwAAALmJecyyRCLzmOmS+TtmVKo44KPrkLxzYbLcVRh7HrOqZXVSZ0KAigGyY81W2ZrM2KpYEp7XK4JZL4g1D5ouuW8eh+lJm30rNto6D76i1guq2OieAy2ad8602K8N852HzDWHWaS2JtnVXCLzFog0rVkh76b68wAAAEDa0WKWS87/QRZ+0Cgvdbg7CHbIOycbpbZ5m2y6EL/j4O7GZmmyG2+kdeeu1IcyJenqgns3yK/XbJKjbWYHDR2sdq35iT0PmlnmcbxBfrvkSdl1sM2eB8yhAk+TNX9arMmaW+Td1U9Kk1rXrVOHJbVNb0VJZ262OHxbCvfI6+rYPNtRx6nnd2tYvcF0+UyyAAkAAAAyHi1mAAAAAJBmtJgBAAAAQJoRzAAAAAAgzQhmAAAAAJBmBDMAAAAASDOCGQAAAACkGcEMAAAAANKMYAYAAAAAaUYwAwAAAIA0I5gBAAAAQJoRzAAAAAAgzQhmAAAAAJBmBDMAAAAASDOCGQAAAACkGcEsp42WJ8qfkg8rn5Id4283y3rKeY86eSLfLOqVVL8fAAAAkP0IZrksf6r8aKh9NzRuijxg3+0DJmyV3y1TzBIAAAAAiSOY5bLzn8jbXfbdlpOfyqv2XfRIkVQtWywbt9RJg3Nbt1hWVhaZ54OFKufIynWu9bao9WrKJGSeD5LsegAAAMheBLOcdlqea/6lTN/7S1l44mOzDAkrLVMBaZHUzSyQErPIUlwgFUsXScOyMrMgWqhmsaxfWi4VxWaBRa234B5Zv25OYMhKdj0AAABkN4IZUmCUTDRdJvtNaXer0saa+K1XPabef+Pae1RA6pSmnW/JqiX1UmtuqzYfk1b9mpn3yMpK69Veat3HFxSoO3rdbd3rrnlLmtrU4uJyWe8X6pJdDwAAAFlvwLTpM66Z+1lh/PiQnDjRYh7llgdue0p+VSjyzuFfyuPfmIVa/mhr7Nan50/bjw379R3y0gf18tx5Pc5rqTwcEJBaTm6WhSe863upbYyqkvXjJkvIvEdLx175zck/iIxzb8d+TkYtkh2u18bU0SjTP3Na7Jz97N7vB277O/l5YWG4NUhvd9Vnf5BPzWM/VcvqpG6meaCCzI41W2XrcfMwRUI18+XO/W/4v2/lfGlYOkHk4FtS+/xhs9Dm7FurClfLt7ebpY4yWblFBT6ffU52PQAAAGQ/WswyyJELHdbP0qGjrZ82FWQmL5WGGUtlx3jv8luGqR9dn8mbTlhKmh2WGsq8QStUWCm/mlEnP9fb8ZFQKItl2O3ygtrur1yhTNPbbciAQiIt2wNCmfZlp91qFqVM7rAC4zFpjApX2mHZvrNT/SyQsWPtJbZk1wMAAEAuIJhlkE+77Avy0LBR1k+Lu7Ki3/IL35iWpe7xZO5b7Uk77MXywG1OS1uHvHN4c/e6HzTKO10qNPkFsG+2ubajXqeXde2V2vAy1y3cWuZWKA+XVctduuXMvc3Dh+ynh1bKo67DjbS7sdnu3qe07tzV/y1IY+1xZ62tZ+zHjtKRYg0PO/iF7LYW2NzBs6X1rPWzuMTVBTPZ9QAAAJATCGaZ5JtP7YCjAli4tWhYkbo4PyTv6HwVtVxdrKtg1iv5d8vPC/Udu2vh4990d3f89PzH8njzZnnJVHZMua5D8ou99fKce5sq8P3CZElvy2GE4/vk2dX2GKzobn99rUgW3z9B/fRp3YoKbLoLYp2sd4+FM61tJSUj7cdasusBAAAgJxDMMso3clSHoKFFMsleIA8UTlYBpl126W6OQ2+Te82kzFPUa7TjXbHGjSXABDzp2NM9fqxfqCB4aJtvCX+nS2emqlq2SBYWizRtfsPTuuWr8hapMHd7FKiSXQ8AAABZiWCWUU7LFxf0z8kyz+rGZ8aRXfhGXrW6ORbKRDPea9Iw3cx1SHb1ssHMCXi9bnm7Tuhy9laBjoNvybN7zUIf4TC194DssLpcdkrT+94iIX6SXQ8AAADZjWCWYbwFQOwy9FZoutAuuhalvfx2madzmQprR9QP9A9rjjFdzl6FsuURlRjDooqCtMtWq8vl1u4g5zc+Ldn1AAAAkBMIZhnm047PrABmFfoYNUXuUvet7ornP5G3u9TyoqkyJX+UlOoXhwt/9J6nsEiyXF0wc0uRVC2zQ5luKYssj+9x/IxYDV0zb5Eqa0G0UMkI62dbq2t8WrLrAQAAICcQzDLN+W/EKjCogtIDVjdDp7ui6eaow0+qCn8oThCUwinygLUkggqBiU8eXSS3mDFwfa6vJ5gOK5LF6xZJ3UwVyvT8YrFCmeWwvHdQ/5wg1b77VSY11iTSx+Q9T1fIZNcDAABALiCYZZzuAiDz9DgyV3fFVzt0KXm13FRRfLujl4U/NNMSp8e1/ap8kTzgClZT9CTSM6qtVrvYPpZdVg/MQnl48t2e99CTYz8wKkZ1xSRVVZdLhVVfXqRkwTxZbDUhplhpmQp/utBHpzRt9pv02Z8u5W9VT1ywSIXGsu6S99b76UmilYiy+Fqy6wEAACD7DZg2fcY1cz8rjB8fkhMnrDaenPXAbU/Jr6zwpXQ0ds8Dln+3CkqV5oJdl5r3r2roNmV8nTSMK5SWk5tl4YmAIOd53whdh+SdC5PlrkK7nH5g5cZY7+HZV3sy64f1/GUB75fIPlctq7OKcNg6Zcearamdy6x0jmxcW26N6YrHakmLCG3h8Wh+2ppl1ep9dktlhGTXAwAAQHajxSwD2S1jtnc6XJMzO90ctVQW/jj/B1n4QaO81OEuU98h75xslNrmbbIpkfL15j3e6fK+tkUFu5cO744bIHuqzyeYNoU2ktWyfaus2qz3sdMs0TqlaedbMcNVsusBAAAgu9FiBgAAAABpRosZAAAAAKQZwQwAAAAA0oxgBgAAAABpRjADAAAAgDQjmAEAAABAmhHMAAAAACDNCGYAAAAAkGYEMwAAAABIM4IZAAAAAKQZwQwAAAAA0oxgBgAAAABpRjADAAAAgDQjmAEAAABAmhHMMs5oeaL8Kfmwsk6eyDeL+p2zD0/JjvG3m2WpkgnHBwAAAGQWghmi5U+VHw2174bGTZEH7LsZxIS78rtlilkCAAAAZDOCGaKd/0Te7rLvtpz8VF6176JHiqRq2WLZuKVOGpzbusWysrLIPB8sVDlHVq5zrbdFrVdTJiHzfJBk1wMAAED6Eczg47Q81/xLmb73l7LwxMdmGRJWWqYC0iKpm1kgJWaRpbhAKpYukoZlZWZBtFDNYlm/tFwqis0Ci1pvwT2yft2cwJCV7HoAAADIDAQzZKFRMtF0teyx0u5WpY018Vuveky9/8a196iA1ClNO9+SVUvqpdbcVm0+Jq36NTPvkZWV1qu91LqPLyhQd/S627rXXfOWNLWpxcXlst4v1CW7HgAAADLGgGnTZ1wz97PC+PEhOXGixTzKRXr81FJ5eGiHvPRBvTx3frQ8cNvfyc8LC8OtHi0de2XVZ3+QT83jKPm3yxPj5sqP3Ot0HZLfHNomr543C8Kc7ZmHEVpObpaFJ06bR/6mjFok68dNllCMsNT9Pkken9rGjjjbCOtolOmf+bf0VS2rk7qZ5oEKMjvWbJWtx83DFAnVzJc797/h/76V86Vh6QSRg29J7fOHzUKbs2+tKlwt395uljrKZOUWFfh89jnZ9QAAAJA5aDHLZMNulxdUiPmVK7RoocJKaQgofDFlfJ18OKNaHo5cZ+hk+dUMXWVxtFmSGg/cVicNZQkGpkg9PL6ktpEGLdsDQpn2ZafdahalTO6wAuMxaYwKV9ph2b6zU/0skLFj7SW2ZNcDAABAJiGYZaxCebisWu7SLUuHN1vjvfSt9vAh++mhlfLoKPtu2KhF0jCuUN3pkHdONkqtWcdZT7czhsb9XUSZ+u7xZO5b7ckO83wMans6VOntefdxr7UtkUPyC7MsutWth8f3zbbwa6bvbZR39LKuvZ5jDN8CWsu03Y3Ndvc+pXXnrv5vQRprjztrbT1jP3aUjhRreNjBL2S3tcDmDqwtrWetn8Ulri6Yya4HAACAjEIwy2RdOtjUy3PfdIeaT1VA+YXJTKVD3a1fo+WJcZOte+8crpfHT3zs6Qqo11tohZ5C+VFhalrNpgy1L/T19rz7+AezrckyLzI8uvXo+FLk+D55drU9Biu6219fK5LF909QP31at6ICm+6CWCfr3WPhTGtbSclI+7GW7HoAAADIKASzjNUhL+kxYeaR25ELPq1ZztxjXXtl0zf2oijffGq1NIWKpvbb/F/B4aqHx5cDqpYtkoXFIk2b3/C0bvmqvEUqzN0eBapk1wMAAEBaEcxyxbAiu/va0EppqHxKPvS9Vctd1otT49Muu9XnrrJF8oC7e2T+7fJCmd16d7wrsgvj9UmXs7cKdBx8S57daxb6CIepvQdkh9XlslOa3vcWCfGT7HoAAADIDAQzJC/c7dAuLBIOgDNMAOxoDG69u45Yc4zpcvYqlC2PqMQYFlUUpF22Wl0ut3YHOb/xacmuBwAAgIxCMMsVF9rtghu6VLxfQQz3rTlGqf0es7sdeicwMMVHPvOOc0u5oUUyydzNTEVStcwOZbqlLLI8vsfxM2I1dM28RaqsBdFCJSOsn22trvFpya4HAACAjEIwyxXnP5G3u9TPwrkRVRf7kFWVUeSlD34pCz3hL7r4SN8oklt6eqx9PcF0WJEsXrdI6maqUKbnF4sVyiyH5b2D+ucEqfbdrzKpsSaRPibvebpCJrseAAAAMgnBLGecludO2lUXH55RJy+Mv12meELLaHlg/CLZUblIHjBLesuuylgoE1NU5TFxH8suq6FOHevkuyPGt6njHBW8P1XV5VJh1ZcXKVkwTxaX2vdTqrRMhT9d6KNTmjb7TfrsT5fyt6onLlikQmNZd8l76/30JNFKRFl8Ldn1AAAAkDkGTJs+45q5nxXGjw/JiRPejnO5ZbQ8Ub5UHtbze31QL8+dN4td9CTSer6ylpObo+YHc54L1HXIqobo975usbYRln+37JhR6ZkzK1KL2t7bJ3e7SuL37vjCYm5bl+H3r/hYtazOKsJh65Qda7amdi6z0jmycW25NaYrHqslLSK0hcej+WlrllWr90V0G7Ulux4AAAAyAy1mOebTE/Uy/YNGeamjw3sh3mXGfTXHD2UJO/+J/EZtJ5bQ0MnycNlSeSHWfGbJOP8HWaiO8x11XG46CL50eLdvKNP6fIJpU2gjWS3bt8qqzXofO80SrVOadr4VM1wlux4AAAAyAy1mSJJp+ZK9KuwFFRMZLQ/cttQahxaz9QsAAAC4ztFihuSYCa1b2j+JUeTjdM5OFg0AAACkEsEMvRIa93fywqjRMsU8dkzJv12euM0Z73ZIfkNrGQAAABCIroxI2gO3PWV1U4wpwWIjAAAAwPWMYIZemTLqbnl03G1SOrTQUyHRqcb45jen+2E+MwAAACC7EcwAAAAAIM0YYwYAAAAAaUYwAwAAAIA0I5gBAAAAQJoRzAAAAAAgzQhmAAAAAJBmBDMAAAAASDOCGQAAAACkGcEMAAAAANKMCaavd/l3y44ZlRIyD8O69kpt8x/kU/MQicqTxYsKZOGIK7Lj5TOytcMsjqcwXzY+NExKzMOwsxdk1bbzwjceAAAgt9FiBgTSIWuUNPyDui3K7w6vt95kL1O3lbeaZdcVzgsAAECqEcyud+f/IAv3/lKmh2+N8o55Ci5nL/u0Wl2RL8+Yu73VcV6W/8s3Uhu+fStN5qmM1tfnBQAA4DpBMAMAAACANCOYITuVzpGV6+qkYUudbKwpMgtT7bKcOmvuup25Iq3m7vWJ8wIAAJBqBLOMNlqmjFokO8rr5MPKp8ytTnbcdrtMMa/wM2XU3fJCufP6xNbpjWS2N2W8PqY6eSLfLMi/XZ64Ta0Xfo+nYr5HVXW5VBTb90sWzJPFpfb9vtJ69oq556YCSpziHqHCwbJy0cjw2KsGdX/lrXnm2RTQRUMix3p5OOPBRsriQrMoktrHxT8eab+PuW1cdJNUBb3eJdnzAgAAAC+CWaZSQeWF8qXSUDZZQkPdV8iF6mK/WhrcoSZstDyhAlJDWaXcNdQsssRapzdSsz0rpM2olocL1Xpmmabvp7sq5AkTPNo6L1s/LR2XpU3/VM+dsBb4G1sxUtY/dJNUjBhklijqfsWPCqThx4PNgvQKzVahUe3jwtAgT0XIkhGDpe4hFdBm+4fI3pwXAAAARCOYZSQVylRQscJO1yF56fBmV3GOzfKLk4ekRYWficPsVzumjP87edgKSB3yjnudDxrlpS69vFAenrFIHtB3U6D321PHMG6RNIxTwVMd5y8+8B5n7cmPzeui7W5sliYrBYi07twlW4/b91OtxR08wq7Il35d+TxUAFNhp7XlgtS/7BT06JT6D0wLU+im9FcuvPUmWT9Dh8Yr0vTBt7LKVXxk1duXrG6JJTNu8m1pS/68AAAAwA/BLANNGT9X7tJ3rLnEtslz35y2lttOy6sntslCFWIe/8Ys0vLvlvU64KiQ9NIH9eo51zrnP5bnmjebsDRZfj5+tLW4V1K0vbsKJ0vLSRXI1HG+et57nJ+eN3f9HN8nz66ul9ol9bJ8e7tZ2FcCqgz6ViTs1vpBpyz//XnZHe7Wd1l27z8jq0w4q5iQzlazPFk8095+09tn5Nn9lzzH0vL5t7JchTMdMGfdEtT1MrnzAgAAgGgEs4wzWu4tMoHnUIwJnj0hRhlWZHcD7Ngjz/kGmtPy3MlD1r1Q0dTejzdL1fY6GmXhiYhjySQqoNT+S+RE0Zdl67ZvpPb3OrgEuSIHvvBrVVKh5wu7NUpG5AWMC+sHhYNl1gj18+wF2f65vSjK55eskv0locHR+5n0eQEAAIAfglnGGSUTre6B7fJFrBajCFOG2pUJWy64m9EiXGi3WzLUaydZC5KXqu3FXD/XjRgk483dfjfSjCkbMUzWu4p+eG83SYX1YgAAAPQ1ghkAAAAApBnBLGMVyS1JVFAMDRtl7vlwuh92tcsRa0Hv9ff2coLTWpXO6oXOnGMtuktid9EP39u284wZAwAA6GMEs4zzseyyxu0UysOT7w4em5U/2vPcpx2f2RfPhXMDStSPlifGTbbutbR/Er8MfZzujinfXk/1ywTTvTFIxo40dz26i260tngLbviK193RKVEf8LrQ7JtkoR5LFqnjkhzQFRRD+cHzmwEAAKDfEMwy0Ksn95qxWZXSUL5InhjlrmpoJp2esVQabrvdLFPO/0F+4wS6GXXygnsdPXlz+VJT2v6Q/CZmsY1v5Gi4mqJrgmf1Hg+4A1jKtpec/p5gOhkVP9LzgLkKZ+iJnBcVmKB0SRr3+xcHsTml5wdLdcR7eCd+7n5d3Y/dr1MB8McjTTl8P5dl60G76uLCh0bKSr0Nz/vmSZUKdRv/4SapMksAAADQdwZMmz7jmrmfFcaPD8mJE9dBx6r8u1X4quy+0I5il6n3VkTUEz47gciP3zrR9ITP1txikToaZfpn7rnFkt+esw1dKj+ZqoxVy+qkbqZ5IJ2yY83WPpvLrGdUILLC1xVpPTtISvxaq1SY2vFyZEXDaHryZ99gpbsfuisf3nqTNPzIv/S+LtnfOKJA6kL+2wzchuPsJdnx79/G3VcAAAD0zqCbR49+2tzPCsOHj5Bz566DWWz/ekwaTh6WUwNulIl/UyQjbjDLVdhp6fi9PHJwp7z2V7Mo7DvZ17Zb3rmYJ6OGjZdQQutEaz93QN4ZMFp+OFxt1yyzJro+/ansu/CdWaAlv71Rw2fJ/zV8mJz9tlkazrnfMzHHTw+SCbcVS8n39ATTr8qGP14wz6TbQLn9B0PltosX5b9tOytvfZsnUwvy5HtD7Gf1hNP/UwWdnQkEnbOnuuT9QWr90Wp9s8wKSp/+p/zpzFWzQDlzSd6P2I5+Xf3OTvmXI1dlQOEQuWe0yKFPu+RPVmtoN72N/91yRW4Ylic3jRjo2s4VafrsO3nh9xfkPyLWAQAAQOrRYgYAAAAAacYYMwAAAABIM4IZAAAAAKQZwQwAAAAA0oxgBgAAAABpRjADAAAAgDQjmAEAAABAmhHMAAAAACDNCGYAAAAAkGYEMwAAAABIM4IZAAAAAKQZwQwAAAAA0oxgBgAAAABpRjADAAAAgDQjmAEAAABAmhHMAAAAACDNCGYAAAAAkGYEMwAAAABIM4IZAAAAAKQZwQwAAAAA0oxgBgAAAABpRjADAAAAgDQjmAEAAABAmhHMAAAAACDNCGYAAAAAkGYEMwAAAABIM4IZAAAAAKQZwQwAAAAA0oxgBgAAAABpRjADAAAAgDQjmAEAAABAmhHMAAAAACDNCGYAAAAAkGYEMwAAAABIM4IZAAAAAKQZwQwAAAAA0oxgBgAAAABpRjADAAAAgDQjmAEAAABAmhHMAAAAACDNCGYAAAAAkGYEMwAAAABIM4IZAAAAAKQZwQwAAAAA0oxgBgAAAABpNmDa9BnXzP2sMH58SE6caDGPAEQrkqqaWVJdPkFKis0iOSb1S96Q3eYRAAAAMgstZplm6iCZ80951q1sqlnmMUDKzPNzqgeYZdeh7w+U6eY8TJ97HZ8HH1XLFkndAncoAwAAQKYjmGWwkWU+gWPqQBlp7l7Phk0eIEPN/aG3DpBh5j6KZMxo+17T5m1Su6Te3GgtAwAAyGQEs0w2aaC6zPYq8gtr150BUqjCmJy5Kqfeu6YSrHr8ffMUbG3Nsn1vu3kAAACATEcwy1BnjuihfwNkpKc7o3o8Sf1Qz52xF1yfvq/Ow0iRrs+vyclD16RLn5fJBFYAAABkr0E3jx79tLmfFYYPHyHnzp01j3LQqIEyVrcGqdDxl7EqcAy4Jl9+Zp6bOkhuVc+dUc+Jem7oGddzLsOmDpQJD6jX/hf1Xn+rb3aL0l/Ua/9qXhOmx2o9Okgm3KbC4MFr0c+r0DPuZ3ky9b8MkAEqEH573iwOGyBFc9W27lHvEbk9lR7/GvV6FxWwxs1T692vbtZ6A6XwtgFy5dQ1uRBrvVJ1fOo8/OWjq9LRor4Tar2bhgXtv22Y2seKRQO7j8Fv299X59z3HCW5nwHr/c0lkW+/Ma9JuQsy8v8zS2bd2CZv/fuXksP/UgAAAHIKLWYZ65p06WYxV3fGYYX6v2p5h4THV3nZIWrafQOtFqVuKsRNGiTT/mmQjEtpl78BUvazQTLpDvX+ftv76SApCyjMoYPSHPX8mEndY8W0oSMHyKSfxi7oYXfnvCZnPtGP1M8j6kcPujMGblvdLth3w5LbT/U5VAevN+Y+dV58C7ukUHGBjDd3AQAAkPkIZhmsQ7eMqYt8uzujM67qmnQEDB0aNnegjLECkgorr1+Rff982b792xU5ZfV9VKFAhYXIcWvJ0tuzAqDapyP/ZrZl3a7IR6/rYOkNJWFTVWhTYc7az/fUa8PrXbbXU88MvWNgQIh0unNeFec0tB825ylud0a1P39rtm3ts+sc6X3+o34fl2T3c6r6HFQg6/LZxhE9Jk4ZqcJZqj4HAAAAZD+CWYYaWihyYc9VayyZVZ3RjKs6s+9qVKuO5fsD5VYTIk6pMHD4E1fI+PqanPxXVzhLcXn5rs9VSPraPLBckwufXJEP//WyfLgnIuyo7Y+bY29fh8fD6nn38VjrqdATGLRMVcozVhgzPrHPUyLVGUfqwKRC1j51PtrVeemm9sNzDL3YT/XcRyqofuizjfY9KpzpFj5laEpbL7UiCdXMl+qZ6m5bp5ywFwIAACALEMwyWnc3vSKrPLx6rLvvFfm0RDnLjlyVk56A4VDhbJ8dElJVXv6CVXjDbjXSXRaHJRI0TMDUFRW/tLoi+ogRtLzdGB3d5ylud8YjKlBFhUUfvdzPcMhT71OkwmRZ9SCZ/jN7jrpJusVPBbqhqWoyK50jG7fUScOWRbJez1/Wdkx2vLhPmIYdAAAgexDMMpzVTW/kQGscl7v7XiR7/JlY488CtdtBSgeYVAQz+fqqfPhvKpycUSHmDj2mzEx8rQJIYFBzAqQ6pmlmgujo26CAudrUdkyomRSxjhN24nVnjHl+3Hq1n+rz0GHsZ+o1Px0kk/SYPz3WTJ33/tCqbqfsuwAAAMgSBLNMZ1plNE/3vUyhwtnhf71sjWPT46fOnFHhTwUQJ6hNr05RCNRMN8ZYMmKyaT02zSnAos6HHp+mx5p9ZMabOV0ZU+b4PlluTSK9Tep3dkpJ8QSpe2SOhMzTAAAAyHyUy880Trl8dUHvlMIfMGiADB12Tb7+vRnn5POaG0oHys1jB8gNF/1L6FtMmXlrPae0fP4AGT1drdd1Tb4KKJc/fOZAuWmoyF8+9CuXb6jlF05ckw71Hl/98ap8eeSaDBun1hujboPUMmfA04ABUqi3d0SP81Kv068NukXsT1HlIBV27DF0n+yKfP01GXCb2pYKQ5d9yvo75+fyKde+xJL0fg6Qsv97oNXt9NTrV+WT31+VDrU9XVbfmTpgmNpPHdr02LyOlJbNvyDHP/mTfF06S2bdelEONx6R4+YZAAAAZDZazLKALhjxoQoHQd0YNWe8ly6vH1TN0ClmoSdmDhey+Dp298buSo/Rhk2N0Tql3vewM6bNdLO0qOVndBNg4H4GMd0YVajsCBhDF65iGbc6YwKS3k9D76e7AEuY6SIJAAAAuBDMcsXXV+WU1UXOLolfpkJTmJ7o+GeDwqX0T0UUv7DmS1PrTXJ3O9TrVDvl4n3oKpD3qef/aZDdXVG93k0/LrvPBEHPuC6nCInZz6ixaPaE1dPV+3pqY5hujJ5QGSFcjCQl3RmT3E/HSHV+9DrmoX79sKl2AZAx1ng4AAAAoNuAadNn+P1ZP2ONHx+SEydyuN6cunifowON7kLXGPDRBL7GHcD82N0Ao6o2Ou/nQ5eWP1U4SCZNil5XF7gYO8eMpQpy5qp89K/RJf71xM2BoU87o7b3Wvf2iqrtAh9nXr8sh4OqJKrjL7MKcvjsq9mePp6EqjIaPd1PLeY66vVHPhermEvsY0lWkSxet0gWSrOsWk1lRgAAgGxBi1lO0fOV6cmPdaVEs8hyTbpUiPvon31Cmabn3bImhDaPNR0g9Fxcev6uDv8gc+ETu/CHvT3va/TkyqdeV+/rE8q0C3tUqFTh6dQR05XSodazJnP+V/e+OtUY1XMxg4x63rQapqQ7o9Kz/bTpdfzOpz4f1vxpiVaGBAAAwHWDFjMgp9BiBgAAkI1oMQNyUXG51FSmagZrAAAA9DVazIAcE6pZLOsXFJhHjmNSv+QN2W0eAQAAILPQYgbkmJbtW2XVzmPS2mYWAAAAIOPRYgYAAAAAaUaLGQAAAACkGcEMAAAAANKMYJZhdFdNAAAAANcXghkAAAAApBnBDAAAAADSjGAGAAAAAGlGMAMAAACANCOYAQAAAECaEcwAAAAAIM0IZsgAo+WJ8qfkw8qnZMf4282ynnLeo06eyDeLgBxSVLNB/nHL7+S+SrMAAADkFIIZ0i9/qvxoqH03NG6KPGDfxfWgcoUVNv5xywa5s9Qsy2pz5T7reOLcls01r09USG4tL1Y/26TzS3sJAADILQQzpN/5T+TtLvtuy8lP5VX7LnJeSO68v8LcL5aCseZuNqucLRPN3Vg6W0+ae4kaJwVWLjsgnx+3lwAAgNxCMEMGOC3PNf9Spu/9pSw88bFZhpxX+ZBUFLdJ0+ZXpFM9LCgJ2cuz2d4N8uslPwnfGna2WYuPbu5epm+/3d5iLU9Y6Rgp0D9Pn5J2awEAAMg1BDNcX0rnyMp1ddKwpU421hSZheh/prVMtwDtPWUFs1xUWJKi7odj7WDW85Y2AACQLQZMmz7jmrmfFcaPD8mJEz38a3MWyfXjs4t0LJWHzZiySC0nN8vCE6fNIz+jZcqoKlk/brKEzHu0dOyV35z8g8i4p+RXhR3y0gf18tx5+7lIVcvqpG6meaDiwI41W2VrSruGqcCx7hmpOL1Jft0ocmd1tVTMVBfnbU3S9OIGeVfmRi+L3H5pSCZXPyY/VK+xWkk0/drXXpZ39/p8N0pr5e/XPigFB9U2n99jFrqZfSpukl1LNsghs9RRVFkrs++fJROLdYjQVJA4eEDeb2yQQ3HOTVHlCrlXBSyrm52lTY7ubJT92/fEbtnRY8uWVlgtSa/v1eOyHpWJgftv08UvaheINK1ZYZ+zUrXeI9Xd+63O0S51Pv32Obn9VJ/DMu/n0HnwFfu8jNX7X9K9L77McYn/eY8WvL2O2frYi835Mk8CAICcQosZsogd6hrKukOZFiqslF/NqJOfDzML0sqMBZLZct/aR+0AphVXyMTqFSpAeZdVVHuLQOgA8fdrn5F57lCm6dcufUb+vsanu1/c1hRnfNIp6bAXdFPbq136oCuUaWrbMx+UeWs3yH2VQd0LVehY9zu1rjvsaMUyccGjUruuVoLbI9W6aj1pe0X2WyHjpHTqHn+jx8RYx2l9apUzKghZFQrVufTst74bFZKS3E8ddrdEfw7h8/JDPTbO3pdATvfDg/vjh7KY21shs63CH03yBaEMAICcRTBDP+seT+a+1Z6MigxRHrjNaWnrkHcOb+5e94NGeaer0BPWguxubJYme9iPtO7cleLWMsW5GJ+pgtjBTdKgxxRtbrKeKlDLdKuWe5mHFZLUa9TdTud11u1Jadhp3mPBY1HVC4tKSqyfna0BLa2B45Oc4httcnTzk64xUGp7av86dXhZGr29cEtQsW51Uvu5xllP3dZsss9v8YMyO6Cse1FNtVUg4+hrDd79KR4jheZutJCMHK1+6HCpz9OCYvschbf9pOza/HJEAEp2P9V6ugVS31XhcZdrvfB50a2ufkHXLeHuh/G2p75LOpfF2x4AAMhqBDNkh/y75efWVbvdVfHxb7q7O356/mN5vHmzvGQqO8Z0fJ88u7peapfUy/LtfVBGwVyM6wvshudNN7kvzRgq9zKj+6JdXZzrViRFd1f7red1LdK+fYMpJKFCwWxvK1bccUzxAkLbAdnv6SKptrd3g/xWhx2frnqTl5nueeq513VXQPfzx/fIuy/GKuYxV2arUOVt/WmRM7F6r1qclshZcu/SEitIWucovO0WORTRzTPZ/bTXU3TXytXe7pzWeXFCdZxCHHEDs5HI9qzvD4U/AADIaQQzZIdhRWJdPnfsCRw/lgmci3FPa5AJRu5lkRftTitS584nA8cQte8/YILEOHuBxWlJCi6jPtnqducXEEwgKn5Q7l02V4qiWsZU2Il6z7lyizVGr0LmrfWZn0vfnNYfH93HGdm6pZXIyKC5zJxWv+Ji6dysgpbfWDuPJPeztFZ+aLWG2SE6lqPvx3remXcsTvfDBLcXM1gDAICcQDBDVpgy1B4J1HLhG+tnpvJrvbKDkXeZ/brui3ZnvaP74wWOCKVz7G5uga0pJrgFtKgdev5J2XWwTQpmPiq1VoDZIPfVqJBmno+S4Dxd/rpby96PKBff0Wq3BgbOZea0+sUIrh5J7mfR7Fn2dpr3BbZO2aE6RgulJca4PpfEt6eDWQ+/GwAAIKsQzICUcVpp3EUhnGDkXmZeF75o93uND78uifG6KcadmLhFhbMV8us1KqDtNOOndFEMK6BFd0UMtwhGzMvld4ucqyvcZU+3YkW0XukxY7E44TbR4JrsfsYPyE5LWIKFP+J0P0x8exT+AAAg1xHMkFVCw0aZexnItwqfCUbuZQletHs5hTq8LSfxWlOKnJajeNs6rgLadj2uTIWVNZvkaJsOaH6FP2w9ngza6bIXh//7JhhcfaR+0urEWsLiB+ZEJbg9AACQ9QhmyAqfdnwmVvQonCIPWEsi5I+SiQlUZezTCab9LsZNMIrdyuUUv6iQWwIrGT4mFdYFulNi3ubXddJhzftlCopEB4S5cp8eV2YeeRzfI6+/pgtcRHctbG9ttX4WlM8J7O5YVBmKem5ytRnPpQtcRLRYWTdTUMM7fs7R83CS7H7agrpU6nnGTKtfnKDbsxa+3m8PAABkP4IZssP5T+Rtq+riZPlV+SJ5IN9aapkyapHsmFEtd5nHsVRVl9sBRylZME8WBxWbSIJf61Wiyw69bweTiUsj5g4rnSt3LrMnF9YX+k0vRpSYtxRb86GFQ4aeeFnP3aXWOXrQnhsgskXNKsKhx5Wts7fnCSh6fdM6F2XvfjmqfxY/aM0BNtl1/oqcfV36jLcEfbi1rEl2BRW4cCpX+s1llkwLYzL7qdhj3fTnsMK7TmWtOqd6njH7ceyWsMRb+FKzPQAAkAsGTJs+45q5nxXGjw/JiROJ/BU6O+X68QWZMr5OGsYVSsvJzbLwREDt9Py7VQCrVJe9ProOyTsXJstdhXY5/aDKjVXL6qQu3KWuU3as2ZqyucwmL/udupBW4clVYt5epgLJkg2mK2NI7lQX3BXF7mU2+7XmQRTv+4ZVrpB/NK1iXvbrP5+tQ52KRD7rWi1qscZ26XnCPGX7jcBt2vT8Ym+61nOOSxfuiBx31k2FQT3nmK5OuDoifJrtxV7fRw/302b2wzzyaFOfWXOJzIs6n85nah4G8Tu2pLYHAAByES1myB7n/yALP2iUlzrcHdo65J2TjVLbvE02XYjf0a3vJpj2ayUxyzxd8IK75R163kwobPbP0tZmT468JODCfO8Gq6piN+/r7a6O/i037dt10Y9N0qTWt1qrjE69zc1P+ocyTW3THofm3q4OOvbkyJ452FQ4ssKmCiVvxgxVJ+3j9plkOt44ukA92c+wPfK6OSdhzvlYvcF8ZpHn03ym8fi2+CWzPQAAkItoMcsw12uLGQAAAHA9o8UMAAAAANKMYAYAAAAAaUYwAwAAAIA0I5gBAAAAQJoRzAAAAAAgzQhmAAAAAJBmBDMAAAAASDOCGQAAAACkGcEMAAAAANKMYAYAAAAAaUYwAwAAAIA0I5gBAAAAQJoRzAAAAAAgzQZMmz7jmrmfFcaPD8mJEy3mUe7J9ePLHqPlifKl8vDQDnnpg3p57rxZDF9TRt0tj467Te4aWmiWiLR0HZK3T+6W5745bZZEcs6xeu3JRll44mOz3CX/btkxo1JC5mFY116pbf6DfGoeRkl2PQAAgDShxQxA74xaJA1llZ5QpoWGTpaHC0eZRz7yp8qPVCjTQuOmyAP2XcBXqGaxNGyZL1XmMQAAuYZgBqAXbpcXyiZb93SrV+3eX8p05/bBZvnFyW+s53yd/0Te7rLvtpz8VF6173qd/4MsdL/n3kZ5xzwVU7LrIUMVyZ3lBSJtnXLCLAEAINcQzAAkL3+UlOqfXXtl1YmPvV0Ez5+WV9Ut2Gl5rtkOTr7dGIGwkTK2WP04fUbo6A0AyFUEMwAIUjpHVq6rk4YtdbKxpsgsRL+rvEUq1I+m9w/bjwEAyEEU/8gw11Xxj/zb5Ylxc+VHhYXhIg3BBSNMoQhxijeMlgdu+zv5uXvdjr2y6rNYhR1Gy5RRVbJ+XJGEwuOhOtR6e9R6Ea09UcU/er49uyCGHntlFgRuq9uU8SoEjJPugiN+56ij0Xd/HxhfJT8vmqyOzSxytndSvTaFxUumjF+kzqHajnkcSO3ndLWftu5CH35aTm6WhSdita45bpcXKqvlrh4X8UhuvapldVI30zyQTtmxZqtsPW4epkyRLF63SBaefktqnz8soco5UnN/uVToFiKlte2YNL74huwO3G6R2s95Uj2zQErMktaDzdLYuE92j50vDUtH+O63HrO1foF0P1daJisfqVDbLbBfoLZbH7DdUOV8efz+CVJi9lGfm6adTbJ9+2GfFi3v8Vn7WzNLqheo9e0XqP19S15Qz3Wvq/ZlnWtfYlL7uUTtp3kEAEC2osUMaaAu0m+rkw9nVMvDrsChWQUjypbKC0E1I4YWySQVVl5QF/m/ily3sFIayu+WKeaxh1mnoUwHF3eRCvUehdXSUFknT+SbRZGG9XR7OoQ8ZQpimEWWBLblokOa7zlSN2+wMPunw5Lf9mbUyQvjR5tlqaCCrbmHFCidJLNUwGmVkbJ4mQpLS7tDmVZSPEHq1i6WxVaf0Qilc2TjlkUqPHaHMq1kZrm1zsofTlCPzsopn3A1vkSHHvs5q7DG2nu8QUjvQ9R6OjDVqX10hzKtQCoW3CPr182J/m44x9d6pnt/XaFMK5l5jzzubpEsHSnFCYUyhXFnAIAcQYtZhrkuWsxGLZIPVUDSrWO/ObTbNQ5Jt/r8nQoYOjgdkl/s3eYqCBHZ4tIhLx3+P+GWtSlWZUC7CMU7h38pj3tqTpjWEn1XbfMlT4ucaWlSoea4Z73kt2e3eulj6FDP/R/1nNmWbv2arIKW9Z6Rx2dz1n2n45DcVajeX+3vLyLO0ZT8054WsPD2rNeq9ww/57QQqvdpT7RFqoecsvRJlqF39j1TW8ysroyP2EGpdec2Wb693TyRQpW6VUsHKK1Tmjbvku172+3WI6sVSwcmdf+g0+LkUM9tUc/pu23NUv/ivnDrltWipcOTfqCeW7V6X0RLlmnFEvXcawVW0LJarRoPS4v1HkVSVSmyW+1HN2d7pnVsv/NaRe3nYrWfC9V+Nm2ul2f3muWaOb5WFaBEha0SqyXugNpX/d66tU8HS3U36vgcZru+xwEAQO6gxQz975ttUvvBL2Vhsw4R7ovx0/LqiXr5RYe+XyS3BLUq6QCyt97T3fFT9Z72euoacai3dWjK+LkmlOmL8m0R3ST1NrfJwg82R4Q5l55sTwWV9SaU6e6I4VCmnf9YnmveLC9ZlQgny89jtGLpUKbDynSfcxTULbGlXQc488CiXqv2c2GzLq7hfg8k7Pg+eXZ1vdQuqe+bUKaESkbYd3TwWLJVhRoTyrTjh+XZF5ulVd8fPdLTGlW1zIQyHWhUYHF3OWzZ+4Ys33zMfuBbMMMU05AJKsCNUGFKhU7dlTD8Hu0RoczZngpVa9Q+6i6Lru3p/dxq9rO4xDsWzzm+Et0CpsJt7WrdPdJ5b7WdRnN8QXTrmf5J4Q8AQI4jmCEtwuEif7Q8MOpueeG2OtlRXicfVj4lv7J6GhbKxGHWKyKowKNbhcwjtyMXTFLyGC33FpmgdChGS0lg9cAebm+Y6ebXsSdgUurT8tzJQ9a9UNFU/26XWoeecDmxMPVpx2fWBWto3N/JC+NvlykJdJNE5rC7FHbKjhcDWoOOn5E2czesdI5U61YmHeZ8W5m6+RbMcMKOCkttm+0wGFuZ3GGNtdPdKuusYihRt7Xlnu6JDvv4dEta7BZHq6ujn7F2N00KfwAAch3BDGmhC2O8UP6UfDhjqfxKj8XS46giJihOjVEy0eo62C5fBLQ0pdKUoXZrQcuFGPN3XTAtInq8nLUgWsz1I+k5uz7YK+90Fcpd4/SYMnVeVcD9UAVdglqmK5IxVsOp/ziwIKHZdjfF1uYjga1IdktVp3z5pf3Yw4Qd3T3T0+0wiKmK2HPO8R2T9wLCn3Msba3+z1dZ4+QCjgMAgBxCMEP/s8ZnmcIYXYfknZON8osPNkutuuk5rZwugugBFc4e13OCWZM6q3Pa1SEtKug6QW3HbSqgmZcik5guhQe/CK4q6NOVz2llO7A/qAXKTMgcEPicsBO8vpfTHVGPH9PdOmPdvK1i5vhiFOhwjsU/eCUXXAEAyEYEM/Sz2+UFq2iGLqZhj6F6/MTH1jiqTwO7E6ZCjDFrfSA0LKispOJ0d+xqlyPWghRS51CPmXu8uV4WqpA7/YNGFdLU/hRWy/qUVmZESpiWqMBufEpVtd1FsGdd+WIFouTDTuT4sbiclrbA8WHx9iWB4AoAQI4gmCE9uj6TNz1FOByj5RZzLzU+ll1WC1yhPDw5oJS+lj86JS1KzngvKZwbUBJ/tDyhqyQqLe2f9LiKoZ8po2K0hp3/WB53xrTFCov5pmtp5VOyIxsCXIxuoDH1dL0+nmDaaYkK6sanKxra86jproDWEpcCGTvW3PXQlQ5NYZBYhT96UGa+pfWs9bOkfFLgVAmhyuhpFMItbYGhMs6+OK2FAABcBwhmSI+hlbJej38yD+3S7otkhy5Rn+KhZq+e3GtfnKptNpQvkidGuYOH2e6MpdJw2+1mWS+c/4P8xgmCev4w97Z0ufxwCf5D8ptUVErUVSDL7LnRrO6KKmC6TdHzt5my/rHGrT3gmghbFxFJZJ619PhGjoarWrq+P+o4H4i5z8mtp1urnDnFShbM859LrBecwhgVS3XwK3MFGx2uFofL6Ddt9k6gfKK10/pZsXS+VLn2SU9OvXKdKT+v+LbEJVPlcO8X0qR/Fpdbc5V5tqlL5Vvzry2Smkqz0IjdTVFxWgxjjJWzzKyQxSr4Oextqv0wjwEAyAUEM/Szj2XTSXsQWUiPf9JFKqybmfxZz+9lWnhSxhTHsMOZPYG1vU33djvkpZMfWy/vrVc/c0riF8pd7m3pyaKt8KO29YF/pcceU8e26rBd+MOeTNp9bE+px878bXtlVU6UzD8tb7b7fH/Ucf5qXKxgnex6fcl042vrlNY2HfzukfXhKof2pNGaX4GOlu1NdlCKqJJoTU6tS9rv1MEtYAyZU/gjRvfJaIflWaf8vgpnnm2uvUcWqn3V86Bt9+xn/C6TcVsMjx+RA1ZJygJZqIKfd5vlckdEEAQAIJsRzNDvPj1RL7WHD0mLFV6MrkPhMWevupenig5ne+3CGJ7tqpDU0tEotXqespRVbTwtzzX/Uh2jDkxmkaUvtqXnVLMLf9jbs8OHQ0/irc9rvEmVdauis68tJ/9PSvcv1azvj/4czWOLPs6O2JUsk1lPz7HVZGrVt+7cJVtTWoDCdOM73STLV2+T+oMqoNlPWFoPNkv9mqD501RQWvOW7FDrhKmAp0vSr1r9hukW6B+I4oahIHvfkFq1zSa1Hbfwfup50MwyW/wuk3Fb1KRdtqpz4zlOpVVPUq22mVBFSQAAssSAadNnXDP3s8L48SE5cSJmp5esluvHB8AonSMb15Zbky731eTVAAAge9BiBgBpEG/+LgAAcH0hmAFAGsTvxgcAAK4nBDMA6HdMnAwAALwIZgDQ73o+lxgAAMhtFP/IMBT/AAAAAK4/tJgBAAAAQJoRzAAAAAAgzQhmGYZujAAAAMD1h2AGAAAAAGlGMAMAAACANCOYAQAAAECaEcwAAAAAIM0IZgAAAACQZkwwnYGqltVJ3UzzQDqlte2sNL74huw+bhYBAAAAyCm0mGW8AikpniB1a+dLlVkCAAAAILfQYpbpSstk8SP3yMLiTtmxZqtspdUMAAAAyDm0mGW644fl3eZO8wAAAABALiKYZYGW1rPmHgAAAIBcRDDLAqGSEeYeAAAAgFxEMMsaZ+UU48sAAACAnEQwAwAAAIA0I5hljQlSt26OVJWahwAAAAByBuXys0KRVC2bJ9UzC6TELGnduU2Wb283jwAAAABkM1rMsogTygAAAADkFlrMskHlfGlYOkGk7ZjUv3hAdh+npQwAAADIJbSYZQG7XH6n7HjxDUIZAAAAkIMIZlmDcvkAAABAriKYZY0RMoaKjAAAAEBOIpgBAAAAQJoRzLJAS+tZcw8AAABALiKYZQG7+AcAAACAXEUwy3SlZVKzoMA8AAAAAJCLmMcsA1Utq5O6meaBo61ZVq3eJ9fZDG4AAADAdYEWs4zXKa0Hm6X+RUIZAAAAkKtoMQMAAACANKPFDAAAAADSjGAGAAAAAGlGMAMAAACANMu6YMb4MgAAAAC5hhYzAAAAAEgzghkAAAAApBnBDAAAAADSjGAGAAAAAGlGMAMAAACANBswbfqMa+Z+1qhaVid1M80D6ZTWtrPS+OIbsvu4WQQAAAAAWSQHWswKpKR4gtStnS9VZgkAAAAAZJOsbDHzKC2TxY/cIwuLO2XHmq2ylVYzAAAAAFkm+1vMjh+Wd5s7zQMAAAAAyD45UfyjpfWsuQcAAAAA2ScnglmoZIS5BwAAAADZJ4fK5Z+VU4wvAwAAAJCFciiYAQAAAEB2yqFgNkHq1s2RqlLzEAAAAACyRPaXy7cUSdWyeVI9s0BKzJLWndtk+fZ28wgAAAAAMldOdWV0QhkAAAAAZJPcaDGrnC8NSyeItB2T+hcPyO7jtJQBAAAAyB45VC6/U3a8+AahDAAAAEDWoVw+AAAAAKRZDgWzETKGiowAAAAAslBOFf8AAAAAgGyUE8GspfWsuQcAAAAA2SeHin8AAAAAQHbK/mBWWiY1CwrMAwAAAADIPlk5j1nVsjqpm2keONqaZdXqfdJiHgIAAABAtsiBroyd0nqwWepfJJQBAAAAyE5Z2WIGAAAAALmEcvkAAAAAkGYEMwAAAABIM4IZAAAAAKQZwQwAAAAA0oxgBgAAAABpRjADAAAAgDQjmAEAAABAmhHMAAAAACDNCGYAAAAAkGYEMwAAAABIM4IZAAAAAKQZwQwAAAAA0oxgBgAAAABpRjADAAAAgDQjmAEAAABAmhHMAAAAACDNCGYAAAAAkGYEMwAAAABIM4IZAAAAAKQZwQwAAAAA0oxgBgAAAABpRjADAAAAgDQjmAEAAABAmhHMAAAAACDNCGYAAAAAkGYEMwAAAABIM4IZAAAAAKQZwQwAAAAA0oxgBgAAAABpRjADAAAAgDQjmAEAAABAmhHMAAAAACDNCGYAAAAAkGYEMwAAAABIM4IZAAAAAKQZwQwAAAAA0oxgBgAAAABpRjADAAAAgDQjmAEAAABAmhHMAAAAACDNBkybPuOauQ/00gAZ97NBMmakSNd7V+TDPXy1bEVSVTNLqssnSEmxWSTHpH7JG7LbPAIAAMD1LetbzIZNHShlKgzM+ae88G169UAp+r55AXpAByt1Dn82UIaZJT3y/QEyUoUybegd6jOw7173qpYtkroF7lAGAAAAeGVxMFMhonqQTLtvoAoDA8wy29BJA2XSTwdJ2VSzAP3j62ty5ox9t+u9q9Ju373OFcmY0fa9ps3bpHZJvbnRWgYAAIBuWRrMTJe5STqQqTDw+hX56J8vyz7rdkWOvHdNutRrRpZ5Axv62jU5+a/250A3xghtzbJ9L1EVAAAA/rIzmE0daI1j0kHgyL9dkcOfXJML1hPaNWnfc0U+VMv3NRIOemqo6YoIAAAAoP9kYfGP7gITZ16/rEKZWdwDelza2Dm6C6RZoMJc15Gr8rkKct0Bz2G2J1flo3+9qp4fIEXVKhhOGiBDzSvsdfVzbsmu5/J99R5/q/bTvc6Za3LqtSvS/rVZ4GuAdYy3ztFBy2k1DDjGqYNk+hz1/okEsiPusNv9OfhJpPhH/3wODvX6uer1t7qP1Wzvj2p7Mc9n71Qtq5O60c2yavU+aTHLAAAAALfsazELF5i4Jmd6HMr0xX2eGZdmFlnUxfqkQTLtnwbJuKCiISrgDFPb1oVGJrnCgKbHtE0LKpiR5HrD5g6SOT9VQSRyHfV+k36aJ9PnBnTTNNuadp8OIO7XBB9j/7eS9ffnYF5/hz4nZpHFbE+PRww6n6lSXCDjzV0AAAAgUva1mE1VgUWFDm/rTWJ02JmmLs6tUPf6VasLpEVd6I+732n9uSZH/vmKq3BFZMvQNTml1j1p1h2m9keHIM3bgpfseopzjHo/37sqX+7pbkHS692qQ5d+v3+7Iic9LT0qgKhQY21St6zt696efs5qMVLH3xXY0mjWP+O0SvWcc45jtZj17+fg2p46J0c8rY1Oy6J67vO+K+9vtZjNpDw+AAAAgmVdi9mwQnOnp76vLsBNGNCBJhwGtK910YorcsqqKDhAxgS1nugLexUWusOOyIVPrsiRI/b9oYWpWE8FEB0UFF3U5LArlGl6vQ9f1+8zQEZO9m5vmApedijTwcq7PX3cztg7/1DWT9L4OXR9fjWiC6g6t/p8/mtfFSspklDNfKmeqe62dcoJeyEAAAAQJYvL5fdQken2duRqRCuTQ4WCffbF+dBbB/h0h1NBQre2mEduFzpiXdT3cL3vm66aKlx9GRSgPrkqOrt493OAFKrH9vZitHap8JNWafgcLhzSVTrV+90x0OqyOKyv57grnSMbt9RJw5ZFsl7PX9Z2THa8yPgyAAAABMu6YHahw9zRY43M3UQ4LW1dzvp+2u0L+J6+d0o5wWXkQJnmmjTbezPdFSM446e6fANPZkjL5/D1Vfnw31SYPaNC7x2DZNpPzXn8mT22rK+DWqu6nbLvAgAAAL6yr8UsE8ITso8KZ4f1HGv/Zs9zd+aM+h6p75AT1KZXp/D7dHyfLLcmkd4m9Ts7paR4gtQ9MkdC5mkAAAAgUvYFs6/1RbW+E2MMUgxDY41Rc1qr1EV7MoUvUsIJnrq4SXjS7IBbQIGOob1tAeqH0Ju2z0F9f/RYu8P/ekU+1OdQBTX9fdLVGW9N4vsUW7vs3r5V6g+qu1RlBAAAQAxZOMbsmnR8bsYg3TEwuKy6rvA3tftC2xlnJJOC1ukuutGl3j9twcwJnoH7GUStZxW/UIH1/oDS/Zo6L4mErl6HuwDp+ByGqe9B4DGr833YGdOWbGEZAAAAoJeysvjHhT1Xuyv3mTmoui+81f2pg2S6ngPsPtfF/9dqHSe46HVcoc0KceFS7NfkVB+VTU+MU/zCdWyeAKPL3qvj+6dBUmSWONr/eNV089TzeQ3yBFP3eZlW7V7u5g13Re7tqnNU5Hm/JPX356CrQN6njlmdL6u7otqGmzUnmimzH3PcGwAAANCHsm8eszD3RbwfFTJ0uXlPZcP46/jNDWav4/eczX/urmTXs3XP9RXgjHrf13zeVwWR6T8daHcF9BW8P5aY60fOLRYt1jF168/PQS2fOlDGzomczDpCL+Zui61IFq9bJAulWVatpjIjAAAA/GVli5lNz3l1WT56XVfbcweAa9J15KocURfv0fN1udcxiyx6nSvykZ4bKyiw9LMLe65Y459OHTFd/xzqWM+o4GHNU+a3r7oCoToOXeCiK5ljtCoY6nFX3lDVpYOgOm+xQlni+vdzuPCJXfgj+rviHJc+n30RygAAAIDEZHGLGZANaDEDAABAfFncYgZkkeJyqamMHBUIAAAA2GgxA/pYqGaxrF9QYB45jkn9kjdkt3kEAACA6xstZkAfa9m+VVbtPCatbWYBAAAAEIEWMwAAAABIM1rMAAAAACDNCGYAAAAAkGZZF8zGjw+ZewAAAACQG2gxAwAAAIA0I5gBAAAAQJoRzAAAAAAgzQhmAAAAAJBmBDMAAAAASDOCGQAAAACkGcEMALJAUc0G+cctv5P7Ks0CAACQUwZMmz7jmrmfFfQ8ZidOtJhHuW60PFG+VB6WvVLb/Af51CwF5yVnVK6Qf1xaoe60SdOaFfLucXtx9por9215VCaaR4EObpJfP7/HPEhESO5c94xUFOfKeQIAAJFoMQOQJips3K9DmVYsBWPN3WxWOTt+KFM6W0+ae4kaJwXF6kfbAfmcUAYAQE4imAFIj8qH7Bagza9Ip3pYUBKyl2ezvRvk10t+Er417GyzFh/d3L1M3367vYet/qVjpED/PH1K2q0FAAAg1xDMMtoomTjU3IVLL85L6RxZua5OGrbUycaaIrMQ/c+0lukWoL2nrGCWiwpLrGYu6fzSfpy0sXYw63lLGwAAyBaMMcs0oxbJjnGTJZRI8OholOmffWweuOTfLk+Mmys/KixUl7+2lq5D8vbJ3fLcN6fNEq8p41VYGSfy0gf18tx5tcDvPdT2VqntRY7pmqL2eX2cfW45uVkWnojYdsB+/ubQNnlV74NbKs6LUrWsTupmmgcqDuxYs1W2prRrmBkLdHqT/LpR5M7qaqmYqS7O25qk6cUN8q7MjV4Wuf3SkEyufkx+qF5jtZJo+rWvvSzv7vX57pfWyt+vfVAKAsctOeOTmmTXkg1yyCx1FFXWyuz7Z8nEYh0iNBUkDh6Q9xsb5FCcc1NUuULuVQHL6mZnaZOjOxtl//Y9sVt2zNgy3ZL0+l4zLivOuCtd/KJ2gXSPsSpV6z1S3b3f6hztUufTb5+T20/1OSzzfg6dB1+xz8tYvf8lccZ7OePN/M97tODtdczWx15szpd5EgAA5BRazDJQQuHD12h54rY6+XBGtTzsCjtaaOhkebhsqbwwyiyIQYc03/dQt8hQ9oDaXkNZgoHJJXAbaj9/NeMp2TF+tFnSLfnz0p/MWCCZLfetfdQOYFpxhUysXqEClHdZRfVc+76hA8Tfr31G5rlDmaZfu/QZ+fsa99ky4ramOOOTTkmHvaCb2l7t0gddoUxT2575oMxbu0Huq/TZnkWFjnW/U+u6w45WLBMXPCq162oluD1SrasLfrS9IvutkHFSOnWPv9FjYqzjtD61yhkVhKwKhepcevZb340KSUnupw67W6I/h/B5+aEeG2fvSyCn++HB/fFDWcztrZDZ5Xrnm+QLQhkAADmLFrOMdru8UFktd3UlWH1w1CL5UIUku9Vpt7x63mmhGi0PjP87+dW4QnX/kPxi7zZ51X4izG4xK5R3Og7JXYWTRdR7/CLiPabkn5ZP3S1ZZnuiLvdfOvx/wq1xU0bdLevLKlXg8t+We713Tu6RTSe6W+Gs1jcd9PR7Oq13UXp4Xtx0V8ZHyqVCXee27twmy7eneMSO03ql7x/cJA3P75F20zpkiVzmbiVyva5TLX9Tv856FFJB5CGpXaCfi67KZ7ckxWhNCWxR6670d3Tzf1frOv+u1PYqH5J7dZjx2V53S5Bpddqv9tN5vnSu3PmICp/q/AbtT/T+xm7Rs5nXyCvS8NoYK2hZ56jR2XZIJleqb7enRTHZ/XTWU1R43PVid8uh1fJmnRdFPdewuiG4xc18np07n4wzpixF2wMAAFmNFrNc8s02qf3gl7KwWXcFdHcbPC2vnqiXX1jNJUVyS7610JcOZbrb4XSf9/CEMmXKULut4Z3DKkC5ukh++s0fZOFhfXk9WeZFtdCNlifG6VBmr/e4K5Rpn6pjsNctlB8VRrea9drxffLs6nqpXVKf+lCmmdYr6yLaCVZfmjFU7mVGdyuXujhXF+CaDgq/9byuRdq3bzCFJIpl4mxvK1bccUzxWtTaDsh+T6BR29u7QX675EnZ5dNVb/IyHSJUiFLPva67ArqfP75H3n0xVjGPuTJbhTJv60+LnHF/1Xw5LZGzVFApUedIhR19jsLbbokIZcnvp72eooOsCkLurpHWedncZD+IU4ijqKTE+tnZGiuUJbY96/tD4Q8AAHIawSzHhMNT/mh5YNTd8sJtdbKjvE4+rHxKfqUbzFTgmTjMeoW/jsbosWC9UDo0IlzlT5Uf6S6JXXtl0zf2oijffCrvqB+hoqkyxV6SNZyL8aOvuVo2TDByL4u8aC+qqbYuznXrStAYovb9B0yQGGcvsIRkpD7FMcqoT7a63fkFBBOIih+Ue5fNlaJSe2k3FXai3nOu3GKN0auQeWt/Z014HHVzWgx9dB/nyz4tYyUyMmofDKdbYHGxdG5WQctvrJ1HkvtZWis/1OuZEB3L0fdjPR+SWxPpfpjg9mIGawAAkBMIZjlGdyN8ofwp+XDGUvlVWaXcpcdwDbUSWUJaLgSlpWifdtkx466yRfKAuxUu/3Z5weqqKHK8KyLkDStSl6zK0EppUGFRB8boW7XcZb04+/i1XtnByLvMfl33Rbuz3tH98QJHhNI5MlGvGtiaYoJbQIvaoeeflF0H26Rg5qNSawWYDXJfjQpp5vkoCc7T5a+7tez9iK59Ha12a2DgXGZOq1+M4OqR5H4WzZ5lb6d5X2DrlB2qY7RQWmKM63NJfHs6mPXwuwEAALIKwSyXjFokDTqMWS1Sh+Sdk43yiw82S626Td/7S9OVMYW+2Wbe0y7YEQ5WM0yw6mgMbhXLSU4rjbsohBOM3MvM68IX7X6v8eHXJTFeN8W4ExO3qHC2Qn69RgW0nbrLnCmKYQW06K6I4RbBzd55ufxukeOqwl32dCtWROuVHnMWixNuEw2uye5n/IDstIQlWPgjTvfDxLdH4Q8AAHIdwSwbDC2SSeZuMKeVShfisMeI6fFbepzYp56xYqlmRwvvZaUu6tEotT6l9eVCu/1aXdJehcWYt3iFPRI6L/3ItwqfCUbuZUlNFhyy5/1S3C0n8VpTipyWo3jbOq4C2nY9rkyFlTWb5GibDmiPyZ0BXQt7PBm002UvDv/3TTC4+kj9pNWJtYTFD8yJSnB7AAAg6xHMskLsgh0eXZ/Jm75zlY2WW8y9lBm1yBq39pIuOOIJVdFFPcLOfyJvd6mfhXPliUSPKVAPzoujLyeY9rsYN8EodiuXU/yiQm6ptBZEKap5zKogqMci2SXmbX5dJx1W9UNTUCQ6IMyV+/S4MvPI4/geef01XeAiumthe2ur9bOgfE5gd8eiylDUc5OruytV+rVa/doU1PCOn3P0PJwku5+2oC6Vep4x0+oXJ+j2rIWv99sDAADZj2CW0T6WXdaVaKE8PPnuiHFcuriH1YzgNbRS1o+/3VU0Y7RVgn5H+VJ5OPGhZgmxqzIWysQeVU88Lc+dtKsuPjyjTl7Q++oJV7q0v9rfykXygFkSLYnzYlRV26XytZIF82RxULGJJPi1XiW67ND7djCZuDRi7jBd1n2ZXV5eX+g3vehXLr3Ymg8tHDL0xMt67i61ztGDeuyWd1uaVYRDjytbZ2/PE1D0+qZ1Lsre/XJU/yx+0JoDbLLr/BU5+7r0GZntDpjh1rIm2RVU4MKpXOk3l1kyLYzJ7Kdij3XTn8MK7zqVteqc6nnG7MexW8ISb+FLzfYAAEAuYB6zTJd/t+yYoecE8+OdJ8yZi8yXnpdMXdX+atxkeefwL+XxiLFfzrq6VH7CVRlj7ptNz6n29sndnnL6Wsx91dR6Lx3aFjCPmdKD8+JWtaxO6sJd6jplx5qtsrWH3eOCTF72O3Uh7Z33y17mnp8reM4u+7XmQRS/+cQU19xnXvbrP5+tQ52KRD7rOvOJBTpo5lwzD8MCt2nzzsHWfVyx5/Myc3np6oSRc3UlPB9YhB7up83sh3nk0aY+s+YSmRd1Pp3P1DwM4ndsSW0PAADkIlrMMt35P8jCDxrlnS5vJy4deF46vNsTPj49US+1hw+p58wCzXqdmZfMvTwVzn8iv+mI3bksNHSyPFy2VF6ImM9M7+t0dVwvqfU9l9rqOK3xaWp/A0OZ1oPz4ra7sVma7EYKad25K2WhzL+VxCzzdMEL7pZ36PmfSIOes8rsn6WtTY7uVAFpScCF+d4NVlXFbt7X210d/Vtu2rfroh+bpEmtb7VWGZ16m5uf9A9lmtqmPQ7NvV0ddF6RXWsi5mBT4cgKmyqUvBkzVJ20j7t4jETG9Xjj6AL1ZD/D9sjr5pyEOedj9QbzmUWeT/OZxuPb4pfM9gAAQC6ixQxJGi1P6O6RsleFqKAiHaPlgduWWuPQetQSBwAAAFxnaDFDcsxE0S3tn8SonHhajlyIbBcCAAAAEIlghl4Jjfs7eWHUaFexEduU/NvliduccWSH5De0lgEAAACB6MqIpD1w21NWN8WY4hXxAAAAAEAwQ+9MGXW3PDruNikdWuipkOhUY9RzqsWcJBoAAAAAwQwAAAAA0o0xZgAAAACQZgQzAAAAAEgzghkAAAAApBnBDAAAAADSjGAGAAAAAGlGMAMAAACANCOYAQAAAECaEcwAIFOVzpGN6+ZLlXkYKVSzWDYuKzOPAABANmOC6Wwybq7ceH+1DJ5WLHlm0eWPXpFzmxrksnl8vRny6AYZrs7H5Y82ScemPWYp+owOCmvLpcQ8DGtrllWr90nP/mUWyeJ1i2RhsUjrzrdk+fbDZnlq6NCyfkGBeu9t6r3bzdJ0cY61U3as2Spbj5vFsVTOl41LJ0hJ2zGpf/EN2e2zjnOMcvAtqX0+tecvviKpqpkl1eVqH9VnaFP7ukTtq3kEAAASR4tZthhXK4VPPir5rlCm5U17UAqfXiFDzONslFe9QW7elMQxqHOiz4eWd/MYz3lBz4Qq58jKdYulYUtd+LZx2RypKjUv6Aulk2SWuaAvWXBLYKvQdUkHYB3KdNBZ7R/KtJbtW2XVzk6RmffIxpois7R/VC1bJHUL3KEMAAD0BsEsK4Tkxv/6oBU8rJahR38iX5lbx5YmufjBy3LRfmEWCsmQGerK7qtTPW/1O7lPLn2l77Spc7Dvum017J0iWbxssaxfWi4VxQVmma1kZrnUrV0sKyvNAu34Plm+pF5qw7e3pMk81WPHj8iBNvtu684vaGUJU5/JI7pVUreuxW990uGs/qAOt/NkcV8GaY8iGTPavte0eZvr+0BrGQAAySKYZYNxc2Twzeqn6a7nDiCX39sg5xqzuWvnOBmkjy2ZYCYt8t3TOqCuyPJzkC6me91MHcg6rQvsVeEL7G1Sv/OYtEqBVPywr8YwtcvW1fb2Ut2NMZuFauaZ7p27EuvyqOx+XgfkAln4yBwJmWX9oq1Ztu9NdzdRAAByA8EsC+RVzLJayy425+AYqjtmW10Yc/LYMl3lLCsAWOOC1myVZ9UFdne8bZfd29+Q5Wu2pWHs0vWsTGr0mDEVeF7o0bi4w7Jdd2ksLpcadwsnAADIGhT/yEhzZfjT1TLk5niDN5rk3KMbursxWuPQHpS8jzbJV76FMEJy49PPSP7NEes5y79y1gvJkOqHJP/eCleRkU1yLqK1zi1v3FwZklBhkkSPTYvYzztWyM1LKswDl69ekY6nEyiAMk4d1/2PecfpfdUk5994Wb57z+871fvzkgw93qvmft210CyQTmk92CQvqIAUvZem1Uuc4htFUrVsnlTPLAgX6Gg9qC7yn48szOEUo9Bd0epVKDOLe6xMVm65RyriFv/o3p6fxAp0FKlzM0sev3+ElIS7XQafm3jFP6qWLZY63Vp48C1Z5XduS8tkcXWFzHKfy7Zj0hhQiMPm7GP32Ct9/hsb94lU16ntxSn+UTlfGpZOSK5giVOYpZ8KgVQtU8czOpmiLwAAwA8tZplo3BjJSyi4RCixC2BcbjtpP44S0G3QdJW01tPhbtMzMtwVPrS8aY/K8Gq/TlIqrKjwFFiYZNMGuXGcWaD15Ngi9jOvOKoWoOVyAuPL8lSoK3xSHVfEPsrNFZK/5Bkp9Du2Xp2XZOjwUmfGe5lFFhUMZt4j67csDh5DpILKeBUkVqrwo8OG+0zpsWLr10V0cQsX3jgm7yUdyvqRObb1uiCGZyxcAufGhw5tsUKZfr5h7T1WN0/PuSyeIHVr6wIKbdjh095Hs0hxxupVmzFZsVT9cIL6b6cc2J9E90BnzN7Mfiykor935i4AAOgdWswy3lwZvulRGZJAq5Cublh4b7Fc3PITOfeeWegW1KJmWqIuf6Wu6lRoyvuqSc79j5fl4kl9nnXw0oFG3Y1qiXNa4PT9NrXd/y7n32sx++hqXQrc98SPzZfZ78Djdbha2rwtXCF1zh5S50w/1ybnn1kh37kzbdLnJTnh0ufWeK9dVtdCi265eUSFBBOkvOXII1uiOmWHWnerWTdUOd8KCpqnZcy0zPS+zHqiLWb+4rVq2cw29N22Y7LjtQPh49PHb5VsXzBB2iJa/oLeO3yeg/bZOTf6c9jZJNu3dwc3fT4f18FLn+eIli+rBWmmvuf9/ELq86tRn58dtmO1mDmfZfIl5+1jk8RL8veCfbyUxwcAIFVoMct0uoVJ/0ygOEZesb7ya5MrrfbjKAEtak5LlNWS9eaT8tXTG0z40Frk4muv+G47r/oxO5TpYKULcIRDmabWa9wgHc+oIPQ/AkJXD47Nj73fMY7XosKfCWU6wHmLp6j91fv4pm5mKJbBFd6Wr2TPS1JK58jjJpTpi+pwKNOOH5atq7fJDquC4QSpDiqLrue7WqIuyF3rtux9w6rYpxWXdK8XKhlh7mW+UE2FCWU6SL3hOT73WLhEumPGDWU6HN3vBFn1ObhCmabP5/LNx9S9Apk12/U5qM+v2oSyyM+vRX1+z4Y/v1hGyljrn3CnnLAXJKlAxo41d/tEkTqP8+3j7fW+AgAAB8Es08XtnugIqQChfnx1QIUHe0mkIeWm1ajNezlqBzodXJ6UjhjVDb37MFfy79XrNcm5WK1dJ/cE7o9zbMkV/giZMvvBx6vlVVdbxUUuq2AV1Kp2uemAtf95xe4+l8melySNNV3mDjYFtHS0y9bXdCBQp618kjr6SCoQ6LFP5pHbidZOcy8bFcmd5SawvhijRe64O6z56w5lKsAGte45XTxVcNseFPT2fmFNEeD5HOJ+fv2jpfWsudcH9Bg2a467Reo8TrAmvo75mQAAgB4hmGU4O0y1yaWmOJc/Tkn9wNYnE9yiWpic5U1yybcAhgoopiqkJ9A5rV0f7U96DjXn2GK3eAVJrMy+04oY9/xFSfK8JMlpwWptPWP99PVlp1inKgXjesIX8KNH+oS8TGJakeSsnOpF4LG6dFotklqMVh4nYBWXy3rXZNvem+lW6ZLQ55dj9HfxlH0XAACkAMEsoznhoFUux2uUSbjwR2QLU/yA49tFMuGWvCA9ODY/CZXZT3AbvseS5HnJFikMeRmvfJ49zq6tWepNSfn1y/pqbrb06tMuquHJxfUcd512IZT+njcNAIAcRjDLaIm1CmnOeKig1ps8E2Si3itoeVgvA1Qgc2xJtrglNr4sESG5cb5PF880nZeSkpHmng+nNScV43qcCn6xxqxllBEypgdVF91KdBVHM6Zs9/at9pi7mffISr/5vpzAqouihCfbDrj5dIeM+fnFdUa+tIY79jYsd8qXX5q7fUKP6zPnkaqMAACkDMEsk6Wo8IdVrdGpShjRwuUEuuCWp4Bw2Go/zrv3ITvA+Bk3195/P86xJck+3nihqEUuf6V/VsjgO6wFUdwFTM67xqAlfV6S1LL/mB0IZlYElH3vLkrR2nwkBeN62uXdZnvsWcmCecGl5nVFyMoEglufXaAflves4iUFsjBW60xpUfBzEYU+dj//ljVGrGKpT4n9cMn5oM/BX/fnF1CqvtTpkhlLu5w6rX8mG0Kd8Xi96/YJAADSg2CWwZwxTIkXxyiW/PtdYUgFo+FP/84uof+RXRLOv/BHjJYn03IUNVfYyX1yyYSe4U+vkCHjXJfFeiLnRzfIzU8mMMfXtGq58Y7u1+iJqm98tDY47Fmc1qoKyXe9f94dc9V+mAfGxWZ9CS4yZMkGGe7ajj43N+r516wCJm1yPqJyZNLnJVnH90mjE0DWLpaV7jCkw1G4JP4xaezpxMMBWrbvMpUCzTZrylzhRk+UPF826rm8lsYIbk4rj9Xy5lpf7XNVUuEi2u7GZjv06C6I6+ZHBEVnPxcFdk+MDrKH5VlTWTE67DlFVlznxHMcujy/2t6W+d4A5mqBrFP76D525zxGjkvzs/t9n4qPiXIKlxz8gvL1AABkIeYxy2BDHv2dDJ/mM7+WH9dcXV72+hcrdAiRiPdy5iFrknMqpPh1KYw5N5ozL5p5GOnyR6/IuU1BFRvdc6BFizc3mbNfkfzWs8+jeRDF7/z28rwkLXJOskh+c2A56/g9Zwuaz8sWf5tW2fgYpejD1Q4jJTBHWux9c9EVAdeW2105fUUff7z3Du+3z34GHpPDqkj4hvd8x9pH9fqm0xOkYmbw52RLfl44Z58989X1GfO9kZ7vJwAA8EeLWcbq4Rim9zbIOdMqZmuTi29usuYX06HDv+tfLwtcnGxQ7/+ktV3P+l81yXldYj4wlGkt8t3TT8p5zz6rMKcncX4mfti53PjffY/X3R3RcXHTT6RjS5Pp1mh85T0/Xr08L0lrl62r62XV5mZp8pyWTmlV4WGVnqMs8II+We5tusvq6202S701J5dZFKBl+1ZZtdN05XPo4PJ+CisUWoUndNEJtZ0UnZtwi6E13szbQqWPqXbNW7LjoBlz5lDnqGmn2p6eTy1ye3ofzTrdul+/PaFpCw7LdlOg5PEejf0rkxodJGOV+QcAABmNFjMAyCjxW0EjVS2rk7q4rXGpRIsZAACpRosZAGSUdtn6oh5Xp8e5RYxl86G7MNbNFGnduaufQplLcbnUJFIcBgAAxEWLGQBkIl00ZOkEKWk7JvWr3/At6BFrnFxf8x+Hp/Z1if++AgCA2GgxA4BMtPcNWb7GVKSMUeFSj7Hr71CmhccWeoeJAgCAJNFiBgAAAABpRosZAAAAAKQZwQwAAAAA0oxglmF0V00AAAAA1xeCGQAAAACkGcEMAAAAANKMYAYAAAAAaUYwAwAAAIA0I5gBAAAAQJoRzABcf0rnyMZ186XKPERmCtUslo3LyswjAABy24Bp02dcM/ezgi4nf+JEi3mUe3L9+BBH4Qq5eWKFedDt4tGfyLkO8yCddKBZWy4l5mFYW7OsWr1PsuKbWzlfNi6dICVtx6T+xTdk93GzPJsU5svGh4ZFfw5nL8iqbeeDP4dk10sTHczWLygQOfiW1D5/2CwFACA30WIGZJC8IVGXzEqTXMqEUJYLdLDUoUxUKFsdFMryZPGiUdLwD+q2KF/CMwveepO9TN1W3mqWOXTgiXx9hNDskda6G2fnmSXXiyTOp9Gyfaus2tkpMvMe2VhTZJYCAJCbCGZABrl8aoV8deAn5vaknL+oFl48JZftp9Pv+D5ZvqReasO3t1RszBZFsvgR3drXKTvWqFBmlsZ09rJPK9IV+fKMuZsuHedl+b98I7Xh27eJfQ7JrpcqSZxPHc7qD4qULJgni0vNQgAAchDBDMhY42TQEPWjK4OCWRYL1cyThcUirTt3ydZs7L54Hdv9vP4DQIEsfGROYIskAADZjmAGZKrC2aJz2cXOPfZj9EKZ1OixSm3N8sL2drMsyGU5ddbcdTtzRVrNXfREKs7nYdmuuzQWl0tNpVmUiNI5snJdnTRsqaMrJAAg4xHMkFZ5w+bKjZM2SOGs38nN5lY4qVZijsIZFpIhEevcfPsKubEwcHSP3Hi7es2kueHHQ8asiNjm3MBt5hXWyvDbN3Rva5battrHIcPMC4L0eD+97PFmbXKly36ciLxCdVz6WF37OnxM8LGlQ6iy+2LZvtmV9+KdlZAu2uFZL/oWePFdeYvokiqtzUd6VOCi9ewVc89NBY2+GPNXOFgW/3ikPVbN3DYuukmqCs3zGSJ0a76sdMaMWTe1zz8enFBLVm/OZ8v+Y1aQq/hhmb0gAVXV5VJRbN+nKyQAINMRzJAmJrT84FHJLyj2BIe8ggdVmNkgN/oEHyt4/OAZGR6xjgypkPyJz0jhGJ/Lw2FzZPAQdfnXdVLdr1XvrdYvqYjY5qMqwPisq7c38UEZMsRc3VnUttU+Dv+BCj0BISup/YyQN1Rvs1UuX7AfxzZXhUcVMCeq49LNbGHFMqTkURXW4oTdflEki1WwWr+0+2LZViAlM++R9SqgBV04Vy1brNabICWe9RJX9cMJ6r+dcmB/vNYy2wkTINo6XZ1IOy6rmKyo505YC1LHKgzy0E2yMDTIUzGxZMRgqXsoUwqG2EU81v9omFSMMIssap9DN8l6FdAWB4TIlJzP40fkgF5h5i1McwAAyEkEM6SBbsGyQ4tuEbp49EnpcBW8ONfaJJdVoMi/JSJMWCHJDlSXOzd51ulQ62h5JY9FB7qhY+z3GfmYCksPSt7FJjn35ye7t9dpvUoFoXH2nTC1nyrAOfvoLsrRcdTexyETfbaX7H56zJXBBepH537R9T9iU6Fs1qMqPKr9bFXb+7OzPXX78ya7gMiQByU/zS0vzhgvHZCaNm/rLiCy5i3ZYV2hF8jCtT5zi1XOl7qZ1smQHa71Vm1uNl3hjkm9Wbbct5tikYwZrX+elVMJji1rcQeIsCvypV+XPLcRw1RAcbcmdd/WzxhkXhThVhVqrOeuSNMH38oqV3GOVW9fso6xZMZNgaGnv4Rmq+BoBTK1n293dhcQeflb2WGdl0GyUIVLv9CU9Pn0aJd3m/U/1hEyJsGWr92NzdJkfbcYWwgAyHwEM/S7vDGPSb41eOoVFVpWyLmOFhVyHC1y8dQGFS42ybkvGlzLVfgw83vpOb06juzxrHNZr9Oqr8CKVaDxtkY5JejzdKtXqwpYH2+QixecDm1qe62vuN7Lx8UDcl7tYze1vQ61PR3q/rxCvvO0aCW/nx7D7DBptfLFMWSSCmWiw6Y6l6fU9tz7c2GPfPeFfXx5Q+K30vWZ0jnyuB7jZVVE3CrP7nUFqOOHZevqbSacTZDqiO6IoRK7eaZp81bZ6lqvZe8+Wb75mLo3Qe6IOe5opIy1/gbQ2cOWroBqgb6VBZOVJ4tnDrbuNb19Rp7df8nz3i2ffyvLVTjToWfWLZ4/U/Svwnx53ITHHS+r/fzc9S+m45Js3aY+VytkDZbqwNa9VJ3PAhk71tyN5/g+eXZ1rNAOAEDmIJihn82VfKs/mgoSH7uDVwQVKC66AkbemGqrEMZlFayCJlq+3HnADiARLV92l0AdlJ6UjlPBl4DRIUgFKT2+a8iDMlyPQYtq4VKhLqKbYW/208O08l2+GO+S1bSsSYUM/4F7bJnrplsJrdem0dgCu4vewaaAVot22fqaDlkiJeWTEhqv5FZckuLCDioQ1f7LGdnq+QwvqwDyjdT+XgelAHqiZleLl/u26gOf8VWFg2WWzp1qve2f24uifH7JKmlfEkpsHFefGGm6WLacjzgnDnVuDtrnxXc/kz2fEVpae9TEBgBAViGYoX+ZlqDEuuh1s8NVm1zq7GlbRUitq3/qSZr9180rmBUYgi4e0V0d26wxaIVW8IldTCP5/fQaUqBb3RKYWNpUbsx0TqtXa2uMCau+7LS7JhYXyHhrgc25GK9YOl+q3F3YSstk5VI9dkyd8dYsbQ1xAk+MLpAN/3CTVbgknUIF9jfev3iH4VRZHDHI8/kBAIDEEMzQv5yWoAS66HVzwlWcQhi+723mAosxSbMTpvyrH7aocLZCvvqzCmhm7JtVTMMKaJHtAr3ZTzfzPglMLO1009TdJrvHwPnfYrUWZrS9b1gTDOsui3VrXVUY195jB5aDb8n2vfoOcp0T8AEAyEUEM+QIp1BHRMuX06IUOElzgmHqghn7pkPOnzfJxYs6oMUr4OEnYD89ej6xdFrHj/VASclIc8+H093RdyyYXaHFLvbh6JSmnW/JqucPxxmjdEa+tIb1eVviMoLTytSiu/pFd3/03Lad7+FYrNQrGRFQwERzWv/6oGqlV6d8+aW5CwBADiGYoX+ZsJFX8lBwF7xhkV0FzVgvqZDBAZXp3AVFzru6/4VblAInaQ5qUZtrjyszjzwu7LFaz3QBj0FWqHMkv58eJkwm0qp4+aIdVfJGzvHfVyWvUIVPcz9QbyfijRN6nDmoZGZFQEn8Ill8v90tMWquMasqo8iONfWy3FRftG9b5dnt8UKZ1i6nTuufiVfz6zcdl+SA7qkZyk9N1cVkuxHGWa/lC7s6ZPB+dhcxaW3xFjBJnSK5s1wPqEy8uqaeWDz8vV5WZpYBAJCZCGboXxf2ySVrcFmFDL99hQwZ5mrpMRMy3/yD6DnFLnbaZeaHTIyYO8yZoNoqKNIm5z2VHNXlYsxuiooTgs7s866ni3jocWW329vzBBu1TT0Pmp9k99OPDlvhSaz1ufGbM63DjNUb8qA1V5l70uvw5N0Tn4lbKj/5iXhNa5RVTdE1SXRpmXc82PF90mh1R9Ql8RfLykpX+FOvXbxukSmlf0waI6rn2d3XCmTs7OQLfOx+XxcWKZBZvXiPvuEUzdCl5kfKytmDJeT5rPKkavZNsvEf/MvQd3NKz+uqiK7iG4WD40xQneB6Heel0UpbZj9vdf2L0BNjL1Kfq9XL8JI07o/3zU5S6SSZpb8jB7+Q3faSuEI1Fd3f68A/CgAAkBkGTJs+45q5nxXGjw/JiRPp7tDTd3L9+Cx6kucYlQIvd74i545EB5chk34nw60KhH5U2IkqXW/Pl5Y/pEnOHdjgW2wkb4wdlvQYrcgqis5zgfQcZZ5y+Lae72ckMy+ZeRSmpxfwq2RZuEJuNiX6/ei51M757Kdb1bI6q1XKZpe0T3TOp1DNYllvlcKPcPAtqX3+sHmg6QmmnQDmJ2C7pXNk49pyu5tcgNa2Y3LgtQOecvpeZbJyyz1S0dYsq1bvS32LTmG+bHxomJToqowBXQ71JNJ6vrLWDzpleUR4cZ4LdPaS7Pj3bwMqItoC30N3k4xR+TDx9fQE004A82OX0o+1j73hfM+aNtfLswmOKYz8brbu3EbZfABAxhp08+jRT5v7WWH48BFy7lzulkzO9eOz/PVP0tXaJFeGTZW8od/rbra92CTnT/xazp36D7lqFrldPvOyXLoUkr8ZWiIDnVR3sU0ufv2/5Nxnm+XiX82ysNtlaOksybv4vpz/+k++7/k3Ny+RIUPb5FLr7+U/I9a/+pffy/mzX8uAG8bKQNd+Xlbb/M8T69R+fuQbdnq+n5FOyKWzN0jeTZMlz6x/WZ2brtZdcrHL57vR9a61n3k3jVWv/55ZqAPZK/KXo2vlL1+d8D12t+OnB8mE24qlRK3euvNV2fDHmMnR4+wnf5L3byiSqWUFEt66Cko7/t8v5E8n3e9zQf707wfk/W8GSYEKvHpbtk5pPbhX/tvqd+Q/zplFbucuSldpicwq9vQb9fje9wrktoofyIRvDsgffXuAdkjrDZPknvKJMvWGY/LmJ4kfX0KG/Y3cO/UG+Z76cN/681/F71/wiDFD5Z7RA+Uvpy/Km6e8n8jZU13yv1uuyA3D8uSmEQO7z+PZK9L02Xfywu8vyH8Etfoa+j3eH5QnU0fnudZXge7T/5Q/nQn+BiS+3lX5058vyPvfDpCCghukJPyXgyvS2vKd/Ldt38Xdx+SVydL/5wdSooL1Cy996Xt+/Zz95D9lwh0Tw9+1v3z+59R/9gAApAgtZhnmumgxAxJmWtkkVktXkVQtW2S1+MVuEXFa7HrWIoj0s1t0e/G5Vc6XhqUTaDEDAGQ0xpgByFxmXFFUQRCPdjnRaldtjK1dtr7YLK3WOLf5ccZsIVPo7oh26N6VdJi2xyl2yoH9hDIAQOYimAHIeLogiS4YEln+JKQLhyxzxhFFFw6JcnyfLN+sK0ROkLp1hLNMFx4jdvCt5Fu6SufI49Z7NNFKCgDIaHRlzDB0ZQS8vIVJAugxbS++kfiFty4o8kiBNKp1dnOxnrF0MHu8pEmWe4rIJEoF+ZpZKpRNkBL1/ahfrT5r8wwAAJmIYJZhCGZAtFDlHKm5f4IUF5tJqA2nGuO7e9v7aO4sZC+7EmfxwbfkhbiTkAMAkH4EswxDMAMAAACuP4wxAwAAAIA0I5gBAAAAQJoRzDIM3RgBAACA6w/BDAAAAADSjGAGAAAAAGlGMAMAAACANCOYAQAAAECaEcwAAAAAIM2YYDoDVS2rk7qZ5oF0SmvbWWl88Q3ZfdwsAgAAAJBTaDHLeAVSUjxB6tbOlyqzBAAAAEBuocUs05WWyeJH7pGFxZ2yY81W2UqrGQAAAJBzaDHLdMcPy7vNneYBAAAAgFxEMMsCLa1nzT0AAAAAuYhglgVCJSPMPQAAAAC5iGCWNc7KKcaXAQAAADmJYAYAAAAAaUYwyxoTpG7dHKkqNQ8BAAAA5AzK5WeFIqlaNk+qZxZIiVnSunObLN/ebh4BAAAAyGa0mGURJ5QBAAAAyC20mGWDyvnSsHSCSNsxqX/xgOw+TksZAAAAkEtoMcsCdrn8Ttnx4huEMgAAACAHEcyyBuXyAQAAgFxFMMsaI2QMFRkBAACAnEQwAwAAAIA0I5hlgZbWs+YeAAAAgFxEMMsCdvEPAAAAALmKYJbpSsukZkGBeQAAAAAgFzGPWQaqWlYndTPNA0dbs6xavU+usxncAAAAgOsCLWYZr1NaDzZL/YuEMgAAACBX0WIGAAAAAGlGixkAAAAApBnBDAAAAADSjGAGAAAAAGlGMAMAAACANCOYAQAAAECaEcwAAAAAIM0IZgAAAACQZgQzAAAAAEgzghkA4PpQOkc2rpsvVeYhEhOqWSwbl5WZRwCAvjJg2vQZ18z9rDB+fEhOnGgxj64z4+bKjfdXy+BpxZJnFl3+6BU5t6lBLpvH15shj26Q4ep8XP5ok3Rs2mOWIncUyeJ1i2RhcafsWLNVth43i+PRF+Bry6XEPAxra5ZVq/dJxvwfJKX76Zwrkdadb8ny7YfN8tTQF+frFxSo996m3rvdLE2XJL4XlfNl49IJUtJ2TOpffEN2J/pdQvizl4NvSe3zqf1exVckVTWzpLpcfXbqu21Tn+ES9RmaRwCQK2gxyxbjaqXwyUcl3xXKtLxpD0rh0ytkiHmcjfKqN8jNm5I4BnVO9PnQ8m4e4zkviEdf2NZJw5bI22KrRWFxZZF5HZIRqpwjK9ct9pzbjcvmSFWpeUFfKJ0ks8yFa8mCW2gVctMBWIcyfUG/mlDWUy3bt8qqnZ0iM++RjTX9+/+GqmWLpG6BO5QBQO4imGWFkNz4Xx+0gofVMvToT+Qrc+vY0iQXP3hZLtovzEIhGTJD/cb96lTPW/1O7pNLX+k7beoc7LtuWw1Tq0BdAE2QhUsXScO6OerTyVLH98nyJfVSG769JU3mqb6lAu+yxbJ+ablUFBeYZbaSmeVSt3axrKw0C7RU7ufxI3Kgzb7buvMLWhPC1GfyiG6V1K1rtLIkS4ez+oM69M+TxX35BwaPIhkz2r7XtHmb698JnyOA3EQwywbj5sjgm9VP013PHUAuv7dBzjVmc9fOcTJIH1sywUxa5LundUBdkeXnIJ10lyBXMFizTep3HpNW/VRxuazP5nDW70z3upk6kHVaF5KrwufWOa8FUvHDvhqr0y5bV9vbS3U3xmwWqplnunfuSrwrLHztfl7/4aBAFj7Sz/9faGuW7XvT3X0WAPoewSwL5FXMslrLLjbn4BiqO2ZbXRhz8tiy0fF22b39DVm+pjkczmrcLTwIVjnLCgBW2F2zVZ5VF5Ldfy5wzuu2NIzRuZ6VSY0eG6Uu7F9I+7i4XHBYtusujfx/AQD6BMU/MtJcGf50tQy5OV6n+iY59+iG7m6M1ji0ByXvo03ylW8hjJDc+PQzkn9zxHrO8q+c9UIypPohyb+3wlVkZJOci2itc8sbN1eGJFSYJNFj0yL2844VcvOSCvPA5atXpOPpBAqgjFPHdf9j3nF6XzXJ+Tdelu/e8/tO9f68JEOPT6q5X3eFMwukU1oPNskL6oI+ei9NK404xSKKpGrZPKmeWRAuKNF6UF2UPh9ZSMKsVxw8iD484D+gEEWP9tMpchFY1MLZn8hiDt7l7+oL7UcqursJtnVK02u7rBAUW5ms3HKPVPSkqEZpmSyurpBZ7nPZdkwafQtHOPupu1zVq/0xi3ss0f3s3p6fxAp0FKnPcJY8fv8IKQl3uwz+DOMV/6hatljqdGvhwbdkle93oCfn0+HsY/cYI/19bmzcJ1Jdp7YXp/hH5XxpWDoh7vmoWqbfS/9bOCBj1L+f7lZPHbDVuY5aZq3m0T//Hhx+BTHM9hrV9gLPp5LU5+Di7Hs/FQKxPpvRPfh3CwBZjBazTDRujOQlFFwilNgFMC63nbQfRwnoNmi6Slrr6XC36RkZ7gofWt60R2V4tV/nFRVWVHgKLEyyaYPcOM4s0HpybBH7mVccVbvOcjmB8WV5KtQVPqmOK2If5eYKyV/yjBT6HVuvzksy9MVYnRmfZBZZ1AXUzHtk/ZbFwWM71IX1eHXBtVJdzOmLY/eZ0mObkumS2LLf6dKo3tta4ujFfvbC2GoVDNaq0OIeu6XuV+jxcCku5a1DSIPalr4Y95zL4glSt7YuugBCuPDGMXkv6VDWj8x3Zb0uiOE+n0l+hvp8xQplPT6fFjuc2PtoFinOWL1qM/YolqofTlD/7ZQD+xNpLRsh1ToM6eOwqO/W/XNUKItYtjSy3H5//3sw/86jCmKY7elxjAEFOpL7HCI4Yxln9mOBmaj/BwFAbiKYZaKTDa4CH5vsFiPdKuQq+mHf3K1e3cHlclvA3xV1KNI/I4OZCXQy4zG7xe2rJjn3zJNmG0/KuY+sV6n3dycszW5R0mHHKsCx5UnXPqr13mxS2ymW/P9a2x1mEj42dYtoBbvcuML7/Ba7TELg8Tp0KFtiBypv8RS1v2oftbx7H/MGSC3p85IcZyyM/Vd510D3NW/JDquoQ4EsXBs0B5O+sNKhpVN2uNZdtfmY/XQyXY/CxSRGyBjXhWXv9jNZ6oJYXUzq1pL6NWZ71ritTvtpdUHqKarRG5Xz7ZZCfXw7VdBwjk/d9PnUYTWqAMJYc6F7sL+KbnSPJ3PfrMp5cakLe+u7ou62HfN8X9xj4caOtV8dj9OSZrWs+rUOJXM+FV2Nz+97tkp9z5ra1Pm2novFKRxxVk4l0hKkg43VQmWfB+u7rP7dLLRa5VzL1L+1O1zftf7+9xCq0S3G6o4u+x/+t2Dvn3U+1bnxPTVJfg7R2uXdZv098/5/AQDQewSzTBcUpnzkFVu/reWK1czhI6BFzQl0VkvWmyp4PK0C30nn8qpFLr72iu+286ofk3yrBU4HqxVy7r0W1+vUeo0bpOOZTXLufwR0M+zBsfmx9zvG8VrmynDT/fHilp9EFE9R+6v38U3rCkwGV3jblJI9L0kpnSOPm4sm3XXJ0zXv+GF1Ed59UVgd9FdtfaG2ZKtsda3bsvcNq5KaVlySwF/Dfbku0lOxn0myuqM9v8/V3UqP2zJlvJXUFNUoksX361YW3SVRHd92b9DQ53O5FXYLZNbs7uMLlYww9zKfdWGv71jd6N7wfF/cY+ES6Y7pCWVBXfKSOJ/6e1Y9U9+J/p61qO/Zs+HvWSwjZaz1v8ROOWEviKu7QIgTPrzLTp22FnVL57+H5gMRXQ/b7fOpAnt0t80kP4eYEg/vySlS36/59vegB58hAGQzglmmi9s90RFSAUL9+OqACg/2kkhDyu2AEtnCZAc6HVyelI4Y1Q29+zBX8u/V6zXJuVjju07uCdwf59iSK/zhlNkPPl4tr7raKi5yWQWrc+/ZyyJdbjpg7X9ky1dy5yVJ4RaXpoDxMu2y9TW79aukfJJPt0R1YajHiJhHbidaE2lFSVCv9zNZwd3Rwl0uR4/s/facLokqaGwPCiZ7v7BK2qf2+PpLkdxZboLEizHG7Bz3P9du3aHsmNQHjf9J9nzG/Z71jbbW6ON2L4v6t5SGfw/O9123bq2sKZNQIq1WKf5et7SeNff6gB7DZs39t0h9vyZYE4LH/K4CQA4hmGU4O0y1yaWmOL+WnJL6ga1PJrhFtTA5y5vkkm8BDBVQTFVIT6BzWrs+2u/pTtkTzrHFbvEKkliZfacVMe75i5LkeUmS0+LS2nrG+unry047gPT7eItO+fJL+15G72cqtudcaOupAlyTQ3tv99gtTi7hC9VUhMM+ZVqREu7e5y8U7hanxWjNSPJ8JvQ9ywBp+feg575b02x156xYoMeUmfO4To8tCwhqSX4OmUCfu1P2XQDIeQSzjOaEg1a5HK9RJm7LmhNkIluY4gcc3y6SCbfkBenBsflJqMx+gtvwPZYkz0suCRe06N1F/HUhbaE5DcrnWQU5dOuLNcZPX+ynuPgK4lDh7Fk9xtDMO9jUpr5/6rvnBLWN6vPoyz8Q9GnX3fCk6/YYUqswSX/PmwYAaUIwy2iJtQpp8Qp/5JkgE/VeQcvDehmgApljS7LFLbHxZYkIyY3z7b8Te85dms5LSclIc8+H81fvfhpvEZo9wXTTii5okUn7mdLtOQFLlwJ3FUfwvbm774ULpaR+LFHfSL5wQ4kKAM6YMj3GzxrDGFR8JdnzacT8nsV1Rr7Un0k/hOW0/Xsw8w4+u3qrHWaswihqf9Tn8bj7e9jLz8Ffd0t637DHkFrfr+vhDx4AoBDMMlmKCn/kVW+wqhJqkS1cTqALbnkKCIet9uO8ex+yA4yfcXPt/ffjHFuS7OONF4pa5PJX+meFDL7DWhDFXcDkvGsMWtLnJUnhcVIzKwKqonUP3m9tPtL34y3CRQ1Emt7vnqso6f08fkZ9O5WAC6zuynZBggoN9PC8xLvAC5cCDzq+IN3FImJWttNzSFUmENz67EL0sLxnFYMpkIWxWiFKi4KfM6HMOde7n1dhQP2sWOpTFj7J89n9PQsoyV7qdMmMxSnW0XfVA9Px7yFUGaM1TBdGcca0ucNi0t9rP844xbO0pANAihHMMpgzhinx4hjFkn+/KwypYDT86d9J4b3FcvEj6zIgqkUtbnc803IUNVfYyX1yyYSe4U+vkCHjXJcKeiLnRzfIzU8mMMfXtGq58Y7u1+iJqm98tDY47Fmc1qoKyXe9f94dc9V+mAfGxWa7HP6QJRtkuGs7+tzcqOdfswqYtMn5iMqRSZ+XZB3fJ43OBbOeh8h98a4v5vX8StaF2jFpjDtxcC+oC/Kqmvn2BLL68cG3vNX5kt5P03ohE6TO3c1KbW/xMlNEIo6KpXqeJfe6PTkv3duvjniPKs+FqlOswRxf1Jgdc362RJc/b9m+y1Ue3axrPaPpiZL1eb1HFi6NVZI80f1M3u7GZjtM6C6I6+ZHBEVnPxcFdk+MDsAqDJiKftFhL8nz6WqBrFP76D525zwmMh5q9/v2thOvNNhD/f3vQf/BZKk9N5rVXVG93i2ktrlSdzNVvOPekv9eR3G6OPfb1BAAcP0YMG36jGvmflYYPz4kJ07E/bt4Thjy6O9k+DQVGp5ZId/F6y53xwq52bSKednrX6zQIUQi3suehyz/5iY5FzEnmsNqbdPBbstPoqsa6kmX9fxe5mGkyx+9Iuc2BVVsdLZtHkbw3Z6Ls1+R/Nazz6N5EMXv/PbyvCRNXZSFL+T82CW5vdXfnHX8nrM51fOscvPhi8N421IXdgeb5YXn/bo1JbOfirqgbjAXjZH0vjWW6MmxI9ftPj49P5P/3FXBx+4WriIYSXfver67VVALfK3DqhT3hs82458bq1x5jFL0PdnPSP6ftQ9d+c4J376iz2m89w7vd6rOZ6x9VK9vOj1BKqK+L5FUUNFFLSJa+SJVLatT3z1dSr4+/Nk4+xxvWf/+e1D7UDlHau6PnMw6QsDxJvU5RPA/B33FnFuJ/fkBQK6gxSxj9XAM03sb5JxpFbO1ycU39WTKdujw7/rXywIX1mTReqLlNu/6XzXJeV1iPjCUaS3y3dNPynnPPqswZ03iHD/sXG78777H6+6O6Li46SfSsaXJdGs0vvKeH69enpektVuTBq/arCuumUUWFUrUxe4qPUdZjAum1NABSE9ca88Z5n8hlOR+7n3DTIBrHmvWtux5l2KW9Veve8Hapnd9e8LpxM5LizXnmel65tAXou9HV9TTr7UmCD5oxuY42szkvHr+L99tus+N+3j0ubH3Nd7FbE/2M2lWgQUzmXSKvmvhFkNrvJm3JSep86n30azTrfv12xOaBuKwbDcFSjxjrlKqf/89tOy1C39Ef8fUvwf9Pdm8LTDEJP+9dpRJjQ52KvgFlt0HACSNFjMAQA7rbnVNpGUVweyWxf48j7SYAbi+0GIGAMhh7bL1RT2uTo+vSmAMFXzpLoy6u2frzl39H26Ly6UmohUWAHIRLWYAgNyni4YsnSAlurvg6jcoXNED4bFpPuMH+5r/uDj1GS7hMwSQe2gxAwDkvr1vyPI1piJliipcXk/0eLn+DmVaeMylZ/weAOQmWswAAAAAIM1oMQMAAACANCOYAQAAAECaEcwyjO6qCQAAAOD6QjADAAAAgDQjmAEAAABAmhHMAAAAACDNCGYAAAAAkGYEMwAAAABIM4IZgOtP6RzZuG6+VJmHAABkolDNYtm4rMw8Qq4bMG36jGvmflbQ5eRPnGgxj3JPrh8f4ihcITdPrDAPul08+hM512EepJMONGvLpcQ8DGtrllWr90lWfHMr58vGpROkpO2Y1L/4huw+bpZfF/Jk8aICWTjiiux4+YxsTfQ7VZgvGx8aFv25n70gq7adz5zPPaX76ZwrkdYPvpXl+y+Z5akRmj1S1s8YpN67U733ZbM0XZL8XgDoczqYrV9QIHLwLal9/rBZilxFixmQQfKGRF1SKk1yiQul1NDBUocyUaFsdVAo0xepo6ThH9RtUb6EZxa89SZ7mbqtvNUsC3Ot47mNlI2LbpLFt+aZ1yFrFA6WWSqUaSUzBtO62u/Mvyn3v8GMksz/J4Cea9m+VVbt7BSZeY9srCkyS5GrCGZABrl8aoV8deAn5vaknL+oFl48Jen+e3rY8X2yfEm91IZvb6nYmC2KZPEjurWvU3asUaHMLI3p7GWfVpYr8uUZczeuQVIyYrAs/FFBBl9gJqDjvCz/l2+kNnz7NjM/91TuZ8clOXDWvtv6waXEvi+4PvX6/xNAbDqc1R8UKVkwTxaXmoXISQQzIGONk0FD1I+uDApmWSxUM08WFquL7J27ZGufdV+8JPXuYPByp9Sri/pW/dSIYbI+m8PZdeeybN1mf46p7sYI9FaoZr6sXDaH/59cR3Y/r/8QWiALH+Fzz2UEMyBTFc4Wncsudu6xH6MXyqRG99Fva5YXtrebZUEuyynTUuJx5oodsHqi47Ls3v+tLH/5Qjic1dC9CUjAIBlrupL2WGG+rDTdDDfO7qtuxCn8/0QSxpdMkIqZBTLePMb14LBs110ai8ulptIsSkTpHFm5rk4attTRFTILUPwjw1xvxT/yhs2VISXVMrigWJxfn5c7X5FzRxqCW4mGhdQ6j0m+ax252CTnW1+W7zr8zl1Ibrz9Gcnv2iRfHdEhR60/5iHJL6lwbXOT2uYe323mFdaq186SIUOKzZI29foDansNcvGCWeSnx/vplTdmgxSWiJz/8wr5LtZ2XPIKV8hwfVw60Vna5GJro5w/5X9svVcmK7fcIxU9KP4RqpwjNfeXS4VzOqVTWg82yQvPH465fqhyvjx+/wQpCa8XrXXnNlnuF7zUug1LJwQ/H6Hqx6OkLqS7sLkKM4QLS+hWsW8jurY5xRP8nrM5xR6CClGEbs2XmpnDpCJ8Maou8FrOywu/vxR9Xpx9CSxq4exPZDEH7/J3ZbDU/Jd8tU21X9rZK9J08Ft59vN435bBsvIfbpKKnhTVKBwsiyvyZVZoULg4R+vZS9L47+p8xRxDmafOzTB5fGaelDj7GevceCS6n855MQ8jJFago2f7Ga/4R9WPR6rvoHqflm9lle93IJnz6ezjYLWP9pLWlgvS2HRepEJ/5/ug+EfAfh44eEG2Rn7Pbr1JNrr2LSZ1XmrVefHj/Pu19V1Bk57/fyJ1qpbVSd3MY1K/JMFu2T0SkjvXPSMVpzfJrxtF7qyuViFQ/Y+3rUmaXtyg/r8xN3pZZC+E0pBMrn5MfqheU2AWWa997WV5d6/Pv8TSWvn7tQ9KwUG1zef9/hhp9qm4SXYt2SCHzFJHUWWtzL5/lkws7v493XnwgLzf2CCH4vSQKKpcIffeXyHqV7XRJkd3Nsr+7Xsk/m+LRBTJ4nWLrB4bTZvr5dm9ZnGY87zuZr81do8OpwBXDwqB2N8V88Dqyh9nG0grWsyQJiq0TFLB4wePeoOLklfwoBTO2iA3DjMLXHTwKPzBMzI8Yh0ZUiH5E5+RwjE+DfzD5shgFVQud51U92vVe6v1XaFMyyt4VIb7rau3N/FBVyjT1LbVPg7/wQYZXuizjpLUfkbIG6q32SqXEwplc2X47b9T++oOZVqxCoePSuHttd79SAv9y6dO1i91hzKtQEpm3iPrtywO7DtftWyxWi92KIul6ocT1H875cD+xH7NnlABRWvrdF04dlxWv64V9dwJa0HPtHzhdGkcFPFXbruIwPofuUOZpi5kQzfJ+n8YKYsLzaIUGluhgsFDKrSEQ4Si7lfo8XA/HmwWpIYOIQ1qWwtdF+eaHn9X91CMVg11Ub9SBab1P9IX66797ONz02Mp3k99vmKFsuTOpx0+7X00i5SS0DC1zkipTiQM9YjangqXQfupx136FcdIKJRliL74/0RmGGdCymy5b+2jdgDTiitkYvUKFaC8yyqq59r3DR10/n7tMzLPHco0/dqlz8jf1/j8/hs7xnptZ6v6Pe3L7FPbKYnK2Gp7tUsfdIUyTW175oMyb+0Gua8y6PftXLlv3e/Uuu5QphXLxAWPSu26WvVbKxXaZetqezx2xdLo33M96mZ//Igc0F+wmbdQkChHEcyQBnYLlg4t+i9TF48+KR2ughfnWpvksvofY/4tEWHCCkl2oNItXO51OtQ6Wl7JY9GBbugY+31GPqbC0oOSd7FJzv35ye7tdVqvUkFonH0nTO2nCnDOPrqLcnQctfdxyESf7SW7nx5zZbD1W2q/6PofsalQNutRFR5165ja3p+d7anbnzfZBUSGPCj5ab6AdX756IDUtHlbdwGRNW/JDutKpkAWrvWZW6xyvtTNtE6G7HCtt2pzs+kypP9qbC/zbw0rkjGj9c+zcirBvxK2uC+0wq7Il35dlxIVLiaRJ2Ncn0VotrpwtS5Gr0jT252u8Wnfyg7r9YNkobq4Te0vYRXA1MWybi2pf9ls71/0eDj7QlNUmEhZRblbVTDRLYX6+D5QQcM5PnVb9bYdVktm3OQTXFTYsYKjunv2kuxwnxtrX/W6g2TsSPvVvdM9nsx9W+Wcj5hSu5+ellW/lrIkz2fVj50WQe/3bJX6njWdVcEp1YHo1mFWINOtY/UvR54T+7xW/Cjie/35t67XmcIt+jyEl7luAa1l2u6mC+qY7Pt6qoO+Kv/fJ/+fyASldkiSmSqIHdwkDUt+Ir/ebP/uKlDLdKuWe5mHFZLUa9TdTud11u1Jadhp3mPBY3JnRDgpKrGje2erT2ua5uzT6VMRrVghufN++/f00c1Pmm2Z7an969Qha2n09qxQtuVRFeZ065jazzXOeuq2ZpM06d9JxQ/K7J50GYzpsDy7+Zj6qf4duseIlc6RxxPuZq+1y7vN+qJlhIxJsAjI7sZm+3iUvh1jjVQgmKHf5Y15TPKtwVOvqNCyQs51tLi62bXIxVMbVLjYJOe+cHdnVOHDzO+l5/Tq8HQ7VOvrdVqt/5OqQOP965hTgj5Pt3q1qoD18Qa5eMH5n7/aXusrrvfycfGAnPd0PVTb61Db06Euqpth8vvpMcwOk1YrXxxDJqlQpi5h9L6c010W3ftzYY9894V9fHlDYmyvrzm/fEw3imf3un4BHT8sW1dvM+FsglRH9IEPmSvGps1bZatrvZa9+2S59YtugtwR85fnSBlr/Q2gs4d/wQ6oqnbWrwJbT7gu0gvz5XFzka27W3m6EKogt3WbOl/WRd5gqU7xWBmr+9Xvz7u6venxcGfCYaRiQipazfJk8Uz7fZreVse33xs0WtSF+HIVJvQ5mXWL9/hCs/PF+pdkdUNUF9eebm/O2L1Odc7MojRJ5X56QllQF9Vkzqf6nlVb//yjv2ct6nv2bPh7lkJqX1ap0L9cnZPdHZHn5IzUWzvu/SNFynScV8dkB7i+nyOur/4/4aa7jNtjhJyb3TVtgtRFLF+ZiiBhWq+k7RVpeN505/vylPq/d8Qyo7uVS4UdFcq0o5t/Ir/1vK5F2rdvUOHM/v03cbb391Gh1R2iTTq/tB9Hidei1nZA9nu6SKrt7d0gv1UBbdeaFVFdLScvU6FM/d7Uz72uuyy6nz++R9598RXreAtKUvh7c+8bVmVFPUbscev3nKtS8Is9nQe0QMaONXfjOb5Pnl0d64+XyCQEM/SzuZJv/Q9YBYmPY4wjU4HCPX4rb0y1VQjjsgpWQRMt63Ff+v0iW77sLoE6KD0pHaeC/9cXHYJUkOpSP4Y8KMMnzZW8qBYuFeoiuhn2Zj89TCvf5Yvx/ldtWtbUpeHwH/xObp7lc9OthNZr02hsgd2V6WBTwF/r2mXrazpkiZSUT+r+a2KCiktSPKDZ+st95LgU06oS4y/1PTbSdPFqOR/wV321zYP29kpCg3t8XoJdkQNf+P/r6+5ymdf77RWaucBU0NgeFEw+v2S1jHiPL0/u1F35dJD49xhjwzwX/OmQuv3sDmWXpD5oPFyy5zPu96xvtDjbKsyTqlvzZeWP9bx+I62iHPYYsFS1eKZJf/1/op85rVdHX2voDlYmGLmXRbZyFdVUq7CjHu98Ul6PGkdla99/wAQe9++/kIzUvRpUuPo8oDVn8g/twBfdotYiZ06rH8UPyr3L5kpRVCtSi88Ys7lyixVsK2Te2t/JP27xuenxbtZrU8uurKj+fS6YJyuX2b1IrD86Bhy3n5bWbG+SRSwEM/Qv0xKUWBe9bna4apNLnYGXPgFCal39U0/S7L9uXsGswBB08Yju6thmjUErtILPBhk+RoU083yk5PfTa0iB/iWUwMTShXblxkzntHq1tsaY2OfLTjsQFHsrjTm/hCqWzpcq9y/d0jJZuVSPHVNnvDWb/grY/Rf2UIH9TWo1Y1V8OVXeRkSOTetjqdieEwj0VAFm0t3o2012i5OHU5HvspzqxyDRc6nZz1C4e6IWY2xSkuczoe9ZH9AFbazqiA8VSJ0eQ6nHmnnG4CExh+VZ013buVktL65u3M4turBEz/m1XtnByLvMfl2TfGG26ax3dH8Pf/+VzpGJetWobooOE9witu849PyTsutgmxTMfFRqraC1Qe6rUSHNPB+lcrYVINNDfZZrdDf8Aquqphx8KyWfGXIHwQz9y2kJSqCLXjcnXMUphOH73mYusBiTNDth6opuHYvSosLZCvnqzyqgmbFvVjENK6BFtif0Zj/dzPskMLG0001Td5vsHgPnf4vVWpjRnO4futvOWle3nbX32Beg6hfb9mz4xea0dmR82EC/0sVBfjTYagWzxl7p0JXi4itpocOmU9Dm7CVrPJwea7bKjDezuzIi8zitSa1yJtyK4wQj9zLzunAxDr/X+PDrkphw4Y+gFrUWFc5WyK/XqIC204wr08U7rIAW3e4fbhHc7BpXFnD77fbUf1FDsyfYf2DRRo9UZ65nnD90IjcRzJAjnEId6rLX3fLltCgFTtKcYJi6YMa+6ZDz501y8aIOaPEKePgJ2E+Pnk8sndbxYz1QUhKj35LT3dF3LJhdocVqOQrrlKadb8mqOGX2Rc7Il9awhvTO+RO6ZbDpTnYpqrx1zFYEp5Wkv6q8pXJ7TmufLm3uLtzgdwsYU9UnY5BSLvn9tD57M6YsPPYqqPhKL89n/7VWDZaVOmzqLp660Mi2b63xcHqsWUtPu5+mouUWiXOKbBzc7ypJb4KRe1lgMY5YnEIdOoR1fzvjFf4oclq44m3ruApo2/W4MhWq1mySo206oPkV/rCldPxYoirny3o93vrgW1Jv5iSzx5v1VKd8GTQeD1mNYIb+ZcJGXslDwV3whkV2FTRjvaRCBgdc/LgLipx3tUaEW5QCJ2kOalGba48rM488LuyxWs/U/1FlkBXqHMnvp4cJk4m0Kl6+aEeVvJFz/PdVyStU4dPcD9TbCSjjhJ6W/cfsC8qZFQEl8Ytk8f12t8TW5iPeC0qrKqPIjjX1stzTbWerPLs9XijT2uWUHoPQgypWKRcu8iHSdKx77El4PFcoP6Ccenexh1YV6MLHqi5urVopARet3ZUegwSN7QnYXpB4F81OJcrA4wtySd6zNj5IFv6X/OC/KBcmOA6uzy7uU7CfEYU+dv/erkZY8SOfEvtJns/u79lg/+qehU6XzBQ7e0nejZyrzKKCrLkXXxKhV/176/sJpnOUX+uVCUaxW7nMWC/1+++WgAIkRTWP2VOltL0i+129HGIV/iiq2WBVedSiW9Tmyn16XJl55HF8j7z+mv17uiCiSEZ7q/17s6B8TmB3x6LKUHBXSEePf2863e+PSf3zh2X39l1W0auSBYt6ULSlSO4s12c+8SrD1nad/VxWZpYhUxHM0L8u7JNL1uCyChl++woZMsx1uaInZJ60QW7+QfScYhc79f9gRYZMjJg7TIW4G/V8aOZ/7Oc9lRzVr/SY3RQVJwSd2eddTxfx0OPKbre35/nVrrap50Hzk+x++tFha4jTIqfPjd+caR1mrN6QB625ysKvV/Tk3dY2Jz4Tt1R+VXX33GJ6UHLQfGLRTGuUVU2xrPvis7TMOx7s+D5ptLoj6pL4i9UvIdcvMfVaZ/JN/QurMaJqlN1to0DGzk7kF5+/3e/bZYpn9eI9kqKLHqiQZE84q7ToyZutZ2wd56XRubB/aKSsvNX1TSsc7Jr0+JI0eqrLOSW5B0vdj11FHtT29NxR3eOVglX8SF+0uteNtb1I3duvjniPKs93zSleYo5Pv9bzvDk//xA9HYAueW5dPumufYtuksXuc6PW0+OyNj5UEKfbX6L7mbze7md0AL4kz5rKitFhL8nzGZ6qQX1f1D66j93eP79xfimgzsnj7vPunA/9PfMemA9v6PV8XlYxkeDAVVXRPSeg/1QM2e9E6zFpOtjTSrPx+bVeJbrs0Pv277+JSyPmDiudK3cuUwFrgf37r+lFV1GRsGJrPrTw/6HVOtYcY2qdowetXzKebWlWsRE9rmydvT3P/931+qZ1Lsre/XJU/yx+0JqrbLLrd1WRs69Ln4lbKr+nvzerltnd75s2O5OCt8vWF+1pX6wx1NayOEonySy9zYNfJDyxeKimons/A/84ikwxYNr0GdfM/awwfnxITpzw/uPMJbl+fBY9yXOMSoGXO1+Rc0eig8uQSb+T4VbfCT8q7ESVrrfnS8sf0iTnDmzwLTaSN8YOS3qMVmQVRee5QHqOMk85fFvP9zOSmZfMPArT0wv4VbIsXCE3mxL9fvRcaud89tOtaplTflmzS9onWiUqVLPY7poR6eBbUvv8YfNA0xNMOwHMT8B2S+fIxrW6pHCw1rZjcuC1A55y+l663LT6pdjWLKtW97QscSJUIAqHGn96zrAXfu/fXS/2unaJ86hqeuoCt8HqLhZNl8JvHFEgdaHIdZ1tXZHWwLmrArYXIVxFMJLuZhdRkS7wtQ49/9e/+8w3VZjfHWp9xd/XnuxnJGdda2qBWEE1if2M997h/U7V+Yy1j3oM2NnBUhH1fUlezH1U29NdNutmDJamt78Jnkog5nlV7/Ev3/penFb92Kn6qKXumK4Hk5f9TubNVOHJVWLeXtYku5ZsMF0ZQ3LnumfUxb57mc1+rXkQxfu+YZUr5B9Nq5iX/frPZ+tQpwKNz7pWi5oV+ALoudQiyvtbArdp03Owvem3nkuPfm9WzpcG3VoW9XtRnU3nd6jPc5Gc1zZtTrzQS+Tv6Nad2yibn8EG3Tx69NPmflYYPnyEnDtn/ekvJ+X68Vn++ifpam2SK8OmSt7Q73U3215skvMnfi3nTv2HXDWL3C6feVkuXQrJ3wwtkYFOqrvYJhe//l9y7rPNcvGvZlnY7TK0dJbkXXxfzn/9J9/3/Jubl8iQoW1yqfX38p8R61/9y+/l/NmvZcANY2Wgaz8vq23+54l1aj8/8g07Pd/PSCfk0tkbJO+myZJn1r+szk1X6y652OXz3eh619rPvJvGqtd/zyzUgewV+cvRtfKXr074Hrvb8dODZMJtxVKiVm/d+aps+GPM5Ohx9pM/yfs3FMnUsgIJb10FpR3/7xfyp5Pu97kgf/r3A/L+N4OkQAVevS1bp7Qe3Cv/bfU78h/nzCK3cxelq7REZhV7+o16fO97BXJbxQ9kwjcH5I++PUA7pPWGSXJP+USZesMxefOTxI8vMQPl9h8Mldui0rQOQH+V/7nzL/Ivf7ok/v+yr8qf/nxB3v92gBQU3CAl4fdQ67Z8J/9t23fyH34tvmcuqXXyZGpBnnzPWUdf8O7slH85clUGFA6Re0aLHPq0S/4UXt/s58WL6n3PylsR6+vw+D/VBf3OBC5iz57qkvcHqfVHq/XNMisQfPqf8qcz3m+cfu3/brkiNwzLk5tGDHS9/oo0ffadCqwX/I+x66/yZtN/yteDBsqYIa7jjHduXHqyn5FGjBmqzuFA+cvpi/LmqRivTWI/47332VN/lRtuUZ/V6MEy4dv/lD+69jWp86n30axzm1rHpieptl//ie/3JXnWeff5fu549y/y9J4uOT5ssPxfE/KkTX3n/hhUrNXs84SSPPXvoruDj560+g/vXpCdAZ/f8bMD1Dr2v6XWD87JBvXvAYkISVn1f1H/bz4sf/7/vRsu6mEt++59OfDvf1L/F9dul2n/31lS0OZeZut472U5+k1IxpSUiPq1aWtrk6O7/5e8+cxmOez3//iT78q50r+VW4rDK8jRnd2vHzdviXrOvU/dLnzye9l/8GsZNGKsDFXrO78lOtU22xrWyZvbP/IPV2qber2i28ZKwffC/4JUIHtF/uPFtfL2myc8x+Un4d+b+o+LK6aqf6fHpH71exKZ3fTv0K/VtcqsmRPlb2P+fiqTpf/PD6RET0b90pcBv0+inf3kP2XCHRPDv3P/8vmf++B3IFKFFrMMc120mAEJM61sEqulq0iqli2y/nIZ+y+BTotdz1oEAQBIN7uFrhe/v0yrHS1mmY0xZgAyl+lPH1UQxKNdTrTaVRtjc/rzF8jCtQn25wcAIM10d0T7j4+7kv6joj1eu1MO7CeUZTKCGYCMpwdW64IhkfUCQrpwyDKn/3x04ZAox/fJ8s26QuQEqVtHOAMAZDb3GLSkW7pK58jj1ns00Vskw9GVMcPQlRHw8g6wDqDHtL34RuK/cHSf/0cKpFGts5tfUgCADKWD2eMlTbI8TmEQf0Vq/VkqlE2QEvV7sn61UxESmYpglmEIZkC0UOUcqbl/ghQXm0moDaca47t72/ug0iIAANnMrkhcfPAteUEFO35PZj6CWYYhmAEAAADXH8aYAQAAAECaEcwA4P/f3h3jOJFEARh+e4OxRDImME4m3F1nSEgdQTAigISAAyChTiwRQYSIuMHINxgECROgyScBCcnkJNgB7QSpfYNdaakJ9gTlV/N9UVXf4Nfrfg0AUJkwOzBeYwQAgJtHmAEAAFQmzAAAACoTZgAAAJUJMwAAgMqEGQAAQGV+MH2AumUf/aJcYoxht4+Pq8u42pZHAABAU0zMDt4kpsfz6N+cRleeAAAAbTExO3Szk3j6/H48Oh7j4vV5nJuaAQBAc0zMDt32e3xej+UCAAC0SJglsBn25QQAALRImCVwZ3pUTgAAQIuEWRr7+On7MgAAaJIwAwAAqEyYpTGP/u3d6GblCgAANMO6/BRuRbd8EI8Xk5iWJ8On9/Hiw69yAwAAMjMxS+Q6ygAAgLaYmGVw7zTePZtH7H7E2eprXG1NygAAoCUmZgn8Xpc/xsXqUpQBAECDhFka1uUDAECrhFkaR3HbRkYAAGiSMAMAAKhMmCWwGfblBAAAtEiYJfB7+QcAANAqYXboZifx5OGkXAAAgBb5j9kB6pZ99ItyubZbx8tXX+KG/cENAABuBBOzgzfG8G0dZytRBgAArTIxAwAAqMzEDAAAoDJhBgAAUJkwAwAAqCxdmPm+DAAAaI2JGQAAQGXCDAAAoDJhBgAAUJkwAwAAqEyYAQAAVPbHn3/9/U85p9Et++gX5RJjDLt9fFxdxtW2PAIAAEikgYnZJKbH8+jfnEZXngAAAGSScmL2P7OTePr8fjw6HuPi9Xmcm5oBAADJ5J+Ybb/H5/VYLgAAAPk0sfxjM+zLCQAAIJ8mwuzO9KicAAAA8mloXf4+fvq+DAAASKihMAMAAMipoTCbR//2bnSzcgUAAEgi/7r8/9yKbvkgHi8mMS1Phk/v48WHX+UGAABwuJp6lfE6ygAAADJpY2J27zTePZtH7H7E2eprXG1NygAAgDwaWpc/xsXqUpQBAADpWJcPAABQWUNhdhS3bWQEAAASamr5BwAAQEZNhNlm2JcTAABAPg0t/wAAAMgpf5jNTuLJw0m5AAAA5JPyP2bdso9+US7Xdut4+epLbMoVAAAgiwZeZRxj+LaOs5UoAwAAcko5MQMAAGiJdfkAAACVCTMAAIDKhBkAAEBlwgwAAKAyYQYAAFCZMAMAAKhMmAEAAFQmzAAAACoTZgAAAJUJMwAAgMqEGQAAQGXCDAAAoDJhBgAAUJkwAwAAqEyYAQAAVCbMAAAAKhNmAAAAVUX8C9oqm+YVDPfWAAAAAElFTkSuQmCC;" vertex="1" parent="1">
          <mxGeometry x="300" y="770" width="870" height="684" as="geometry" />
        </mxCell>
      </root>
    </mxGraphModel>
  </diagram>
</mxfile>
